<svg width="34" height="13" viewBox="0 0 34 13" fill="none" xmlns="http://www.w3.org/2000/svg">
<path d="m19.517 0.34766c-0.347 0-0.6257 0.27879-0.6257 0.62586v6.856c0 0.35844-0.1252 2.0995-2.1274 2.1905h-0.4835c-2.0079-0.09102-2.1273-1.832-2.1273-2.1905v-6.8503c0-0.34707-0.2787-0.62586-0.6257-0.62586h-1.7804c-0.347 0-0.6257 0.27879-0.6257 0.62586v7.0096c0 0.67707 0 4.6086 5.034 4.6086h0.3583 0.3925c5.034 0 5.034-3.9372 5.034-4.6086v-7.0096c0-0.34707-0.2787-0.62586-0.6257-0.62586h-1.7974v-0.005688z" fill="#1A1A1A"/>
<path d="m29.459 0.34766h-4.9093c-0.3506 0-0.6323 0.28078-0.6323 0.63032v1.2893c0 0.34954 0.2874 0.63605 0.6381 0.63605h2.2937 2.1442c1.0692 0 2.0695 0.24067 2.0695 1.4841 0 1.2606-0.983 1.444-1.7648 1.444h-2.4489-2.1098c-0.4541 0-0.822 0.36673-0.822 0.81942v5.0253c0 0.3496 0.2817 0.6304 0.6323 0.6304h1.4487c0.3506 0 0.6323-0.2808 0.6323-0.6304v-3.037c0-0.13752 0.115-0.25212 0.253-0.25212 0.5403 0 1.5061 0.00573 2.7018 0.00573 2.995 0 4.4149-1.9311 4.4149-3.908 0-2.2577-1.3969-4.1372-4.5414-4.1372z" fill="#1A1A1A"/>
<path d="m2.6052 4.472h-1.6666c-0.35266 0-0.5745-0.31293-0.5745-0.66569 0-1.4622 1.3424-3.8064 4.5448-3.8064 3.8964 0 4.2718 2.9074 4.2718 3.7722 0 0.84775-0.16496 2.2645-1.7292 3.3796-1.86 1.32-3.2309 2.1848-3.2309 2.4807h4.4026c0.34698 0 0.6257 0.27879 0.6257 0.62588v1.3257c0 0.347-0.27872 0.6258-0.6257 0.6258h-7.9975c-0.37542 0-0.6712-0.33-0.62001-0.7055 0.59157-4.381 6.4048-5.1832 6.4048-7.7891 0-0.71689-0.47212-1.3314-1.5472-1.3314-1.3538 0-1.5699 0.95586-1.678 1.5988-0.05119 0.28448-0.29578 0.48931-0.58019 0.48931z" fill="#1A1A1A"/>
</svg>
