<svg width="34" height="34" viewBox="0 0 34 34" fill="none" xmlns="http://www.w3.org/2000/svg">
<path d="M17 0C7.60332 0 0 7.60398 0 17C0 26.3967 7.60398 34 17 34C26.3967 34 34 26.396 34 17C34 7.60332 26.396 0 17 0ZM17 31.3438C9.07156 31.3438 2.65625 24.9279 2.65625 17C2.65625 9.07156 9.07209 2.65625 17 2.65625C24.9284 2.65625 31.3438 9.07209 31.3438 17C31.3438 24.9284 24.9279 31.3438 17 31.3438Z" fill="white"/>
<path d="M17 8.55824C16.2665 8.55824 15.6719 9.15284 15.6719 9.88636V18.439C15.6719 19.1725 16.2665 19.7671 17 19.7671C17.7335 19.7671 18.3281 19.1725 18.3281 18.439V9.88636C18.3281 9.15284 17.7335 8.55824 17 8.55824Z" fill="white"/>
<path d="M17 24.9794C17.9902 24.9794 18.793 24.1766 18.793 23.1864C18.793 22.1962 17.9902 21.3934 17 21.3934C16.0098 21.3934 15.207 22.1962 15.207 23.1864C15.207 24.1766 16.0098 24.9794 17 24.9794Z" fill="white"/>
</svg>
