<svg width="30" height="30" viewBox="0 0 30 30" fill="none" xmlns="http://www.w3.org/2000/svg">
<g clip-path="url(#clip0)">
<path d="M25.0879 0H4.91282C4.46372 0 4.0918 0.365623 4.0918 0.82102V29.1792C4.0918 29.6278 4.45719 30.0002 4.91282 30.0002H25.0876C25.5367 30.0002 25.9086 29.6346 25.9086 29.1792V0.820787C25.9086 0.372152 25.5433 0 25.0879 0ZM9.17135 27.0629C8.01036 27.0629 7.06785 26.1202 7.06785 24.9594C7.06785 23.7986 8.01059 22.8559 9.17135 22.8559C10.3321 22.8559 11.2749 23.7986 11.2749 24.9594C11.2744 26.1202 10.3316 27.0629 9.17135 27.0629ZM9.17135 21.3167C8.01036 21.3167 7.06785 20.3739 7.06785 19.2132C7.06785 18.0524 8.01059 17.1097 9.17135 17.1097C10.3321 17.1097 11.2749 18.0524 11.2749 19.2132C11.2744 20.3739 10.3316 21.3167 9.17135 21.3167ZM9.17135 16.0002C8.01036 16.0002 7.06785 15.0577 7.06785 13.8967C7.06785 12.736 8.01059 11.7932 9.17135 11.7932C10.3321 11.7932 11.2749 12.736 11.2749 13.8967C11.2744 15.0577 10.3316 16.0002 9.17135 16.0002ZM15.026 17.1097C16.1868 17.1097 17.1295 18.0524 17.1295 19.2132C17.1295 20.3742 16.1868 21.3167 15.026 21.3167C13.865 21.3167 12.9225 20.3739 12.9225 19.2132C12.9225 18.0524 13.8718 17.1097 15.026 17.1097ZM12.929 13.897C12.929 12.7362 13.8718 11.7935 15.0325 11.7935C16.1935 11.7935 17.1295 12.7425 17.1295 13.897C17.1295 15.0514 16.1868 16.0005 15.026 16.0005C13.8718 16.0002 12.929 15.0577 12.929 13.897ZM15.0323 27.0629C13.8715 27.0629 12.9288 26.1202 12.9288 24.9594C12.9288 23.7986 13.8715 22.8559 15.0323 22.8559C16.193 22.8559 17.1358 23.7986 17.1358 24.9594C17.1358 26.1202 16.1868 27.0629 15.0323 27.0629ZM20.8876 27.0629C19.7266 27.0629 18.7841 26.1202 18.7841 24.9594C18.7841 23.7986 19.7269 22.8559 20.8876 22.8559C22.0484 22.8559 22.9911 23.7986 22.9911 24.9594C22.9907 26.1202 22.0479 27.0629 20.8876 27.0629ZM20.8876 21.3167C19.7266 21.3167 18.7841 20.3676 18.7841 19.2132C18.7841 18.0589 19.7269 17.1097 20.8876 17.1097C22.0484 17.1097 22.9911 18.0524 22.9911 19.2132C22.9907 20.3739 22.0479 21.3167 20.8876 21.3167ZM20.8876 16.0002C19.7266 16.0002 18.7841 15.0577 18.7841 13.8967C18.7841 12.736 19.7269 11.7932 20.8876 11.7932C22.0484 11.7932 22.9911 12.736 22.9911 13.8967C22.9907 15.0577 22.0479 16.0002 20.8876 16.0002ZM23.1833 9.54888C23.1833 9.99798 22.8181 10.3699 22.3622 10.3699H7.6382C7.1891 10.3699 6.81718 10.0045 6.81718 9.54888V3.5527C6.81718 3.10383 7.18257 2.73192 7.6382 2.73192H22.3622C22.8113 2.73192 23.1833 3.09731 23.1833 3.5527V9.54888Z" fill="#562212"/>
</g>
<defs>
<clipPath id="clip0">
<rect width="30" height="30" fill="white"/>
</clipPath>
</defs>
</svg>
