<svg width="34" height="34" viewBox="0 0 34 34" fill="none" xmlns="http://www.w3.org/2000/svg">
<g clip-path="url(#clip0)">
<path d="M30.1041 34H3.89592C1.7468 34 0 32.2532 0 30.1041V6.7291C0 4.57997 1.7468 2.83344 3.89592 2.83344H30.1041C32.2532 2.83344 34 4.57997 34 6.7291V30.1041C34 32.2532 32.2532 34 30.1041 34ZM3.89592 4.95844C2.9198 4.95844 2.125 5.75298 2.125 6.7291V30.1041C2.125 31.0802 2.9198 31.875 3.89592 31.875H30.1041C31.0802 31.875 31.875 31.0802 31.875 30.1041V6.7291C31.875 5.75298 31.0802 4.95844 30.1041 4.95844H3.89592Z" fill="white"/>
<path d="M32.9375 13.4584H1.0625C0.475998 13.4584 0 12.9824 0 12.3959C0 11.8094 0.475998 11.3334 1.0625 11.3334H32.9375C33.524 11.3334 34 11.8094 34 12.3959C34 12.9824 33.524 13.4584 32.9375 13.4584Z" fill="white"/>
<path d="M8.146 8.5C7.55949 8.5 7.0835 8.024 7.0835 7.4375V1.0625C7.0835 0.475998 7.55949 0 8.146 0C8.7325 0 9.2085 0.475998 9.2085 1.0625V7.4375C9.2085 8.024 8.7325 8.5 8.146 8.5Z" fill="white"/>
<path d="M25.854 8.5C25.2675 8.5 24.7915 8.024 24.7915 7.4375V1.0625C24.7915 0.475998 25.2675 0 25.854 0C26.4405 0 26.9165 0.475998 26.9165 1.0625V7.4375C26.9165 8.024 26.4405 8.5 25.854 8.5Z" fill="white"/>
</g>
<defs>
<clipPath id="clip0">
<rect width="34" height="34" fill="white"/>
</clipPath>
</defs>
</svg>
