<svg width="26" height="23" viewBox="0 0 26 23" fill="none" xmlns="http://www.w3.org/2000/svg">
<path d="M12.9993 5.16667C16.2194 5.16667 18.8327 7.78 18.8327 11C18.8327 11.7583 18.681 12.47 18.4127 13.135L21.8193 16.5417C23.581 15.0717 24.9694 13.17 25.821 11C23.8027 5.87833 18.821 2.25 12.9877 2.25C11.3543 2.25 9.79102 2.54167 8.34435 3.06667L10.8643 5.58667C11.5294 5.31833 12.241 5.16667 12.9993 5.16667ZM1.33268 1.98167L3.99268 4.64167L4.52935 5.17833C2.59268 6.68333 1.07602 8.69 0.166016 11C2.18435 16.1217 7.16602 19.75 12.9993 19.75C14.8077 19.75 16.5343 19.4 18.1093 18.77L18.5993 19.26L22.0177 22.6667L23.4994 21.185L2.81435 0.5L1.33268 1.98167ZM7.78435 8.43333L9.59268 10.2417C9.53435 10.4867 9.49935 10.7433 9.49935 11C9.49935 12.9367 11.0627 14.5 12.9993 14.5C13.256 14.5 13.5127 14.465 13.7577 14.4067L15.566 16.215C14.7843 16.6 13.921 16.8333 12.9993 16.8333C9.77935 16.8333 7.16602 14.22 7.16602 11C7.16602 10.0783 7.39935 9.215 7.78435 8.43333ZM12.8127 7.52333L16.4877 11.1983L16.511 11.0117C16.511 9.075 14.9477 7.51167 13.011 7.51167L12.8127 7.52333Z" fill="#808285"/>
</svg>
