<svg width="36" height="36" viewBox="0 0 36 36" fill="none" xmlns="http://www.w3.org/2000/svg">
<g clip-path="url(#clip0)">
<path d="M32.7011 20.442L32.5873 18.4114C32.5717 18.1338 32.2194 18.0249 32.0499 18.2454L30.8103 19.8576C30.7777 19.9 30.7363 19.9502 30.6872 20.0059C30.4943 20.2248 30.1761 20.0228 30.2368 19.7374C30.2886 19.4947 30.3343 19.2405 30.3718 18.9757C30.6743 16.8384 30.4859 13.5579 27.8718 10.0676L27.0866 9.01937C26.9481 8.83445 26.6614 8.86891 26.5706 9.08137L26.0562 10.2858C25.2271 12.2267 23.8857 13.2005 22.639 12.7664C21.6792 12.4324 20.8991 11.334 20.4989 9.75262C20.1256 8.27761 19.9086 5.68202 20.9956 1.69277L21.3258 0.481128C21.3852 0.262918 21.191 0.0598888 20.9704 0.109594L19.7453 0.385594C13.9715 1.68623 10.0809 5.78644 8.49385 12.2428C7.90398 14.6425 7.73744 16.9306 7.7197 18.6305C7.71706 18.8843 7.42336 19.0238 7.23343 18.8555C6.19337 17.9338 5.67205 17.1933 5.65646 17.1709L4.7268 15.8051C4.58213 15.5926 4.2546 15.6486 4.18879 15.8971L3.76512 17.4972C3.43979 18.7258 3.2749 19.9969 3.2749 21.275C3.2749 29.3337 9.78232 35.8999 17.8183 35.9977C17.8787 35.9993 17.9392 36.0001 18 36.0001C18.0607 36.0001 18.1212 35.9993 18.1816 35.9977C26.2177 35.8999 32.725 29.3337 32.725 21.275C32.725 21.0054 32.717 20.725 32.7011 20.442ZM18 33.8889C15.2764 33.8889 13.0606 31.6731 13.0606 28.9496C13.0606 24.6706 14.8823 22.5182 16.524 21.4472C16.7347 21.3098 16.9992 21.4974 16.9811 21.7482C16.9107 22.7227 17.0993 23.6268 17.4069 24.3311C17.9612 25.5999 18.9502 26.431 20.0527 26.5541C20.4382 26.5971 21.0549 26.5722 21.7217 26.1762C21.8634 26.0921 22.0502 26.1187 22.14 26.2569C22.6562 27.0514 22.9393 27.9862 22.9393 28.9496C22.9393 31.6732 20.7235 33.8889 18 33.8889ZM25.1113 31.6873C24.8635 31.8571 24.5505 31.5737 24.6506 31.2905C24.9094 30.5577 25.0505 29.7698 25.0505 28.9496C25.0505 26.9508 24.197 25.0381 22.7089 23.702L22.0892 23.1457C21.9574 23.0273 21.7522 23.0484 21.6472 23.1911L21.1535 23.8617C20.978 24.1003 20.6316 24.4953 20.2873 24.4562C20.0142 24.4256 19.6159 24.1138 19.3417 23.486C18.9625 22.6181 18.8855 21.246 19.8064 19.9983L20.8523 18.5808C21.0089 18.3687 20.8352 18.0723 20.5736 18.105L18.8258 18.3241C18.7434 18.3344 16.787 18.5935 14.847 20.0516C11.6259 22.4724 10.9497 26.2265 10.9497 28.9496C10.9497 29.77 11.0908 30.5581 11.3498 31.291C11.4499 31.5742 11.1368 31.8576 10.889 31.6879C7.56891 29.4134 5.38632 25.5944 5.38632 21.2749C5.38632 21.081 5.39075 20.8872 5.39958 20.6938C5.411 20.4439 5.70969 20.3292 5.89784 20.494C6.54912 21.0644 7.36415 21.6846 8.3483 22.2685L9.66131 23.0469C9.87489 23.1736 10.1411 23.0007 10.1123 22.7541L9.93525 21.2375C9.93047 21.1964 9.4681 17.0764 10.5574 12.6932C11.7511 7.88949 14.2608 4.68161 18.0322 3.12746C18.2487 3.0382 18.4722 3.22887 18.4305 3.4594C17.9648 6.03816 17.9692 8.36139 18.4525 10.2707C19.03 12.5525 20.3032 14.1889 21.9455 14.7603C23.0871 15.1575 24.3175 15.0098 25.4103 14.3446C25.9198 14.0345 26.39 13.618 26.8102 13.1084C26.95 12.939 27.2206 12.9549 27.3198 13.1509C28.21 14.9099 28.5375 16.7317 28.2941 18.5883C28.0457 20.4836 27.2657 21.7218 27.2604 21.7301L26.614 22.7217C26.4943 22.9054 26.6056 23.1512 26.8226 23.1825L27.9942 23.3513C28.6458 23.4451 29.3203 23.3515 29.9896 23.0788C30.2164 22.9864 30.4751 23.1651 30.4338 23.4065C29.8477 26.8349 27.8729 29.7954 25.1113 31.6873Z" fill="white"/>
</g>
<defs>
<clipPath id="clip0">
<rect width="36" height="36" fill="white"/>
</clipPath>
</defs>
</svg>
