<svg width="40" height="33" viewBox="0 0 40 33" fill="none" xmlns="http://www.w3.org/2000/svg">
<path d="M1.06613 10.1536C1.02929 10.114 1.03052 10.0524 1.06891 10.0143L10.0965 1.07087C10.1359 1.03181 10.1996 1.03233 10.2384 1.07203L13.1305 4.03236C13.1686 4.07138 13.1685 4.13377 13.1301 4.17256L4.12304 13.2808C4.08308 13.3212 4.01753 13.3202 3.97878 13.2786L1.06613 10.1536Z" stroke="white" stroke-width="1.5" stroke-miterlimit="10"/>
<path d="M38.9341 10.1536C38.9709 10.114 38.9697 10.0524 38.9313 10.0143L29.903 1.07087C29.8636 1.03181 29.7999 1.03233 29.7611 1.07203L26.869 4.03236C26.8309 4.07138 26.831 4.13377 26.8694 4.17256L35.8771 13.2808C35.9171 13.3212 35.9827 13.3202 36.0214 13.2786L38.9341 10.1536Z" stroke="white" stroke-width="1.5" stroke-miterlimit="10"/>
<path d="M12.9292 4.37553L15.2957 6.53819C15.2957 6.53819 16.3979 7.38469 17.1923 7.45517" stroke="white" stroke-width="1.5" stroke-miterlimit="10"/>
<path d="M4.63525 12.7624L7.23093 15.5336C7.51597 15.8378 7.70852 16.2189 7.78651 16.6306C7.98113 17.6599 8.25236 19.4471 8.25236 19.4471" stroke="white" stroke-width="1.5" stroke-miterlimit="10"/>
<path d="M27.1552 4.46138L24.0888 7.19907C23.7665 7.49008 23.2986 7.54102 22.8693 7.3184C20.3626 6.03784 18.3971 6.09157 16.8546 7.75177L12.1236 12.8561C11.0849 13.9741 11.0642 15.7097 12.0759 16.8528C13.1843 18.1047 15.1016 18.1717 16.2928 17L18.4012 14.9725C18.4012 14.9725 20.9727 16.0535 23.1764 16.1051C25.3801 16.1567 27.1552 15.3668 27.1552 15.3668L32.0753 20.4248C32.0753 20.4248 34.2065 22.4709 32.2706 24.5338C30.7088 26.1982 28.9648 24.5338 28.9648 24.5338C28.9648 24.5338 30 26.5467 28.63 27.7914C27.5279 28.7928 25.7981 27.3259 25.7981 27.3259C25.7981 27.3259 26.3318 29.1613 24.9336 30.1746C23.5 31 22 29.5 22 29.5C22 29.5 22.1992 31.3588 21.1812 31.8104C19.4654 32.5717 18.0009 30.795 18.0009 30.795M18.0009 30.795C18.905 29.8808 19.5213 28.3225 18.5358 27.3259C17.5503 26.3294 16.7436 26.973 16.7436 26.973C16.7436 26.973 17.3156 25.4948 16.2928 24.6483C15.4411 23.9434 14.2216 24.5994 14.2216 24.5994C14.2216 24.5994 14.4259 22.6622 13.5335 22.0983C12.6412 21.5344 11.3577 21.946 11.3577 21.946C11.3577 21.946 11.5659 20.5372 10.6901 19.7291C9.8143 18.9203 8.28353 19.1806 7.2476 20.1241C6.19373 21.0829 5.89904 22.3802 6.44357 23.3021C6.98741 24.2233 8.45765 24.4595 8.45765 24.4595C8.45765 24.4595 7.94751 25.9581 9 27C9.87374 27.8646 11.772 27.3259 11.772 27.3259C11.772 27.3259 11.7115 28.5674 12.548 29.0755C13.3845 29.5835 14.6721 29.0676 14.6721 29.0676C14.6721 29.0676 14.0049 30.5905 15.2631 31.3505C16.602 32.1593 18.0009 30.795 18.0009 30.795Z" stroke="white" stroke-width="1.5" stroke-miterlimit="10" stroke-linejoin="round"/>
<path d="M35.364 12.7624L33.0161 15.1176C32.212 15.9237 31.7324 17.0025 31.6696 18.1456L31.5723 19.9084" stroke="white" stroke-width="1.5" stroke-miterlimit="10"/>
</svg>
