<svg width="20" height="20" viewBox="0 0 20 20" fill="none" xmlns="http://www.w3.org/2000/svg">
<path fill-rule="evenodd" clip-rule="evenodd" d="M0 14.0773L0 5.92295C0 2.66498 2.66549 0.00012207 5.92314 0.00012207H14.0775C17.3355 0.00012207 20.0003 2.66498 20.0003 5.92295V14.0773C20.0003 17.335 17.3355 20.0005 14.0775 20.0005H5.92314C2.66549 20.0005 0 17.335 0 14.0773ZM14.3042 4.01358C14.3042 4.68644 14.8487 5.2312 15.5215 5.2312C16.1944 5.2312 16.7392 4.68644 16.7392 4.01358C16.7392 3.34072 16.1944 2.79628 15.5215 2.79628C14.849 2.79628 14.3042 3.34104 14.3042 4.01358ZM5.01393 10.0005C5.01393 12.754 7.24644 14.9862 10 14.9862C12.7536 14.9862 14.9861 12.7544 14.9861 10.0005C14.9861 7.23152 12.7369 5.0147 10 5.0147C7.24644 5.0147 5.01393 7.2469 5.01393 10.0005ZM10 6.84914C11.7403 6.84914 13.1513 8.26019 13.1513 10.0005C13.1513 11.7407 11.74 13.1518 10 13.1518C8.26005 13.1518 6.84868 11.7407 6.84868 10.0005C6.84868 8.26019 8.25973 6.84914 10 6.84914Z" fill="#562212"/>
</svg>
