<?xml version="1.0" encoding="UTF-8"?>
<svg viewBox="0 0 104 47" xmlns="http://www.w3.org/2000/svg">
<path d="m92.064 38.597-3.6421-3.5408-3.6421 3.5408 3.6421 7.4033 3.6421-7.4033z" fill="#CF543C"/>
<path d="m88.421 14.678c-1.3941 0-2.5442 1.1012-2.5442 2.4735 0 1.3553 1.1327 2.4734 2.5442 2.4734 1.3941 0 2.5442-1.1012 2.5442-2.4734-0.0174-1.3723-1.1501-2.4735-2.5442-2.4735z" fill="#FAFAFA"/>
<path d="m88.422 3.6152c-0.7668 0.38965-10.874 5.5737-10.874 13.858 0 7.0815 5.9423 17.839 5.9423 17.839l4.9317-4.7944 4.9317 4.7944s5.9423-10.758 5.9423-17.839c0-8.2843-10.107-13.485-10.874-13.858zm3.2587 23.65-3.2587-3.168-3.2587 3.168c-0.1743-0.4405-2.3526-6.1666-2.3526-9.9106 0-5.0486 5.2105-7.8778 5.5939-8.0811 0.3834 0.20329 5.5938 3.0325 5.5938 8.0811 0.0175 3.744-2.1608 9.4701-2.3177 9.9106z" fill="#FAFAFA"/>
<path d="m103 3.6058-3.7091-3.6058-3.709 3.6057 3.709 3.6058 3.7091-3.6057z" fill="#FAFAFA"/>
<path d="m64.354 7.2246c0 0.76236-0.3486 1.1859-0.9585 1.1859s-0.9584-0.45741-0.9584-1.1859h-3.1542c0.0871 2.2532 1.429 3.761 4.1649 3.761 2.5268 0 3.9732-1.5586 4.0603-3.761h-3.1541z" fill="#FAFAFA"/>
<path d="m57.678 22.37v-10.571h3.6421v4.913c0 0.3557-0.0697 0.7623-0.0697 0.7623h0.1569l3.9732-5.6923h3.4853v10.571h-3.6421v-4.9638c0-0.3557 0.0871-0.6946 0.0871-0.6946h-0.1569l-3.9732 5.6584h-3.5027v0.017z" fill="#FAFAFA"/>
<path d="m50.151 11.545c3.4678 0 6.0469 2.3718 6.0469 5.5737 0 3.1511-2.5791 5.5398-6.0469 5.5398-3.433 0-6.0121-2.3718-6.0121-5.5398 0-3.2019 2.5965-5.5737 6.0121-5.5737zm0 7.8269c1.3244 0 2.1957-0.9995 2.1957-2.2532 0-1.2875-0.8888-2.2871-2.1957-2.2871-1.2896 0-2.1958 0.9996-2.1958 2.2871 0 1.2367 0.9062 2.2532 2.1958 2.2532z" fill="#FAFAFA"/>
<path d="m39.782 11.816s-3.0497 3.8457-3.1716 3.9982c-0.1569 0.1863-0.1569 0.271-0.1569 0.271h-0.1568s-0.0349-0.1016-0.1743-0.271c-0.2091-0.2542-3.3633-3.9982-3.3633-3.9982h-2.8753v10.571h3.5027v-4.4386c0-0.4744-0.0871-0.7624-0.0871-0.7624h0.1568l2.8231 3.1511h0.1568l2.614-3.1511h0.1568s-0.0871 0.288-0.0871 0.7624v4.4386h3.5201v-10.571h-2.8579z" fill="#FAFAFA"/>
<path d="m6.5523 24.604c-1.8298 0-3.7641 0.9995-4.4612 2.4734h-0.10455c0.03485-0.1525 0.10455-0.3049 0.12198-0.4574 0.17426-2.2701 1.0979-4.0829 2.9102-4.7097 1.1327-0.3896 2.2654-0.5591 3.1368-0.7285 0.92359-0.1863 1.8647-0.4066 2.4223-0.576l-0.60992-1.7958c-1.0107 0.2711-1.9518 0.4744-3.5376 0.7793-0.6622 0.1356-1.3941 0.2542-2.248 0.593-2.9102 1.1859-4.1823 3.5577-4.1823 8.0302 0 4.0151 2.0563 7.1831 6.0121 7.1831 3.6421 0 5.8378-2.7614 5.8378-5.5229 0.0174-3.1849-2.0911-5.2687-5.2976-5.2687zm-0.52279 9.0297c-2.4223 0-3.8164-2.1685-3.8164-4.6589 0.57507-1.44 2.3526-2.6089 3.8686-2.6089 2.1957 0 3.6073 1.3383 3.6073 3.6085-0.01743 2.1176-1.6032 3.6593-3.6595 3.6593z" fill="#FAFAFA"/>
<path d="m15.544 32.059h-0.1046c0.0523-0.1694 0.1046-0.4235 0.1046-0.6607v-6.9121h-2.1609v10.571h1.9518l6.2037-7.5897h0.1046c-0.0523 0.1694-0.1046 0.4405-0.1046 0.6946v6.9121h2.1609v-10.571h-1.9517l-6.2038 7.5558z" fill="#FAFAFA"/>
<path d="m31.939 29.637v-0.0508c1.2895-0.4405 1.9169-1.2706 1.9169-2.4904 0-1.7619-1.4813-2.897-4.0952-2.897-1.4987 0-3.0845 0.4066-4.3915 1.3723l0.8539 1.4908c0.9759-0.7454 2.2132-1.1181 3.2413-1.1181 1.429 0 2.1958 0.576 2.1958 1.5077 0 0.8471-0.6797 1.4401-1.7601 1.4401h-1.7252v1.6433h1.8298c1.3244 0 1.9866 0.4404 1.9866 1.3044 0 1.0335-1.063 1.745-2.7011 1.745-1.1502 0-2.492-0.4743-3.3459-1.1689l-0.8539 1.5247c0.941 0.8301 2.5791 1.44 4.4786 1.44 2.614 0 4.6006-1.3384 4.6006-3.2866 0.0348-1.2537-0.7842-2.2871-2.2306-2.4565z" fill="#FAFAFA"/>
<path d="m43.724 28.823h-5.8378v-4.337h-2.1609v10.571h2.1609v-4.5911h5.8378v4.5911h2.1609v-10.571h-2.1609v4.337z" fill="#FAFAFA"/>
<path d="m52.68 24.199c-3.189 0-5.2802 2.4396-5.2802 5.6584 0 3.185 2.0912 5.5568 5.9075 5.5568 1.8298 0 3.3982-0.5422 4.5309-1.44l-0.8539-1.5248c-0.8365 0.6099-2.1086 1.169-3.6072 1.169-2.37 0-3.5202-1.2537-3.7293-3.1003h8.3124c0.0174-0.2202 0.0348-0.4404 0.0348-0.6607-0.0174-3.2188-1.6206-5.6584-5.315-5.6584zm-3.0148 4.6758c0.2789-1.6433 1.4987-2.9139 3.1194-2.9139 1.9691 0 2.9102 1.2876 3.0844 2.9139h-6.2038z" fill="#FAFAFA"/>
<path d="m65.439 33.585c-2.2131 0-3.8338-1.6094-3.8338-3.9134 0-1.9652 1.307-3.6594 3.7118-3.6594 1.0979 0 2.2132 0.288 3.4853 1.0843 0 0 0.5576-0.9657 0.8887-1.5586-1.3069-0.8979-2.8056-1.3384-4.4263-1.3384-3.5027 0-5.8552 2.3887-5.8552 5.6076 0 3.1341 2.3351 5.6076 5.8901 5.6076 1.7426 0 3.2587-0.4913 4.374-1.3723l-0.8539-1.5247c-0.8365 0.6099-2.0389 1.0673-3.3807 1.0673z" fill="#FAFAFA"/>
</svg>
