<svg width="104" height="47" viewBox="0 0 104 47" fill="none" xmlns="http://www.w3.org/2000/svg">
<path d="M92.0635 38.5974L88.4214 35.0566L84.7793 38.5974L88.4214 46.0007L92.0635 38.5974Z" fill="#CF543C"/>
<path d="M88.4212 14.6777C87.0271 14.6777 85.877 15.7789 85.877 17.1512C85.877 18.5065 87.0097 19.6246 88.4212 19.6246C89.8153 19.6246 90.9654 18.5234 90.9654 17.1512C90.948 15.7789 89.8153 14.6777 88.4212 14.6777Z" fill="#C59368"/>
<path d="M88.4219 3.61523C87.6551 4.00488 77.5479 9.18893 77.5479 17.4732C77.5479 24.5547 83.4902 35.3125 83.4902 35.3125L88.4219 30.5181L93.3536 35.3125C93.3536 35.3125 99.2959 24.5547 99.2959 17.4732C99.2959 9.18893 89.1887 3.98794 88.4219 3.61523ZM91.6806 27.2653L88.4219 24.0973L85.1632 27.2653C84.9889 26.8248 82.8106 21.0987 82.8106 17.3547C82.8106 12.3061 88.0211 9.47693 88.4045 9.27364C88.7879 9.47693 93.9983 12.3061 93.9983 17.3547C94.0158 21.0987 91.8375 26.8248 91.6806 27.2653Z" fill="#C59368"/>
<path d="M103.004 3.60575L99.2949 0L95.5859 3.60574L99.2949 7.21149L103.004 3.60575Z" fill="#C59368"/>
<path d="M64.3543 7.22461C64.3543 7.98697 64.0057 8.4105 63.3958 8.4105C62.7859 8.4105 62.4374 7.95309 62.4374 7.22461H59.2832C59.3703 9.47781 60.7122 10.9856 63.4481 10.9856C65.9749 10.9856 67.4213 9.42698 67.5084 7.22461H64.3543Z" fill="#562212"/>
<path d="M57.6777 22.3696V11.7982H61.3198C61.3198 11.7982 61.3198 16.3554 61.3198 16.7112C61.3198 17.0669 61.2501 17.4735 61.2501 17.4735H61.407L65.3802 11.7812H68.8655V22.3526H65.2234C65.2234 22.3526 65.2234 17.8632 65.2234 17.3888C65.2234 17.0331 65.3105 16.6942 65.3105 16.6942H65.1536L61.1804 22.3526H57.6777V22.3696Z" fill="#562212"/>
<path d="M50.1508 11.5449C53.6186 11.5449 56.1977 13.9167 56.1977 17.1186C56.1977 20.2697 53.6186 22.6584 50.1508 22.6584C46.7178 22.6584 44.1387 20.2866 44.1387 17.1186C44.1387 13.9167 46.7352 11.5449 50.1508 11.5449ZM50.1508 19.3718C51.4752 19.3718 52.3465 18.3723 52.3465 17.1186C52.3465 15.8311 51.4577 14.8315 50.1508 14.8315C48.8612 14.8315 47.955 15.8311 47.955 17.1186C47.955 18.3553 48.8612 19.3718 50.1508 19.3718Z" fill="#562212"/>
<path d="M39.782 11.8164C39.782 11.8164 36.7323 15.6621 36.6104 15.8146C36.4535 16.0009 36.4535 16.0856 36.4535 16.0856H36.2967C36.2967 16.0856 36.2618 15.984 36.1224 15.8146C35.9133 15.5604 32.7591 11.8164 32.7591 11.8164H29.8838V22.3878H33.3865C33.3865 22.3878 33.3865 18.4235 33.3865 17.9492C33.3865 17.4748 33.2994 17.1868 33.2994 17.1868H33.4562L36.2793 20.3379H36.4361L39.0501 17.1868H39.2069C39.2069 17.1868 39.1198 17.4748 39.1198 17.9492C39.1198 18.4235 39.1198 22.3878 39.1198 22.3878H42.6399V11.8164H39.782Z" fill="#562212"/>
<path d="M6.55231 24.6045C4.72254 24.6045 2.78822 25.604 2.09116 27.0779H1.98661C2.02146 26.9254 2.09116 26.773 2.10859 26.6205C2.28285 24.3504 3.20645 22.5376 5.01879 21.9108C6.1515 21.5212 7.28422 21.3517 8.15554 21.1823C9.07913 20.996 10.0202 20.7757 10.5778 20.6063L9.96788 18.8105C8.95715 19.0816 8.01613 19.2849 6.43033 19.5898C5.76813 19.7254 5.03622 19.844 4.18232 20.1828C1.27212 21.3687 0 23.7405 0 28.213C0 32.2281 2.05631 35.3961 6.01209 35.3961C9.6542 35.3961 11.8499 32.6347 11.8499 29.8732C11.8673 26.6883 9.75876 24.6045 6.55231 24.6045ZM6.02952 33.6342C3.60726 33.6342 2.21315 31.4657 2.21315 28.9753C2.78822 27.5353 4.56571 26.3664 6.0818 26.3664C8.27752 26.3664 9.68906 27.7047 9.68906 29.9749C9.67163 32.0925 8.08583 33.6342 6.02952 33.6342Z" fill="#562212"/>
<path d="M15.5437 32.0591C15.5437 32.0591 15.5088 32.0591 15.4391 32.0591C15.4914 31.8897 15.5437 31.6356 15.5437 31.3984C15.5437 31.1612 15.5437 24.4863 15.5437 24.4863H13.3828V35.0577H15.3346L21.5383 27.468C21.5383 27.468 21.5906 27.468 21.6429 27.468C21.5906 27.6374 21.5383 27.9085 21.5383 28.1626C21.5383 28.4337 21.5383 35.0747 21.5383 35.0747H23.6992V24.5033H21.7475L15.5437 32.0591Z" fill="#562212"/>
<path d="M31.9394 29.6374V29.5866C33.2289 29.1461 33.8563 28.316 33.8563 27.0962C33.8563 25.3343 32.375 24.1992 29.7611 24.1992C28.2624 24.1992 26.6766 24.6058 25.3696 25.5715L26.2235 27.0623C27.1994 26.3169 28.4367 25.9442 29.4648 25.9442C30.8938 25.9442 31.6606 26.5202 31.6606 27.4519C31.6606 28.299 30.9809 28.892 29.9005 28.892H28.1753V30.5353H30.0051C31.3295 30.5353 31.9917 30.9757 31.9917 31.8397C31.9917 32.8732 30.9287 33.5847 29.2906 33.5847C28.1404 33.5847 26.7986 33.1104 25.9447 32.4158L25.0908 33.9405C26.0318 34.7706 27.6699 35.3805 29.5694 35.3805C32.1834 35.3805 34.17 34.0421 34.17 32.0939C34.2048 30.8402 33.3858 29.8068 31.9394 29.6374Z" fill="#562212"/>
<path d="M43.7243 28.8233H37.8865V24.4863H35.7256V35.0577H37.8865V30.4666H43.7243V35.0577H45.8852V24.4863H43.7243V28.8233Z" fill="#562212"/>
<path d="M52.6796 24.1992C49.4906 24.1992 47.3994 26.6388 47.3994 29.8576C47.3994 33.0426 49.4906 35.4144 53.3069 35.4144C55.1367 35.4144 56.7051 34.8722 57.8378 33.9744L56.9839 32.4496C56.1474 33.0595 54.8753 33.6186 53.3767 33.6186C51.0067 33.6186 49.8565 32.3649 49.6474 30.5183H57.9598C57.9772 30.2981 57.9946 30.0779 57.9946 29.8576C57.9772 26.6388 56.374 24.1992 52.6796 24.1992ZM49.6648 28.875C49.9437 27.2317 51.1635 25.9611 52.7842 25.9611C54.7533 25.9611 55.6944 27.2487 55.8686 28.875H49.6648Z" fill="#562212"/>
<path d="M65.4387 33.5847C63.2256 33.5847 61.6049 31.9753 61.6049 29.6713C61.6049 27.7061 62.9119 26.0119 65.3167 26.0119C66.4146 26.0119 67.5299 26.2999 68.802 27.0962C68.802 27.0962 69.3596 26.1305 69.6907 25.5376C68.3838 24.6397 66.8851 24.1992 65.2644 24.1992C61.7617 24.1992 59.4092 26.5879 59.4092 29.8068C59.4092 32.9409 61.7443 35.4144 65.2993 35.4144C67.0419 35.4144 68.558 34.9231 69.6733 34.0421L68.8194 32.5174C67.9829 33.1273 66.7805 33.5847 65.4387 33.5847Z" fill="#562212"/>
</svg>
