<?xml version="1.0" encoding="UTF-8"?>
<svg viewBox="0 0 73 38" xmlns="http://www.w3.org/2000/svg">
<path d="m1.2588 17.386c-0.38099 0-0.6255 0.2111-0.79404 0.4581v-0.4144h-0.3086v2.6961h0.3086v-1.0318c0.16083 0.2311 0.40889 0.4381 0.79404 0.4381 0.50088 0 0.98988-0.3986 0.98988-1.0713 5.9e-4 -0.6845-0.49316-1.0748-0.98988-1.0748zm-0.05638 1.8719c-0.38455 0-0.74953-0.3183-0.74953-0.7965 0-0.4781 0.36497-0.8006 0.74953-0.8006 0.39287 0 0.72936 0.3107 0.72936 0.7965 5.9e-4 0.5058-0.32818 0.8006-0.72936 0.8006z" fill="#fff"/>
<path d="m3.7642 19.536c0.6255 0 1.0866-0.4941 1.0866-1.0754 0-0.5896-0.45755-1.0754-1.0783-1.0754-0.6255 0-1.0825 0.4935-1.0825 1.0754 0 0.589 0.45281 1.0754 1.0742 1.0754zm0-1.8801c0.43678 0 0.76971 0.3625 0.76971 0.8041 0 0.4422-0.31275 0.8007-0.76199 0.8007-0.43678 0-0.76556-0.3585-0.76556-0.8007 0-0.4416 0.3086-0.8041 0.75784-0.8041z" fill="#fff"/>
<path d="m6.9914 18.955c-0.16438 0.1751-0.36913 0.3066-0.63381 0.3066-0.43262 0-0.7614-0.3549-0.7614-0.8006 0-0.4499 0.32106-0.8042 0.74182-0.8042 0.2807 0 0.46527 0.1391 0.62965 0.3107l0.20474-0.2152c-0.19227-0.2034-0.43678-0.3667-0.82964-0.3667-0.60532 0-1.0623 0.4935-1.0623 1.0754 0 0.5854 0.45696 1.0753 1.0623 1.0753 0.38871 0 0.63737-0.1674 0.84567-0.3985l-0.19703-0.1828z" fill="#fff"/>
<path d="M9.38905 17.4294H7.45618V17.7H8.26624V19.4887H8.57899V17.7H9.38905V17.4294Z" fill="#fff"/>
<path d="m10.784 19.536c0.6255 0 1.0866-0.4941 1.0866-1.0754 0-0.5896-0.4569-1.0754-1.0783-1.0754-0.6255 0-1.0824 0.4935-1.0824 1.0754 0 0.589 0.45343 1.0754 1.0741 1.0754zm0-1.8801c0.4368 0 0.7697 0.3625 0.7697 0.8041 0 0.4422-0.3127 0.8007-0.762 0.8007-0.4367 0-0.7655-0.3585-0.7655-0.8007 6e-4 -0.4416 0.3092-0.8041 0.7578-0.8041z" fill="#fff"/>
<path d="m14.219 18.927c0-0.2906-0.2083-0.4422-0.457-0.51 0.1727-0.0719 0.3448-0.2034 0.3448-0.474 0-0.3107-0.2646-0.5141-0.6777-0.5141h-1.0023v2.0594h1.0385c0.4576 6e-4 0.7537-0.2146 0.7537-0.5613zm-1.483-1.2304h0.6456c0.2689 0 0.4131 0.1156 0.4131 0.2865 0 0.2152-0.1727 0.3308-0.4208 0.3308h-0.6373v-0.6173h-6e-4zm0 1.5252v-0.6615h0.6498c0.3365 0 0.5169 0.1197 0.5169 0.319 0 0.2152-0.1804 0.3425-0.4771 0.3425h-0.6896z" fill="#fff"/>
<path d="m15.711 19.536c0.3887 0 0.6374-0.1674 0.8457-0.3985l-0.1965-0.1834c-0.1643 0.1751-0.3691 0.3066-0.6332 0.3066-0.4326 0-0.7614-0.3549-0.7614-0.8006 0-0.4499 0.3205-0.8042 0.7418-0.8042 0.2807 0 0.4653 0.1391 0.6297 0.3107l0.2041-0.2152c-0.1922-0.2034-0.4367-0.3667-0.8296-0.3667-0.6053 0-1.0623 0.4935-1.0623 1.0754-6e-4 0.586 0.4564 1.0759 1.0617 1.0759z" fill="#fff"/>
<path d="m17.066 17.429v2.0593h0.3086v-0.4981l0.4368-0.4458 0.7377 0.9439h0.3649l-0.8902-1.1673 0.8659-0.892h-0.381l-1.1341 1.1868v-1.1868h-0.3086z" fill="#fff"/>
<path d="m20.293 17.386c-0.6255 0-1.0825 0.4935-1.0825 1.0754 0 0.5896 0.4534 1.0754 1.0747 1.0754 0.6255 0 1.0866-0.4941 1.0866-1.0754-5e-4 -0.5896-0.4575-1.0754-1.0788-1.0754zm0 1.8755c-0.4368 0-0.7662-0.3585-0.7662-0.8007s0.3092-0.8041 0.7578-0.8041c0.4368 0 0.7698 0.3625 0.7698 0.8041 0 0.4422-0.3128 0.8007-0.7614 0.8007z" fill="#fff"/>
<path d="m23.761 18.477c0-0.6055-0.3531-1.0913-0.9661-1.0913-0.5733 0-0.9947 0.4782-0.9947 1.0754 0 0.6415 0.4653 1.0754 1.0344 1.0754 0.3929 0 0.6451-0.1557 0.854-0.3862l-0.1923-0.1715c-0.1685 0.1751-0.3691 0.2906-0.6534 0.2906-0.365 0-0.6854-0.2511-0.7293-0.6851h1.6438c0.0036-0.0477 0.0036-0.0796 0.0036-0.1073zm-1.6474-0.1397c0.0439-0.398 0.3169-0.6927 0.6735-0.6927 0.4089 0 0.6255 0.3189 0.6617 0.6927h-1.3352z" fill="#fff"/>
<path d="m1.2588 21.854c-0.38099 0-0.6255 0.211-0.79404 0.4581v-0.4145h-0.3086v2.6961h0.3086v-1.0312c0.16083 0.2311 0.40889 0.4381 0.79404 0.4381 0.50088 0 0.98988-0.3986 0.98988-1.0713 5.9e-4 -0.685-0.49316-1.0753-0.98988-1.0753zm-0.05638 1.8718c-0.38455 0-0.74953-0.3183-0.74953-0.7965 0-0.4781 0.36497-0.8006 0.74953-0.8006 0.39287 0 0.72936 0.3107 0.72936 0.7971 5.9e-4 0.5058-0.32818 0.8-0.72936 0.8z" fill="#fff"/>
<path d="m3.7239 24.005c0.39286 0 0.64508-0.1556 0.85397-0.3867l-0.19228-0.171c-0.16854 0.1751-0.36912 0.2907-0.65339 0.2907-0.36497 0-0.68543-0.2512-0.72935-0.6851h1.6439c0.00416-0.0478 0.00416-0.0796 0.00416-0.1073 0-0.6055-0.35311-1.0919-0.96614-1.0919-0.57328 0-0.99404 0.4782-0.99404 1.0754-5.9e-4 0.642 0.46408 1.0759 1.0332 1.0759zm-0.04807-1.8919c0.40888 0 0.62549 0.3184 0.66169 0.6928h-1.3347c0.04392-0.398 0.31631-0.6928 0.67298-0.6928z" fill="#fff"/>
<path d="m6.671 21.898h-1.4795v2.0594h0.30859v-1.7882h1.1709v-0.2712z" fill="#fff"/>
<path d="m8.9516 23.957v-2.0594h-0.30029l-1.2267 1.629v-1.629h-0.30919v2.0594h0.29672l1.2308-1.6284v1.6284h0.30859z" fill="#fff"/>
<path d="m10.596 21.854c-0.62548 0-1.0824 0.494-1.0824 1.0753 0 0.5896 0.4534 1.0754 1.0747 1.0754 0.6255 0 1.0866-0.4941 1.0866-1.0754-6e-4 -0.5895-0.4575-1.0753-1.0789-1.0753zm0 1.876c-0.4368 0-0.76613-0.3579-0.76613-0.8001s0.30923-0.8041 0.75783-0.8041c0.4368 0 0.7697 0.3619 0.7697 0.8041s-0.3127 0.8001-0.7614 0.8001z" fill="#fff"/>
<path d="m12.54 23.057h1.1946v0.9003h0.3092v-2.0594h-0.3092v0.8885h-1.1946v-0.8885h-0.3086v2.0594h0.3086v-0.9003z" fill="#fff"/>
<path d="m15.35 24.001c0.365 0 0.6012-0.1674 0.7454-0.3508v0.3072h0.305v-1.2587c0-0.263-0.0724-0.4622-0.2166-0.6055-0.1484-0.1474-0.3768-0.227-0.6694-0.227-0.3045 0-0.5252 0.0719-0.7537 0.1751l0.092 0.2512c0.1929-0.0873 0.3845-0.1474 0.6296-0.1474 0.3887 0 0.6137 0.191 0.6137 0.5577v0.0631c-0.1846-0.0519-0.3692-0.0873-0.6332-0.0873-0.5253 0-0.8861 0.2311-0.8861 0.6733-6e-4 0.4298 0.384 0.6491 0.7733 0.6491zm0.1442-1.0795c0.2522 0 0.4528 0.0437 0.6053 0.0873v0.191c0 0.3266-0.3086 0.5536-0.6896 0.5536-0.2807 0-0.521-0.1515-0.521-0.4103 0-0.2535 0.2202-0.4216 0.6053-0.4216z" fill="#fff"/>
<path d="m18.513 23.957h0.3086v-2.0594h-1.4836c0 1.6809-0.1567 1.8082-0.4208 1.8082-0.0362 0-0.124-0.0159-0.1525-0.0242l-0.0362 0.2671c0.0641 0.0153 0.1804 0.0277 0.2486 0.0277 0.425 0 0.6534-0.1751 0.6534-1.8076h0.8819v1.7882h6e-4z" fill="#fff"/>
<path d="m21.183 23.288c0-0.4333-0.3608-0.6285-0.8053-0.6285h-0.5572v-0.7611h-0.3086v2.0594h0.902c0.4647-6e-4 0.7691-0.2636 0.7691-0.6698zm-1.3631 0.4104v-0.7847h0.5454c0.3127 0 0.5091 0.135 0.5091 0.3785 0 0.2588-0.1922 0.4062-0.4967 0.4062h-0.5578z" fill="#fff"/>
<path d="m23.48 23.957v-2.0594h-0.3086v0.8885h-1.1946v-0.8885h-0.3086v2.0594h0.3086v-0.9003h1.1946v0.9003h0.3086z" fill="#fff"/>
<path d="m26.202 22.929c0-0.5895-0.4575-1.0753-1.0783-1.0753-0.6255 0-1.0824 0.494-1.0824 1.0753 0 0.5896 0.4528 1.0754 1.0741 1.0754 0.6255 0 1.0866-0.4941 1.0866-1.0754zm-1.0783 0.8007c-0.4367 0-0.7661-0.3579-0.7661-0.8001s0.3092-0.8041 0.7578-0.8041c0.4368 0 0.7697 0.3619 0.7697 0.8041s-0.3127 0.8001-0.7614 0.8001z" fill="#fff"/>
<path d="m28.327 23.447c-0.1685 0.1751-0.3691 0.2907-0.6534 0.2907-0.3649 0-0.6854-0.2512-0.7293-0.6851h1.6438c0.0042-0.0478 0.0042-0.0796 0.0042-0.1073 0-0.6055-0.3531-1.0919-0.9662-1.0919-0.5732 0-0.994 0.4782-0.994 1.0754 0 0.6414 0.4653 1.0754 1.0344 1.0754 0.3929 0 0.6457-0.1557 0.854-0.3868l-0.1935-0.1704zm-0.7092-1.3342c0.4089 0 0.6255 0.3184 0.6617 0.6928h-1.3352c0.0439-0.398 0.3169-0.6928 0.6735-0.6928z" fill="#fff"/>
<path d="m1.5192 28.119v0.3071h0.30444v-1.2587c0-0.2629-0.0724-0.4616-0.21661-0.6049-0.14836-0.1474-0.37684-0.2276-0.66942-0.2276-0.30504 0-0.52521 0.072-0.75368 0.1751l0.091985 0.2512c0.19228-0.0873 0.38456-0.1474 0.62965-0.1474 0.38871 0 0.61363 0.191 0.61363 0.5577v0.0637c-0.18457-0.0519-0.36913-0.0878-0.63322-0.0878-0.52521-6e-4 -0.88602 0.2311-0.88602 0.6727 0 0.4303 0.38456 0.6497 0.77386 0.6497 0.36438 0 0.60117-0.1681 0.74538-0.3508zm-1.2065-0.3072c0-0.2547 0.22017-0.4221 0.60532-0.4221 0.25222 0 0.45281 0.0436 0.60532 0.0878v0.191c0 0.3267-0.30919 0.5531-0.68959 0.5531-0.2807 0.0011-0.52105-0.1504-0.52105-0.4098z" fill="#fff"/>
<path d="m2.7862 26.637h1.1703v-0.2706h-1.4795v2.0588h0.30919v-1.7882z" fill="#fff"/>
<path d="m6.2336 27.414c0-0.6054-0.3531-1.0912-0.96614-1.0912-0.57327 0-0.99403 0.4775-0.99403 1.0747 0 0.6415 0.46526 1.0754 1.0344 1.0754 0.39286 0 0.64508-0.1556 0.85397-0.3862l-0.19228-0.1715c-0.16854 0.1757-0.36912 0.2906-0.65398 0.2906-0.36497 0-0.68544-0.2505-0.72935-0.6844h1.6439c0.00356-0.0478 0.00356-0.0802 0.00356-0.1074zm-1.6474-0.1397c0.04391-0.3985 0.3169-0.6933 0.67357-0.6933 0.40888 0 0.62549 0.3184 0.6617 0.6933h-1.3353z" fill="#fff"/>
<path d="m8.5873 28.426v-2.0588h-0.3086v0.8879h-1.1946v-0.8879h-0.30919v2.0588h0.30919v-0.8997h1.1946v0.8997h0.3086z" fill="#fff"/>
<path d="m10.159 28.426v-1.7882h0.8095v-0.2706h-1.9323v0.2706h0.81006v1.7882h0.31275z" fill="#fff"/>
<path d="m13.001 27.892c-0.1644 0.1751-0.3691 0.3071-0.6332 0.3071-0.4326 0-0.762-0.3549-0.762-0.8006 0-0.4504 0.3211-0.8042 0.7418-0.8042 0.2807 0 0.4653 0.1392 0.6297 0.3101l0.2041-0.2146c-0.1923-0.2034-0.4368-0.3661-0.8296-0.3661-0.6059 0-1.0629 0.4935-1.0629 1.0748 0 0.5854 0.457 1.0754 1.0629 1.0754 0.3887 0 0.6373-0.1675 0.8456-0.3986l-0.1964-0.1833z" fill="#fff"/>
<path d="m14.588 28.426v-1.7882h0.81v-0.2706h-1.9328v0.2706h0.81v1.7882h0.3128z" fill="#fff"/>
<path d="m17.527 26.88c0-0.3107-0.2647-0.5135-0.6777-0.5135h-1.0024v2.0588h1.0386c0.4575 0 0.7536-0.2152 0.7536-0.5619 0-0.2901-0.2083-0.4416-0.4569-0.5094 0.1721-0.0713 0.3448-0.2034 0.3448-0.474zm-0.2048 0.9362c0 0.2146-0.1804 0.342-0.4771 0.342h-0.6896v-0.6609h0.6493c0.337 0 0.5174 0.1197 0.5174 0.3189zm-0.5293-0.5659h-0.6374v-0.6173h0.6451c0.2688 0 0.413 0.1155 0.413 0.2865 6e-4 0.2158-0.1721 0.3308-0.4207 0.3308z" fill="#fff"/>
<path d="m19.142 28.473c0.6255 0 1.0866-0.494 1.0866-1.0754 0-0.5895-0.4576-1.0747-1.0783-1.0747-0.6255 0-1.0825 0.4934-1.0825 1.0747 0 0.5896 0.4528 1.0754 1.0742 1.0754zm0-1.8795c0.4368 0 0.7697 0.362 0.7697 0.8041 0 0.4422-0.3128 0.8007-0.762 0.8007-0.4368 0-0.7656-0.3585-0.7656-0.8007 0-0.4421 0.3092-0.8041 0.7579-0.8041z" fill="#fff"/>
<path d="m0.15613 32.894h0.3086v-1.7881h1.1626v1.7881h0.30919v-2.0587h-1.7804v2.0587z" fill="#fff"/>
<path d="m3.572 32.942c0.6255 0 1.0866-0.4941 1.0866-1.0754 0-0.589-0.45695-1.0748-1.0783-1.0748-0.6255 0-1.0825 0.4935-1.0825 1.0748-5.9e-4 0.589 0.45281 1.0754 1.0742 1.0754zm0-1.8801c0.43678 0 0.76971 0.3619 0.76971 0.8041s-0.31275 0.8007-0.76199 0.8007c-0.43678 0-0.76556-0.3585-0.76556-0.8007s0.3086-0.8041 0.75784-0.8041z" fill="#fff"/>
<path d="m6.9553 30.835h-1.5276v0.7287c0 0.4657-0.06824 0.7806-0.23263 1.0636h-0.26824v0.8477h0.30859v-0.5813h1.7281v0.5813h0.30444v-0.8477h-0.31275v-1.7923zm-0.31275 1.7923h-1.1104c0.13234-0.2553 0.19643-0.566 0.19643-0.8844v-0.6373h0.91392v1.5217z" fill="#fff"/>
<path d="m9.433 30.835h-1.5276v0.7287c0 0.4657-0.06825 0.7806-0.23264 1.0636h-0.26883v0.8477h0.3086v-0.5813h1.7281v0.5813h0.30504v-0.8477h-0.31275v-1.7923zm-0.31275 1.7923h-1.111c0.13234-0.2553 0.19644-0.566 0.19644-0.8844v-0.6373h0.91451v1.5217z" fill="#fff"/>
<path d="m11.036 30.791c-0.5733 0-0.994 0.4782-0.994 1.0748 0 0.6415 0.4652 1.0754 1.0343 1.0754 0.3929 0 0.6457-0.1557 0.854-0.3862l-0.1923-0.171c-0.1685 0.1751-0.3691 0.2907-0.6533 0.2907-0.365 0-0.6855-0.2512-0.7294-0.6851h1.6439c0.0035-0.0477 0.0035-0.0796 0.0035-0.1079-6e-4 -0.6049-0.3537-1.0907-0.9667-1.0907zm-0.6813 0.9516c0.0439-0.3986 0.3169-0.6933 0.6736-0.6933 0.4089 0 0.6255 0.3189 0.6611 0.6933h-1.3347z" fill="#fff"/>
<path d="m12.852 32.5c0.1602 0.2317 0.4089 0.4381 0.7934 0.4381 0.5009 0 0.9899-0.398 0.9899-1.0713 0-0.6845-0.4931-1.0748-0.9899-1.0748-0.3809 0-0.6255 0.2105-0.7934 0.4575v-0.4138h-0.3092v2.6961h0.3092v-1.0318zm0.7377-1.4338c0.3928 0 0.7293 0.3107 0.7293 0.7971 0 0.5052-0.3288 0.8-0.7293 0.8-0.3846 0-0.7496-0.3183-0.7496-0.7971 0-0.4775 0.3644-0.8 0.7496-0.8z" fill="#fff"/>
<path d="m18.245 32.894-0.8742-1.1626 0.8457-0.8961h-0.3804l-1.0908 1.1909v-1.1909h-0.3086v1.1909l-1.0902-1.1909h-0.381l0.8499 0.8961-0.8736 1.1626h0.3608l0.7175-0.9515 0.4166 0.4463v0.5052h0.3086v-0.5052l0.4172-0.4463 0.7216 0.9515h0.3609z" fill="#fff"/>
<path d="m19.627 31.727 0.8664-0.892h-0.381l-1.1347 1.1868v-1.1868h-0.3086v2.0587h0.3086v-0.4976l0.4368-0.4457 0.7377 0.9433h0.3649l-0.8901-1.1667z" fill="#fff"/>
<path d="m21.251 32.464v-1.6289h-0.3086v2.0587h0.2967l1.2308-1.6284v1.6284h0.3086v-2.0587h-0.3009l-1.2266 1.6289z" fill="#fff"/>
<path d="m0.15613 37.363h0.3086v-1.7887h1.1626v1.7887h0.30919v-2.0594h-1.7804v2.0594z" fill="#fff"/>
<path d="m3.7281 35.26c-0.38099 0-0.6255 0.2111-0.79344 0.4581v-0.4145h-0.30919v2.6961h0.30919v-1.0317c0.16023 0.2317 0.40889 0.438 0.79344 0.438 0.50088 0 0.98988-0.3979 0.98988-1.0706 6e-4 -0.6851-0.49256-1.0754-0.98988-1.0754zm-0.05578 1.8719c-0.38456 0-0.74953-0.3184-0.74953-0.7965 0-0.4782 0.36497-0.8007 0.74953-0.8007 0.39286 0 0.72935 0.3107 0.72935 0.7971 0 0.5053-0.32877 0.8001-0.72935 0.8001z" fill="#fff"/>
<path d="m6.1535 35.26c-0.57328 0-0.99404 0.4781-0.99404 1.0754 0 0.6408 0.46527 1.0748 1.0344 1.0748 0.39287 0 0.64568-0.1551 0.85398-0.3862l-0.19228-0.171c-0.16854 0.1751-0.36913 0.2907-0.65339 0.2907-0.36497 0-0.68544-0.2512-0.72935-0.6851h1.6439c0.00415-0.0478 0.00415-0.0796 0.00415-0.1079-0.00118-0.6049-0.35429-1.0907-0.96732-1.0907zm-0.68129 0.9516c0.04392-0.398 0.31691-0.6928 0.67357-0.6928 0.40889 0 0.6255 0.3184 0.6617 0.6928h-1.3353z" fill="#fff"/>
<path d="m9.4008 35.303h-1.5276v0.7288c0 0.4657-0.06824 0.7805-0.23263 1.0635h-0.26883v0.8478h0.30859v-0.5813h1.7281v0.5813h0.30445v-0.8478h-0.31275v-1.7923h5.9e-4zm-0.31275 1.7923h-1.1104c0.13234-0.2553 0.19643-0.5654 0.19643-0.8843v-0.6373h0.91392v1.5216z" fill="#fff"/>
<path d="m10.138 37.363h0.3092v-1.7887h1.1626v1.7887h0.3086v-2.0594h-1.7804v2.0594z" fill="#fff"/>
<path d="m13.711 35.26c-0.381 0-0.6255 0.2111-0.7935 0.4581v-0.4145h-0.3086v2.6961h0.3086v-1.0317c0.1602 0.2317 0.4089 0.438 0.7935 0.438 0.5014 0 0.9898-0.3979 0.9898-1.0706 0-0.6851-0.4931-1.0754-0.9898-1.0754zm-0.0564 1.8719c-0.3846 0-0.7495-0.3184-0.7495-0.7965 0-0.4782 0.3649-0.8007 0.7495-0.8007 0.3928 0 0.7293 0.3107 0.7293 0.7971 0 0.5053-0.3281 0.8001-0.7293 0.8001z" fill="#fff"/>
<path d="m15.578 36.932v-1.629h-0.3086v2.0594h0.2968l1.2308-1.629v1.629h0.3086v-2.0594h-0.3009l-1.2267 1.629z" fill="#fff"/>
<path d="m19.299 36.192h-1.1952v-0.8885h-0.3086v2.0594h0.3086v-0.9003h1.1952v0.9003h0.3086v-2.0594h-0.3086v0.8885z" fill="#fff"/>
<path d="m20.606 36.932v-1.629h-0.3092v2.0594h0.2968l1.2308-1.629v1.629h0.3086v-2.0594h-0.3003l-1.2267 1.629z" fill="#fff"/>
<path d="m23.925 36.387-0.8142-1.0837h-0.292v2.0594h0.3003v-1.5694l0.7976 1.0435 0.8059-1.0435v1.5694h0.3128v-2.0594h-0.2961l-0.8143 1.0837z" fill="#fff"/>
<path d="m26.499 35.272c-0.305 0-0.5252 0.0713-0.7537 0.1751l0.092 0.2512c0.1923-0.0873 0.3846-0.1474 0.6297-0.1474 0.3887 0 0.6136 0.191 0.6136 0.5571v0.0637c-0.1846-0.0519-0.3691-0.0873-0.6332-0.0873-0.5252 0-0.886 0.2311-0.886 0.6733 0 0.4298 0.3845 0.6491 0.7738 0.6491 0.365 0 0.6012-0.1668 0.7454-0.3502v0.3066h0.305v-1.2587c0-0.2624-0.0724-0.4617-0.2166-0.6049-0.1489-0.1486-0.3774-0.2276-0.67-0.2276zm0.5852 1.3336c0 0.3266-0.3086 0.553-0.6896 0.553-0.2807 0-0.5211-0.1509-0.5211-0.4097 0-0.2553 0.2208-0.4222 0.6059-0.4222 0.2522 0 0.4528 0.0437 0.6054 0.0873v0.1916h-6e-4z" fill="#fff"/>
<path d="m27.798 35.574h0.8094v1.7887h0.3128v-1.7887h0.8094v-0.2707h-1.9316v0.2707z" fill="#fff"/>
<path d="m31.045 35.26c-0.5733 0-0.9947 0.4781-0.9947 1.0754 0 0.6408 0.4653 1.0748 1.0344 1.0748 0.3929 0 0.6451-0.1551 0.8534-0.3862l-0.1923-0.171c-0.1679 0.1751-0.3685 0.2907-0.6534 0.2907-0.3649 0-0.6854-0.2512-0.7299-0.6851h1.6439c0.0041-0.0478 0.0041-0.0796 0.0041-0.1079 6e-4 -0.6049-0.3519-1.0907-0.9655-1.0907zm-0.6813 0.9516c0.0445-0.398 0.3169-0.6928 0.6736-0.6928 0.4088 0 0.6255 0.3184 0.6611 0.6928h-1.3347z" fill="#fff"/>
<path d="m32.416 37.112c-0.0362 0-0.124-0.0159-0.1525-0.0241l-0.0362 0.2664c0.0641 0.016 0.1804 0.0283 0.2481 0.0283 0.4249 0 0.6534-0.1751 0.6534-1.8082h0.8818v1.7882h0.3086v-2.0594h-1.483c6e-4 1.6809-0.1561 1.8088-0.4202 1.8088z" fill="#fff"/>
<path d="m35.875 36.064h-0.5573v-0.7606h-0.3086v2.0588h0.9021c0.4652 0 0.7697-0.2623 0.7697-0.6691 0-0.434-0.3608-0.6291-0.8059-0.6291zm0 1.04h-0.5573v-0.7847h0.5454c0.3127 0 0.5092 0.135 0.5092 0.3785 0 0.2588-0.1923 0.4062-0.4973 0.4062z" fill="#fff"/>
<path d="m38.117 37.136c-0.4326 0-0.7614-0.3549-0.7614-0.8 0-0.4504 0.3205-0.8048 0.7412-0.8048 0.2813 0 0.4653 0.1392 0.6297 0.3107l0.2047-0.2152c-0.1923-0.2028-0.4368-0.3661-0.8296-0.3661-0.6054 0-1.0623 0.4941-1.0623 1.0754 0 0.5848 0.4575 1.0748 1.0623 1.0748 0.3887 0 0.6373-0.1669 0.8462-0.398l-0.1964-0.1839c-0.1656 0.1757-0.3703 0.3071-0.6344 0.3071z" fill="#fff"/>
<path d="m39.215 35.574h0.8101v1.7887h0.3127v-1.7887h0.8095v-0.2707h-1.9323v0.2707z" fill="#fff"/>
<path d="m42.932 36.292c0.1721-0.072 0.3448-0.2034 0.3448-0.4746 0-0.3102-0.2647-0.5136-0.6778-0.5136h-1.0023v2.0588h1.0386c0.4569 0 0.7536-0.2146 0.7536-0.5613-6e-4 -0.2906-0.2083-0.4421-0.4569-0.5093zm-1.0267-0.7211h0.6457c0.2682 0 0.4124 0.115 0.4124 0.2865 0 0.2147-0.1721 0.3308-0.4207 0.3308h-0.6374v-0.6173zm0.6896 1.5252h-0.6896v-0.6609h0.6492c0.3365 0 0.5175 0.1191 0.5175 0.3184 0 0.2152-0.181 0.3425-0.4771 0.3425z" fill="#fff"/>
<path d="m44.727 35.272c-0.305 0-0.5258 0.0713-0.7543 0.1751l0.092 0.2512c0.1923-0.0873 0.3846-0.1474 0.6297-0.1474 0.3887 0 0.6136 0.191 0.6136 0.5571v0.0637c-0.1852-0.0519-0.3691-0.0873-0.6332-0.0873-0.5252 0-0.886 0.2311-0.886 0.6733 0 0.4298 0.3845 0.6491 0.7738 0.6491 0.365 0 0.6018-0.1668 0.746-0.3502v0.3066h0.3044v-1.2587c0-0.2624-0.0718-0.4617-0.216-0.6049-0.1489-0.1486-0.3774-0.2276-0.67-0.2276zm0.5852 1.3336c0 0.3266-0.3092 0.553-0.6896 0.553-0.2807 0-0.5217-0.1509-0.5217-0.4097 0-0.2553 0.2208-0.4222 0.6059-0.4222 0.2528 0 0.4534 0.0437 0.6059 0.0873v0.1916h-5e-4z" fill="#fff"/>
<path d="m0.036011 5.2253v8.3495h2.4593v-3.8316c0.72342 0.4445 1.5632 0.698 2.4587 0.698 2.7168 0 4.9179-2.337 4.9179-5.22-5.9e-4 -2.883-2.2017-5.2212-4.9185-5.2212-0.89552 0-1.7347 0.25469-2.4581 0.69864v-0.69864h-2.4593v5.2159 0.00471 0.00472zm4.9173-2.6147c1.3584 0 2.4593 1.1691 2.4593 2.6106s-1.1003 2.61-2.4593 2.61c-1.3578 0-2.4587-1.1685-2.4587-2.61s1.1014-2.6106 2.4587-2.6106z" fill="#fff"/>
<path d="m20.574 2.6106c1.3584 0 2.4587 1.1691 2.4587 2.61 0 1.4415-1.1003 2.6106-2.4587 2.6106-1.3477 0-2.4415-1.1502-2.4587-2.5764v4.4878c0.7234 0.44449 1.562 0.69859 2.4587 0.69859 2.7002 0 4.893-2.3111 4.9179-5.1716v-0.09728c-0.0249-2.86-2.2177-5.1723-4.9179-5.1723-0.8961 0-1.7353 0.25469-2.4587 0.69864v4.4878c0.0172-1.4262 1.111-2.5758 2.4587-2.5758z" fill="#fff"/>
<path d="m15.657 13.574h2.4587v-13.574h-2.4587v5.164l-6e-4 0.00826v0.09728l6e-4 0.00825v8.2964z" fill="#fff"/>
<path d="m37.991 9.7432v0.698h2.4605v-5.22c0 1.1974-0.381 2.2987-1.0196 3.1795 0.638-0.88081 1.0196-1.9827 1.0196-3.1801v-5.2206h-2.4605v0.69805c-0.7234-0.44336-1.5625-0.69805-2.4581-0.69805-2.7162 0-4.9173 2.3376-4.9173 5.2206 0 2.883 2.2011 5.2201 4.9173 5.2201 0.8956 5e-4 1.7347-0.253 2.4581-0.6975zm2.3513-5.5614c-0.2089-1.0901-0.7317-2.0552-1.4718-2.7839 0.7401 0.7287 1.2635 1.6938 1.4718 2.7839zm0.0694 0.42449c-0.0035-0.03183-0.0018-0.06544-0.0059-0.09728 0.0041 0.03184 0.0024 0.06545 0.0059 0.09728zm-7.338 0.61492c0-1.4415 1.1008-2.6106 2.4587-2.6106 1.3566 0 2.4557 1.1662 2.4586 2.6047v0.01238c-0.0029 1.4385-1.102 2.6041-2.4586 2.6041-1.3573-5.9e-4 -2.4587-1.1691-2.4587-2.6106z" fill="#fff"/>
<path d="m53.852 2.61v7.8312h2.4605v-10.441h-0.0012v5.8957e-4h-2.4593v-5.8957e-4h-4.4254v5.8957e-4h-2.458v10.441h2.458v-7.8318h4.4254v5.9e-4z" fill="#fff"/>
<path d="m62.828 10.441h2.4599v-7.8318h-6e-4v-2.6088h-2.4599v2.6094h6e-4v7.8313z" fill="#fff"/>
<path d="m69.713 2.61v7.8312h2.4586v-10.441h-2.4586v-5.8957e-4h-4.4254v2.6094h4.4254v5.9e-4z" fill="#fff"/>
<path d="m61.658 25.085-1.8148 1.8035-1.8154 1.8035h3.6302v-3.607z" fill="#fff"/>
<path d="m62.11 32.993 1.8154 1.8035 1.8141-1.8035 1.8154 1.8035 3.6302-3.6064 1.8153-1.8035h-21.78l1.8148 1.8035 1.8154 1.8029 1.8142 1.8035 1.8153-1.8035 1.8154 1.8035 1.8148-1.8035z" fill="#fff"/>
<path d="m65.645 33.895-1.8147 1.8029h3.6295l-1.8148-1.8029z" fill="#fff"/>
<path d="m69.275 33.895-1.8148 1.8029h3.6301l-1.8153-1.8029z" fill="#fff"/>
<path d="m60.2 35.698h3.6308l-1.8154-1.8029-1.8154 1.8029z" fill="#fff"/>
<path d="m65.645 37.502h3.6295l-1.8147-1.8035-1.8148 1.8035z" fill="#fff"/>
<path d="m69.275 37.502h3.6307l-1.8153-1.8035-1.8154 1.8035z" fill="#fff"/>
<path d="m62.015 37.502h3.6302l-1.8148-1.8035-1.8154 1.8035z" fill="#fff"/>
<path d="m67.693 26.896 1.8154-1.8035 1.8154-1.8029-1.8154-1.8029-1.8154-1.8035-1.8141-1.8029-1.8154-1.8029-1.8148-1.8035v14.425h3.6302l1.8141-1.8029z" fill="#fff"/>
<path d="m61.658 24.191-0.0054-0.0059v-3.6005l-1.8153 1.8029 0.0029 3e-3 -1.8124 1.8005v3.6058l1.8154-1.8035 1.8148-1.8023z" fill="#fff"/>
</svg>
