<?xml version="1.0" encoding="UTF-8"?>
<svg viewBox="0 0 147 47" xmlns="http://www.w3.org/2000/svg">
<path d="m61.047 13.24v6.8719h-0.8975v-6.1278h-3.2273v6.1278h-0.8975v-6.8719h5.0223z" fill="#fff"/>
<path d="m62.58 16.788c0-0.6323-0.0203-1.1424-0.0406-1.6114h0.8145l0.0415 0.8463h0.0203c0.3711-0.6018 0.9586-0.959 1.7731-0.959 1.2068 0 2.1141 1.0097 2.1141 2.5085 0 1.7739-1.0928 2.6508-2.2687 2.6508-0.6599 0-1.2377-0.2856-1.5363-0.7748h-0.0203v2.6814h-0.8976v-5.3418zm0.8976 1.3154c0 0.1327 0.0203 0.255 0.0415 0.3668 0.1652 0.6219 0.7112 1.0499 1.3614 1.0499 0.9594 0 1.516-0.7748 1.516-1.9067 0-0.9887-0.5257-1.835-1.4851-1.835-0.6184 0-1.1962 0.4384-1.372 1.111-0.0309 0.1117-0.0618 0.2445-0.0618 0.3668v0.8472z" fill="#fff"/>
<path d="m71.209 20.111-0.0725-0.6218h-0.0309c-0.2783 0.3869-0.8145 0.7336-1.5266 0.7336-1.0107 0-1.5266-0.7039-1.5266-1.4175 0-1.1931 1.0725-1.8455 3.0002-1.835v-0.1022c0-0.4079-0.1131-1.1425-1.1344-1.1425-0.4638 0-0.9488 0.1433-1.2995 0.3669l-0.205-0.5896c0.4126-0.2646 1.0107-0.4384 1.6397-0.4384 1.5266 0 1.8968 1.0297 1.8968 2.0193v1.8455c0 0.428 0.0203 0.8464 0.083 1.1826h-0.8242v-9e-4zm-0.1343-2.518c-0.9904-0.0201-2.1141 0.1528-2.1141 1.111 0 0.5817 0.3922 0.8559 0.8561 0.8559 0.6493 0 1.0619-0.4079 1.2067-0.8254 0.031-0.0917 0.0513-0.1938 0.0513-0.2856v-0.8559z" fill="#fff"/>
<path d="m73.392 15.238c0.3507-0.0611 1.001-0.1118 1.5885-0.1118 0.8348 0 2.2174 0.1328 2.2174 1.2333 0 0.6123-0.4744 0.9887-1.0416 1.111v0.0201c0.7315 0.1022 1.2687 0.5092 1.2687 1.2236 0 1.2944-1.6503 1.4577-2.6301 1.4577-0.5574 0-1.1343-0.0401-1.4029-0.0611v-4.8728zm0.8561 4.2815c0.2579 0.0306 0.4435 0.0411 0.7324 0.0411 0.6078 0 1.5159-0.1433 1.5159-0.856s-0.7217-0.8664-1.5884-0.8664h-0.6599v1.6813zm0.0106-2.2735h0.6811c0.6706 0 1.3614-0.1939 1.3614-0.7747 0-0.4891-0.4329-0.7241-1.3411-0.7241-0.2995 0-0.485 0.0201-0.7014 0.0411v1.4577z" fill="#fff"/>
<path d="m79.402 15.176v2.0796c0 0.7852-0.0106 1.2743-0.0521 1.9783l0.0309 0.0104c0.2995-0.6009 0.4744-0.9476 0.804-1.5188l1.5575-2.5486h1.0619v4.9347h-0.8658v-2.09c0-0.8053 0.0203-1.2237 0.0618-2.0185h-0.0309c-0.3189 0.6324-0.5353 1.0298-0.8251 1.5294-0.4744 0.7642-1.0204 1.7127-1.5575 2.5791h-1.0416v-4.9347h0.8569v-9e-4z" fill="#fff"/>
<path d="m87.619 15.176v0.7136h-1.5575v4.2212h-0.8976v-4.2212h-1.5575v-0.7136h4.0126z" fill="#fff"/>
<path d="m88.782 17.807c0.0203 1.2132 0.8048 1.7128 1.7121 1.7128 0.6494 0 1.0416-0.1118 1.3809-0.2551l0.1554 0.642c-0.3198 0.1432-0.8666 0.3057-1.6608 0.3057-1.5363 0-2.4542-0.9992-2.4542-2.4875s0.8869-2.6613 2.3411-2.6613c1.6291 0 2.062 1.4176 2.062 2.325 0 0.1835-0.0204 0.3267-0.031 0.4184h-3.5055zm2.661-0.642c0.0106-0.5712-0.2377-1.4577-1.2581-1.4577-0.9179 0-1.3198 0.8368-1.3923 1.4577h2.6504z" fill="#fff"/>
<path d="m97.236 15.176v4.9348h-0.8975v-4.2308h-1.7122v1.2847c0 1.3862-0.1334 2.3146-0.7836 2.7321-0.2473 0.1939-0.5265 0.3057-0.9903 0.3057l-0.0919-0.7031c0.1749-0.0306 0.3711-0.1022 0.4956-0.2035 0.4638-0.3363 0.5151-1.0298 0.5151-2.1312v-1.9878h3.4648v-9e-4z" fill="#fff"/>
<path d="m99.595 15.176v1.6726c0.2059-0.0411 0.5568-0.0516 0.8248-0.0516 1.124 0 2.31 0.3468 2.31 1.6621 0 0.5092-0.206 0.8665-0.526 1.132-0.547 0.4585-1.434 0.5712-2.165 0.5712-0.5056 0-0.9703-0.0306-1.3414-0.0716v-4.9138h0.8976v-9e-4zm0 4.3129c0.1749 0.0201 0.3711 0.0402 0.6708 0.0402 0.68 0 1.556-0.2245 1.556-1.0499 0-0.8559-0.906-1.0393-1.577-1.0393-0.237 0-0.4431 0.0201-0.6489 0.0506v1.9984h-9e-4z" fill="#fff"/>
<path d="m107.41 19.928c-0.237 0.1223-0.762 0.2857-1.433 0.2857-1.505 0-2.485-1.0097-2.485-2.5181 0-1.5189 1.052-2.6202 2.682-2.6202 0.536 0 1.01 0.1327 1.258 0.255l-0.206 0.6935c-0.217-0.1223-0.557-0.235-1.051-0.235-1.145 0-1.764 0.8359-1.764 1.8657 0 1.1415 0.743 1.8455 1.733 1.8455 0.516 0 0.856-0.1328 1.114-0.2446l0.152 0.6725z" fill="#fff"/>
<path d="m112.01 15.176v0.7136h-1.558v4.2212h-0.897v-4.2212h-1.558v-0.7136h4.013z" fill="#fff"/>
<path d="m112.78 15.238c0.35-0.0611 1-0.1118 1.588-0.1118 0.835 0 2.217 0.1328 2.217 1.2333 0 0.6123-0.474 0.9887-1.042 1.111v0.0201c0.733 0.1022 1.269 0.5092 1.269 1.2236 0 1.2944-1.649 1.4577-2.63 1.4577-0.557 0-1.134-0.0401-1.402-0.0611v-4.8728zm0.856 4.2815c0.258 0.0306 0.444 0.0411 0.732 0.0411 0.608 0 1.516-0.1433 1.516-0.856s-0.721-0.8664-1.588-0.8664h-0.66v1.6813zm0.011-2.2735h0.681c0.67 0 1.36-0.1939 1.36-0.7747 0-0.4891-0.433-0.7241-1.34-0.7241-0.299 0-0.485 0.0201-0.701 0.0411v1.4577z" fill="#fff"/>
<path d="m122.47 17.604c0 1.8245-1.278 2.6202-2.485 2.6202-1.351 0-2.392-0.9791-2.392-2.539 0-1.6516 1.093-2.6202 2.475-2.6202 1.432 0 2.402 1.0297 2.402 2.539zm-3.959 0.0506c0 1.0804 0.629 1.8962 1.516 1.8962 0.866 0 1.516-0.8053 1.516-1.9162 0-0.8368-0.423-1.8962-1.495-1.8962s-1.537 0.9782-1.537 1.9162z" fill="#fff"/>
<path d="m56.025 25.55c0.4329-0.0716 1-0.1319 1.7218-0.1319 0.887 0 1.5363 0.2035 1.9489 0.5704 0.3816 0.3266 0.6087 0.8253 0.6087 1.4376 0 0.6219-0.1856 1.1101-0.5363 1.4682-0.4744 0.4996-1.2483 0.7538-2.1247 0.7538-0.2676 0-0.515-0.0105-0.7217-0.0603v2.7521h-0.8976v-6.7899h9e-4zm0.8975 3.3137c0.1962 0.0516 0.4435 0.0717 0.7421 0.0717 1.0831 0 1.7431-0.5206 1.7431-1.4691 0-0.9066-0.6494-1.3451-1.6397-1.3451-0.3914 0-0.6909 0.0297-0.8455 0.0708v2.6717z" fill="#fff"/>
<path d="m65.705 29.832c0 1.8246-1.2784 2.6194-2.4852 2.6194-1.3507 0-2.3923-0.9782-2.3923-2.5382 0-1.6516 1.0928-2.6202 2.4754-2.6202 1.4329 0 2.4021 1.0298 2.4021 2.539zm-3.9596 0.0507c0 1.0804 0.629 1.897 1.516 1.897 0.8658 0 1.516-0.8061 1.516-1.9171 0-0.8359-0.4232-1.8962-1.4957-1.8962s-1.5363 0.9791-1.5363 1.9163z" fill="#fff"/>
<path d="m70.405 32.156c-0.2377 0.1223-0.7633 0.2856-1.4338 0.2856-1.5054 0-2.4852-1.0097-2.4852-2.5189 0-1.5189 1.0522-2.6202 2.6813-2.6202 0.5362 0 1.0106 0.1327 1.258 0.255l-0.2058 0.6935c-0.2174-0.1232-0.5566-0.235-1.0522-0.235-1.145 0-1.7634 0.8359-1.7634 1.8656 0 1.1425 0.7421 1.8456 1.7325 1.8456 0.5159 0 0.856-0.1328 1.114-0.2446l0.1546 0.6734z" fill="#fff"/>
<path d="m75.002 27.406v0.7127h-1.5566v4.2212h-0.8967v-4.2212h-1.5575v-0.7127h4.0108z" fill="#fff"/>
<path d="m80.177 29.832c0 1.8246-1.2784 2.6194-2.4852 2.6194-1.3508 0-2.3923-0.9782-2.3923-2.5382 0-1.6516 1.0928-2.6202 2.4754-2.6202 1.432 0 2.4021 1.0298 2.4021 2.539zm-3.9605 0.0507c0 1.0804 0.629 1.897 1.516 1.897 0.8657 0 1.516-0.8061 1.516-1.9171 0-0.8359-0.4232-1.8962-1.4948-1.8962s-1.5372 0.9791-1.5372 1.9163z" fill="#fff"/>
<path d="m81.299 27.466c0.3498-0.0603 1-0.1118 1.5875-0.1118 0.8358 0 2.2175 0.1319 2.2175 1.2332 0 0.6114-0.4736 0.9896-1.0416 1.111v0.0201c0.7324 0.1022 1.2686 0.5101 1.2686 1.2228 0 1.2944-1.6494 1.4586-2.63 1.4586-0.5566 0-1.1343-0.0411-1.402-0.0612v-4.8727zm0.856 4.2832c0.258 0.0305 0.4435 0.041 0.7315 0.041 0.6087 0 1.5169-0.1432 1.5169-0.8568 0-0.7127-0.7218-0.8664-1.5884-0.8664h-0.66v1.6822zm0.0106-2.2744h0.6812c0.6705 0 1.3605-0.1939 1.3605-0.7747 0-0.49-0.4329-0.7241-1.3402-0.7241-0.2995 0-0.485 0.0201-0.7015 0.0411v1.4577z" fill="#fff"/>
<path d="m90.03 32.156c-0.2376 0.1223-0.7624 0.2856-1.4329 0.2856-1.5054 0-2.4851-1.0097-2.4851-2.5189 0-1.5189 1.0513-2.6202 2.6812-2.6202 0.5363 0 1.0107 0.1327 1.258 0.255l-0.2058 0.6935c-0.2164-0.1232-0.5566-0.235-1.0513-0.235-1.1449 0-1.7634 0.8359-1.7634 1.8656 0 1.1425 0.743 1.8456 1.7325 1.8456 0.5159 0 0.856-0.1328 1.114-0.2446l0.1528 0.6734z" fill="#fff"/>
<path d="m91.989 27.406v2.1407h0.2164l1.8765-2.1407h1.1034l-2.176 2.2324c0.804 0.0821 1.289 0.6123 1.6804 1.4997 0.1343 0.3258 0.3101 0.8053 0.5362 1.2027h-0.9488c-0.1334-0.214-0.3101-0.6009-0.4638-1.0088-0.3401-0.7957-0.804-1.1625-1.6494-1.1625h-0.1749v2.1713h-0.8976v-4.9339h0.8976v-9e-4z" fill="#fff"/>
<path d="m100.48 29.832c0 1.8246-1.2782 2.6194-2.485 2.6194-1.3508 0-2.3924-0.9782-2.3924-2.5382 0-1.6516 1.0928-2.6202 2.4754-2.6202 1.433 0 2.402 1.0298 2.402 2.539zm-3.9595 0.0507c0 1.0804 0.629 1.897 1.516 1.897 0.8658 0 1.516-0.8061 1.516-1.9171 0-0.8359-0.4232-1.8962-1.4948-1.8962s-1.5372 0.9791-1.5372 1.9163z" fill="#fff"/>
<path d="m102.46 27.406v2.0796c0 0.7852-0.011 1.2743-0.052 1.9783l0.031 0.0105c0.299-0.6009 0.474-0.9485 0.804-1.5189l1.557-2.5486h1.062v4.9339h-0.866v-2.0901c0-0.8061 0.021-1.2236 0.062-2.0193h-0.031c-0.319 0.6324-0.535 1.0298-0.825 1.5294-0.474 0.7642-1.021 1.7127-1.557 2.5791h-1.042v-4.9339h0.857zm0.588-2.0088c0.03 0.4384 0.247 0.7747 0.659 0.7747 0.444 0 0.65-0.3258 0.702-0.7747h0.649c-0.041 0.8358-0.577 1.2638-1.372 1.2638-0.907 0-1.258-0.5607-1.299-1.2638h0.661z" fill="#fff"/>
<path d="m114.04 29.832c0 1.8246-1.279 2.6194-2.485 2.6194-1.351 0-2.393-0.9782-2.393-2.5382 0-1.6516 1.093-2.6202 2.476-2.6202 1.432 0 2.402 1.0298 2.402 2.539zm-3.96 0.0507c0 1.0804 0.629 1.897 1.516 1.897 0.866 0 1.516-0.8061 1.516-1.9171 0-0.8359-0.423-1.8962-1.495-1.8962-1.071 0-1.537 0.9791-1.537 1.9163z" fill="#fff"/>
<path d="m118.95 25.733c-0.257 0.0918-0.711 0.1739-1.041 0.2245-0.804 0.1232-1.393 0.3878-1.774 0.9276-0.319 0.4489-0.505 1.111-0.546 1.6315h0.031c0.319-0.7136 1.02-1.111 1.732-1.111 1.227 0 2.124 0.8664 2.124 2.436 0 1.6114-0.846 2.6097-2.309 2.6097-1.753 0-2.332-1.6612-2.332-3.3023 0-1.1215 0.238-2.0395 0.774-2.7329 0.484-0.6831 1.175-0.9992 2.145-1.1626 0.402-0.0611 0.898-0.1432 1.237-0.2646l-0.041 0.7441zm-1.783 2.3355c-0.536 0-0.917 0.2743-1.123 0.6734-0.166 0.2953-0.248 0.6525-0.248 1.0499 0 0.8158 0.402 1.9879 1.392 1.9879 1.001 0 1.372-0.959 1.372-1.8665-1e-3 -0.8053-0.32-1.8447-1.393-1.8447z" fill="#fff"/>
<path d="m124.41 27.406v4.9339h-0.898v-4.2317h-1.712v1.2857c0 1.3861-0.133 2.3136-0.784 2.732-0.247 0.1939-0.526 0.3066-0.99 0.3066l-0.092-0.704c0.175-0.0306 0.371-0.1022 0.496-0.2035 0.464-0.3371 0.515-1.0306 0.515-2.1303v-1.9878h3.465v-9e-4z" fill="#fff"/>
<path d="m128.65 32.34-0.072-0.6219h-0.031c-0.277 0.387-0.814 0.7337-1.526 0.7337-1.011 0-1.527-0.7031-1.527-1.4167 0-1.1931 1.072-1.8455 3.001-1.8359v-0.1013c0-0.4079-0.114-1.1424-1.134-1.1424-0.464 0-0.949 0.1423-1.3 0.3668l-0.206-0.5913c0.413-0.2655 1.011-0.4384 1.639-0.4384 1.527 0 1.898 1.0297 1.898 2.0193v1.8446c0 0.428 0.02 0.8472 0.082 1.1826h-0.824v9e-4zm-0.133-2.5172c-0.99-0.0201-2.115 0.1529-2.115 1.1101 0 0.5817 0.391 0.8569 0.856 0.8569 0.65 0 1.063-0.4088 1.207-0.8263 0.031-0.0908 0.052-0.1939 0.052-0.2847v-0.856z" fill="#fff"/>
<path d="m134.41 32.156c-0.237 0.1223-0.762 0.2856-1.433 0.2856-1.505 0-2.485-1.0097-2.485-2.5189 0-1.5189 1.052-2.6202 2.682-2.6202 0.536 0 1.01 0.1327 1.258 0.255l-0.206 0.6935c-0.217-0.1232-0.557-0.235-1.052-0.235-1.144 0-1.763 0.8359-1.763 1.8656 0 1.1425 0.743 1.8456 1.733 1.8456 0.515 0 0.856-0.1328 1.114-0.2446l0.152 0.6734z" fill="#fff"/>
<path d="m139.01 27.406v0.7127h-1.558v4.2212h-0.897v-4.2212h-1.558v-0.7127h4.013z" fill="#fff"/>
<path d="m140.64 27.406v2.0796c0 0.7852-0.01 1.2743-0.052 1.9783l0.031 0.0104c0.299-0.6009 0.474-0.9485 0.804-1.5188l1.557-2.5486h1.062v4.9339h-0.866v-2.0901c0-0.8062 0.021-1.2237 0.062-2.0193h-0.031c-0.319 0.6323-0.535 1.0297-0.825 1.5293-0.474 0.7642-1.021 1.7128-1.557 2.5792h-1.042v-4.9339h0.857z" fill="#fff"/>
<path d="m12.328 10.592c0.3719 0.1528 0.7439 0.3048 1.1167 0.4576-0.2377 0.552-1.3791-0.1476-1.1167-0.4576 0.3719 0.1528-0.0336 0.0393 0 0zm-10.214 2.3521c-0.07421-0.6106 0.05478-1.3547 0.76242-1.5084 0 0.9948-0.23942 1.9992-0.31804 2.994-0.0857 1.0866-0.10602 2.1783-0.04064 3.2657 0.12456 2.0517 0.47441 4.4745 1.8358 6.1139 0.1281 0.1494 0.25178 0.3022 0.37281 0.4568-0.21026 0.1817-0.43465 0.3485-0.62901 0.5476-0.29419 0.3013-0.47353 0.6953-0.46028 1.118 0.02297 0.7162 1.0089 1.4542 0.12899 1.9337-0.68909 0.3747-1.251 0.8219-1.349 1.6429-0.09807 0.8236 0.3092 1.6158 1.1078 1.9198 0.31804 0.1214 1.5672 0.0978 1.4921 0.6437-0.05036 0.3633-0.35692 0.6314-0.40462 1.0044-0.05213 0.4079 0.13251 0.8751 0.43465 1.1555 0.59633 0.5546 1.3093-0.1424 1.8561 0.2297 0.52035 0.3538-0.35868 1.9739-0.46469 2.4089-0.22351 0.911-0.12987 1.7241 0.45762 2.4805 0.16609 0.2148 0.63255 0.5266 0.62018 0.8297-0.01413 0.3468-0.59809 0.7494-0.81453 0.9905-0.24295 0.269-1.9445 1.794-0.86136 1.9774 0.56805 0.096 1.7987-1.7853 2.1468-2.1801 0.51063 0.9145-0.67584 1.8534-1.1847 2.5111-0.25355 0.3266-2.0098 2.0569-0.97886 2.284 0.58131 0.1275 1.7607-1.9792 2.0752-2.3976 0.18199-0.241 0.35515-0.4943 0.56099-0.717 0.27122-0.2917 0.41522 0.0026 0.72266 0.1633 0.53448 0.2795 1.114 0.469 1.7112 0.5668 1.0584 0.173 2.1379 0.0594 3.1866-0.1249 0.2438-0.0427 1.485-0.4131 1.5292-0.1467 0.0636 0.3948-0.1228 0.9145 0.3348 1.1398 1.031 0.5075 2.0381 0.6385 3.1592 0.8149 1.2916 0.2009 2.4216 0.7302 3.7644 0.6734 1.1564-0.048 2.2007-0.7406 3.32-0.7197 0.9091 0.0175 2.2775 0.1075 3.0894-0.3555 0.3004-0.1711 0.5027-0.4585 0.5875-0.7886 0.0539-0.2088 0.03-0.4193 0.076-0.6289 0.0777-0.352 0.326-0.1581 0.6263-0.1057 1.1361 0.1965 2.2917 0.4044 3.449 0.3136 0.4762-0.0376 0.9479-0.1275 1.3994-0.2839 0.2853-0.0978 0.561-0.2218 0.8233-0.3686 0.4002-0.2236 0.4241-0.4969 0.751-0.0707 0.417 0.5459 0.8357 1.09 1.2518 1.6368 0.3128 0.4096 0.6652 1.138 1.1229 1.4009 0.4293 0.2463 0.447-0.4821 0.3852-0.6891-0.1529-0.5092-0.7236-1.0324-1.0513-1.4446-0.4904-0.6175-1.8844-1.7582-1.3014-2.6281 0.4647 0.4908 0.9365 0.9738 1.3897 1.4752 0.1802 0.2 0.3719 0.5878 0.6485 0.6707 0.2632 0.0786 0.6086-0.227 0.5274-0.4952-0.235-0.7799-2.5152-1.9285-1.8924-2.7477 0.9011-1.1826 1.3367-2.3862 0.7298-3.8273-0.1423-0.3363-0.7898-1.3442-0.2686-1.6202 0.561-0.2978 1.2024 0.2812 1.7775-0.1956 0.5053-0.4193 0.5557-1.1564 0.2562-1.7023-0.2341-0.4271-0.3728-0.7188 0.1855-0.8726 1.2571-0.3458 2.3906-0.5956 2.2157-2.1887-0.0548-0.4944-0.2924-0.9442-0.6926-1.2508-0.2536-0.1939-1.0611-0.3991-1.0487-0.7983 0.0168-0.5319 0.4833-0.9703 0.4956-1.5337 0.0142-0.6419-0.4223-1.1546-0.894-1.5459 1.7077-1.4918 2.0999-4.0273 2.2916-6.1541 0.1219-1.3572 0.0734-2.7075-0.0786-4.0596-0.068-0.6-0.2173-1.0699 0.4841-1.242 0.2545-0.0628 0.5116-0.1083 0.7669-0.1633v-0.7337c-0.3622-0.4087-0.7121-0.7397-0.9153-1.2577-0.1926-0.4908-0.0088-0.91967 8e-3 -1.4219 0.0344-1.0105-0.4462-1.8822-1.2598-2.4796-0.3075-0.22622-0.8561-0.48649-0.8252-0.9363 0.0283-0.414 0.6352-0.42885 0.902-0.66379 0.3508-0.30919 0.6078-0.74764 0.8914-1.1154 0.296-0.38343 0.9047-0.93018 0.804-1.456-0.8066 0.52755-1.8279 1.0289-2.3977 1.8237-0.6485 0.90398-1.4921 1.69-2.2493 2.5067-0.1643-0.41487-0.5892-1.0629-0.5238-1.5224 0.0645-0.4533 0.4673-0.43146 0.7474-0.71882 0.5945-0.61051 1.3216-1.8368 1.4488-2.6508-0.7447 0.56335-1.5275 1.1319-2.1636 1.8184-0.2323 0.25067-0.0282 0.56947-0.2517 0.78171-0.4082 0.38779-0.8252 0.7686-1.2395 1.1503-0.129-0.10219-0.1988-0.60964-0.2465-0.77035-0.5698 0.43933-0.9144 0.86206-1.3269 1.4455 0.0892-0.7459 0.4567-1.8892 0.2473-2.622-0.3127-1.1005-1.3048 0.70396-1.5469 1.035-0.447 0.61051-3.7405 4.5426-3.0487 5.05 0.1678-0.24888 0.3357-0.4978 0.5035-0.74673 0.3092 0.27775-0.5247 1.1407-0.7536 1.4673 1.1962-0.3048 1.3279-1.2926 1.4038-2.3809 0.0919 0.3022 0.1847 0.60352 0.2774 0.90572 0.2271-0.27512 1.3756-1.8717 1.5929-1.7032-0.3605 0.45418-0.72 0.90748-1.0805 1.3616-0.1298 0.1642-1.061 1.2341-0.3003 0.77996 0.8896-0.53104 1.5274-1.3616 2.2307-2.0979-0.4002 0.9232-1.2651 1.5311-1.9666 2.2167 0.872 0.15809 1.2165-0.56684 1.9489-0.7948-0.6219 0.54326-1.3676 1.069-1.7987 1.7852 0.9047-0.2201 1.6397-0.7887 2.2837-1.4306 0.129-0.12839 0.2553-0.2594 0.3799-0.39129 0.1511 0.12403 0.3269 0.18517 0.5168 0.12053 0.2783-0.09432 0.4877-0.34587 0.8004-0.34849-0.1104 0.32404-0.2209 0.64895-0.3313 0.97298-0.2306-0.07511-0.038-0.34063 0.0133-0.52666-1.046 0-1.7183 0.74676-2.4799 1.3381-0.1687 0.131-0.3463 0.2541-0.5353 0.3537-0.349 0.1834-0.1502 0.3048 0.1758 0.2044 0.5292-0.1633 0.9241-0.5826 1.4462-0.7721-0.5195 0.7363-1.5832 0.8096-1.9039 1.739 1.2015-0.3512 2.2732-0.987 3.2953-1.6892-0.0521 0.1362-0.1042 0.2725-0.1564 0.4096 0.3702 0.1005 0.7412 0.2009 1.1123 0.3013-0.2527 0.2193-1.1149 1.1704-1.3411 0.9302 0.2977-0.2568 0.5955-0.5135 0.8932-0.7712-0.826-0.4271-1.1423-0.2332-1.9162 0.1817-0.6485 0.3476-1.3199 0.6454-1.9657 1.0009 0.7801 0.3092 1.3994-0.2122 2.1645-0.1904-0.7324 0.2865-1.4303 0.6376-2.145 0.9625-0.69 0.3127-1.7042 0.1293-2.4472 0.1293 0.1555-0.1555 0.3101-0.3119 0.4656-0.4673-0.1767-0.2262-0.5398-0.0061-0.796 0.0646 0.2165-0.2017 0.584-0.3843 0.4877-0.6865-0.1705 0.028-0.667 0.1939-0.7801 0.062 0.2562-0.1362 0.5133-0.2716 0.7695-0.4079-0.2536-0.1161-0.5071-0.2314-0.7607-0.3467 0.0919-0.3625 0.1829-0.7258 0.2748-1.0883h-0.7757c0.2235-0.2891 0.447-0.5773 0.6705-0.8664 0.0442 0.28037 0.0875 0.5607 0.1317 0.8402 0.1661-0.1118 0.1767-0.81749 0.28-1.0533 0.1997-0.45592 0.5133-0.84983 0.8057-1.249 0.243-0.33364 0.5478-0.72056 0.6317-1.1319 0.1184-0.58606-0.44-0.67427-0.8366-0.85943-0.0345-0.36771 1.0071-0.85682 0.3313-1.4053-0.3835-0.31094-0.8773-0.42535-1.2342-0.77559-0.3684-0.36159-0.6714-0.81053-1.2474-0.82538-0.895-0.02445-2.0284 1.0088-1.5717 1.9163 0.4197 0.83498 0.6873 1.4542-0.5513 1.6263 0.1131-0.54151 0.2774-1.2254-0.333-1.5363-0.3834-0.19564-0.0831-0.33976-0.0725-0.72842 8e-3 -0.27775-0.1051-0.53977-0.3542-0.68301-0.4232-0.24368-1.2722-0.23233-1.4604 0.30657-0.1015 0.29084 0.023 0.62186-0.1183 0.89961-0.152 0.29696-0.478 0.55986-0.6617 0.87428-0.3384-0.18778-0.4055-0.20001-0.2633-0.58955 0.1157-0.31792 0.2615-0.63672 0.3392-0.96599 0.1343-0.56947-0.1016-1.0516-0.6343-1.3058-0.2986-0.14324-0.6255-0.05939-0.5186-0.43234 0.0743-0.25766 0.1988-0.58693 0.0345-0.8376-0.3498-0.53278-1.0778-0.66117-1.5796-0.23844-0.394 0.33189-0.2103 0.81314-0.0698 1.2298-0.3604 0.12228-0.8242 0.2332-1.0813 0.5354-0.2651 0.31181-0.1953 0.78694-0.1343 1.1555 0.1228 0.74764 0.568 1.2726-0.0963 1.8429 0-0.3284 0.0981-0.64283-0.1467-0.91533-0.1307-0.12839-0.2632-0.25591-0.3975-0.38168 0.0221-0.21836 0.0636-0.43409 0.0371-0.65419-0.083-0.68475-0.9055-0.96949-1.4789-0.62623-0.2933 0.17555-0.394 0.51007-0.3816 0.83236 0.015 0.38692-0.2315 0.42884-0.3896 0.7258-0.1803 0.33888-0.1608 0.78956-0.122 1.1546 0.0557 0.5223-0.4302 0.34587-0.6705 0.05939-0.6149-0.73279 0.4903-1.1197 0.4143-1.8804-0.0733-0.72319-1.1802-1.4804-1.8914-1.3197-0.4391 0.0987-0.6882 0.42885-0.9895 0.72581-0.326 0.32141-0.7209 0.4533-1.0937 0.69873-0.7324 0.48299-0.2049 1.0263 0.0725 1.6018-0.7845 0.23757-0.8985 0.71009-0.6564 1.4438-0.9259-1.256-1.8588-2.5128-2.7131-3.8186-0.46292-0.70659-0.76771-0.03668-0.74297 0.44369 0.03799 0.7555 0.09276 1.5049 0.22793 2.249-0.27829-0.36334-0.73415-1.2883-1.1944-1.4394-0.31893-0.10743-0.24825 0.40352-0.55834 0.11267-0.17934-0.16856-0.39578-0.3022-0.54332-0.50308-0.1228-0.16682-0.16697-0.36421-0.14312-0.56859 0.02916-0.25154-0.59544-0.64109-0.74651-0.77384-0.52565-0.45942-1.0133-1.0044-1.6715-1.2551 0.43554 0.84459 0.88345 1.9442 1.6211 2.5713 0.1652 0.13974 0.68202 0.51094 0.60781 0.7817-0.14312 0.51706-0.37105 1.007-0.56629 1.5058-0.51682-0.54938-1.0646-1.0603-1.5911-1.5983-0.26238-0.26901-0.35514-0.64895-0.56982-0.94765-0.27828-0.38692-0.83397-0.6734-1.2209-0.94329-0.33041-0.23058-0.65905-0.50483-1.0213-0.68475-0.64315-0.32142 0.11573 0.58606 0.22969 0.74327 0.44349 0.61401 0.95589 1.6438 1.6821 1.9695 0.93999 0.42186 0.03092 1.0184-0.47352 1.4761-0.68732 0.62449-1.3561 1.297-1.2987 2.2892 0.04506 0.77817 0.53184 1.4088-0.19524 2.0333-0.28624 0.2463-0.62195 0.573-0.62195 0.9494 0 0.6149 0.18553 0.5372 0.75888 0.6822-0.10336-0.8429-0.27563-0.0699 0 0zm32.406 3.5486c1.0478 0.0061 2.1406 0.0917 3.1018-0.4061 0.2032 0.3721-0.9744 0.5389-1.2571 0.6315 0.2606 0.0402 0.8048 0.0043 0.9002 0.2646-0.2615 0.1773-0.9797 0.8533-1.1812 0.5878 0.2209-0.1511 0.4418-0.3022 0.6617-0.4533-0.5954-0.5633-1.4223-0.5153-2.2254-0.6245 1.0566 0.0061 0.6087 0.083 0 0zm-25.326 3.747c0.20496-0.1852 0.40992-0.3712 0.61488-0.5573-0.51594-0.3895-1.2907-0.7022-0.62902-1.3407 0.45233-0.4367 1.2774-0.4646 1.8764-0.483-0.5477 0.2682-1.2394 0.2009-1.7094 0.6315-0.77124 0.7075 1.159 1.0376 1.6926 0.8114-0.4876 0.2481-0.9744 0.4961-1.4621 0.7442 0.56537 0.3616 0.92317 0.4777 1.592 0.5659-0.2279 0.1232-0.5301 0.2551-0.7659 0.0682-0.3393-0.2708-0.77483-0.3267-1.2095-0.4402 0.22174-0.2009 0.40462 0.1056 0 0zm15.441 1.9023c0.0565-0.1721 0.3984-0.2341 0.5318-0.3066 0.2324 0.8123 0.3534 1.6857 0.8534 2.394-0.3171-0.0044-0.53-0.0131-0.7244-0.3031-0.1661-0.248-0.7792-0.1275-1.0275-0.1572-0.2791 0.3284-0.3781 0.5878-0.8542 0.3153-0.3101-0.1773-0.4762-0.421-0.8782-0.3668-0.4788 0.0646-0.9479 1.0254-1.4206 0.255-0.4452-0.7284-1.2986 0.1703-1.781 0.2996 0.3057-0.2996 0.4541-0.6917 0.538-1.1014 0.0893-0.4332 0.023-1.2114 0.5425-1.2114 0.5221 0 0.7615 1.0682 0.9664 1.5241 0.3896 0.8699 0.6034-0.4961 0.7165-0.8585 0.0928-0.2996 0.1855-0.5992 0.2792-0.8979 0.1228-0.3957 0.0928-0.3092 0.4541-0.3092 0.3569 0 0.4231 0.8393 0.6131 1.1992 0.0989 0.1878 0.493 1.1066 0.69 1.1215 0.2155 0.0157 0.4143-1.3329 0.5009-1.5966 0.045-0.1372-0.1714 0.5205 0 0zm-1.8305 16.935c-0.4824-0.4367-0.8561-0.9066-1.4683-1.1774-0.6237-0.2742-1.2837-0.3747-1.9224-0.5904-0.5362-0.1808-0.3154-1.0752-0.3145-1.4961 0.0018-0.8018 0.0027-1.6045 0.0027-2.4063 0-0.8027 0-1.6044-0.0018-2.4071-9e-4 -0.3817-0.2288-1.5713 0.1767-1.8053 0.4276-0.2472 0.9806 0.1851 1.4108 0.2052 0.6688 0.0314 1.274-0.2987 1.9357-0.3039 0.7306-0.0062 1.3834 0.3554 2.1255 0.2768 0.2942-0.0314 1.092-0.4472 1.3526-0.1528 0.3083 0.3476 0.1263 1.2498 0.1263 1.6595 0 0.7991-0.0017 1.5983-0.0017 2.3984 0 0.7991 8e-4 1.5992 0.0044 2.3983 0.0017 0.3931 0.2164 1.3626-0.2483 1.5896-0.5159 0.2542-1.2006 0.3092-1.7518 0.5119-0.7236 0.269-0.9816 0.6961-1.4259 1.2996-0.394-0.3564 0.2191-0.2987 0 0zm-4.2105-2.6403c0 1.0166-0.5946 0.7983-1.4922 0.8018-1.2721 0.0061-2.5876 0.0934-3.8553-0.0341-1.1971-0.1205-1.4215-0.9538-1.4568-2.0123-0.046-1.3835-0.0053-2.7714-0.0053-4.1557 0-5.5209-0.0901-11.05 0.0017-16.57 0.0151-0.8847 1.4401-0.5214 2.0558-0.5223h3.9746c0.9975 0 0.7775 0.566 0.7775 1.4333v4.1068c0 5.6509 9e-4 11.302 0 16.953v0zm8.034-16.671c-0.0017-1.2682 0.0053-2.5355 9e-4 -3.8029-0.0018-0.5179-0.1581-1.2725 0.0415-1.7616 0.1714-0.4193 0.9277-0.262 1.2625-0.2594 1.2456 0.0105 2.4913 0.0105 3.737 0.0043 0.507-0.0017 1.2421-0.1493 1.7209 0.0411 0.4188 0.1651 0.2633 0.9197 0.2624 1.2437-8e-3 5.4492-0.0053 10.899-0.0071 16.348-9e-4 1.276-9e-4 2.5512-0.0018 3.8264-8e-4 0.7712-0.0715 1.4865-0.9364 1.718-1.0107 0.2699-2.2024 0.1214-3.2387 0.1179-0.713-0.0026-2.85 0.4367-2.8474-0.5966 0.0142-5.2081 0.0036-10.416 0.0036-15.624 0.5309 0.7345 1.0742 1.435 1.6326 2.1477 0.2756 0.352 0.4982 0.7459 0.6034 1.1817 0.0919 0.3826 0.3675 0.5817 0.4797 0.959 0.2359 0.7922-0.7439 2.1041-1.069 2.8133-0.2261 0.4935-0.4497 0.9896-0.6758 1.4831-0.2332 0.5083-0.2297 0.621-0.0345 1.1616 0.9488-0.5206 1.3305-2.0272 1.7855-2.9862 0.3162-0.6682 0.4806-0.8228 0.3807 0.0629-0.0839 0.7468-0.1616 1.4953-0.2756 2.2377-0.1042 0.6777-0.0883 0.9895 0.2368 1.5931 0.3003 0.5598 0.6184 0.759 1.038 0.1284 0.6599-0.9914-0.0283-2.3024-0.0715-3.3662 0.3984 0.4987 1.1794 2.8535 1.9153 2.5181-0.1423-1.2577-0.6609-2.4028-1.1786-3.5618-0.2464-0.552-0.6025-1.0961-0.6864-1.7031-0.0981-0.7171 0.2659-1.2691 0.5893-1.8744 0.4496-0.842 0.1166 0.69 0.0733 0.9197-0.1272 0.6725 0.129 0.9852 0.7898 1.1879 1.372 0.4227 0.9329-1.5538 0.9347-2.3093 0.0017-0.587-0.0336-1.1774-0.0813-1.7626-0.0203-0.2576-0.053-0.4716-0.1458-0.7127-0.1175-0.3074 0.1202-0.4018 0.2288-0.7022 0.1317-0.3634 0.2218-0.9049-0.1334-1.1782-0.3843-0.2953-0.7942 0.1921-1.0168 0.4733-0.3127 0.3948-0.2173 0.9267-0.4214 1.3818-0.258 0.5773-0.6069 0.9765-0.7907 1.5905-0.2942-0.8176 0.3852-1.6988 0.5204-2.4962 0.0662-0.3913 0.0733-0.7931-0.0027-1.1835-0.0698-0.3607-0.4223-0.6184-0.5451-0.9651-0.1245-0.3494-0.2562-0.5477-0.5053-0.8228-0.3728 0.3677-0.4665 0.7101-0.6873 1.1739-0.3516 0.7389-0.5354 1.3293-0.3366 2.1695 0.0839 0.3555 0.2438 0.5651 0.4073 0.8795 0.1899 0.3643 0.1334 0.7783 0.1395 1.1713 0.0045 0.2742 0.1476 0.9197-0.1616 0.9634-0.0778-0.4795-0.1432-0.9617-0.2297-1.4394-0.1105-0.6079-0.1882-2.0988-0.7828-2.4325-0.6458-0.3616-1.4356 0.1791-1.8888 0.5922-0.015-0.1817-0.0265-0.3642-0.0318-0.5476-0.0026-1.7285 0 0.1633 0 0zm-5.2335 2.1861c-8e-3 -0.317 0.2641-0.904-0.0936-1.138-0.3437-0.2245-1.0938-0.1817-1.4772-0.0979-0.4761 0.104-0.4867 0.5197-0.4117 0.9232 0.1467 0.7835 0.1202 1.3049-0.2411 2.0377-0.3331-2.0988-0.0689-4.4177-0.0716-6.5436 0-0.5642-0.0018-1.1284-0.0026-1.6927-9e-4 -0.407-0.1105-0.9686 0.0459-1.3564 0.2368-0.5869 2.4595-0.2419 2.9922-0.241 1.1741 8e-4 2.3482-0.0026 3.5214-0.0088 0.9966-0.0052 0.5716 1.9731 0.5707 2.6177-0.0017 1.1546-0.0026 2.3101-0.0026 3.4648v1.732c0 0.3877 0.2058 1.6009-0.0689 1.8874-0.1219-0.5092-0.493-0.9791-0.3198-1.525 0.1175-0.3686 0.4064-1.0315-0.0954-1.2743-0.3552-0.1721-1.4939-0.2009-1.7669 0.1336-0.2642 0.325 0.212 1.3268 0.0972 1.7687-0.6087-0.6979-0.2668-1.1678-0.273-1.9888-0.0044-0.5677-0.5601-0.4987-0.9992-0.4987-0.5955 0-1.5946 0.0952-1.2633 0.9608 0.1599 0.4166 0.3843 0.6917 0.2509 1.1607-0.0707 0.2463-0.0795 0.4446-0.3587 0.4446-0.0106-0.2559-0.0239-0.5109-0.0327-0.766-9e-4 -0.0506 0.0088 0.2551 0 0zm13.372 16.894c1.4021-0.9397 1.7475-2.401 1.1512-3.9242-0.2827-0.724-0.9268-1.7075-0.8817-2.5006 0.0459-0.8166 1.2925-0.4838 1.7925-0.5485 0.894-0.1144 0.3914-0.8839 0.561-1.3765 0.182-0.5284 1.0999-0.3729 1.3287-0.9275 0.2765-0.6699-0.887-0.9721-0.6405-1.6281 0.1378-0.3685 0.4947-0.6227 0.5221-1.0393 0.0247-0.3738-0.2589-0.7075-0.4824-0.9756 0.7474-0.4149 2.7484-1.78 2.79 0.0463 0.0132 0.5817-0.5407 0.9398-0.4965 1.5407 0.053 0.7188 0.6882 0.9004 1.212 1.2227 1.1565 0.7127 0.5354 1.9539-0.6007 2.1347-0.5327 0.0856-1.1511 0.1842-1.3905 0.7371-0.3039 0.7014 0.4328 1.09 0.3657 1.7128-0.091 0.8411-1.8702 0.0655-2.3199 0.8909-0.5195 0.952 0.5565 2.1162 0.6626 3.0455 0.1351 1.1966-0.7686 2.1478-1.6477 2.8386-0.5662 0.4446-1.2333 0.7546-1.9594 0.8184-0.7748 0.0673-1.031-0.745-1.3517-1.2926 0.4629-0.2594 0.9462-0.4813 1.3852-0.7748 1.1706-0.7852-0.4267 0.2865 0 0zm-27.548-11.036c0.40197 0.5913-0.6882 1.0534-0.57689 1.6455 0.08393 0.4437 0.57247 0.6062 0.94882 0.725 0.43289 0.1353 0.41964 0.455 0.40904 0.8393-0.04418 1.5756 1.8941 0.1965 2.2961 1.2315 0.189 0.4874-0.1997 1.2176-0.38077 1.6481-0.33748 0.8027-0.77832 1.5512-0.76683 2.4482 0.02208 1.7058 1.5036 2.6176 2.9012 3.2421-0.2791 0.4463-0.492 1.0953-1.0557 1.2525-0.5592 0.1555-1.1767-0.0821-1.6644-0.3424-1.0018-0.5328-2.213-1.6193-2.236-2.8386-0.01325-0.7031 0.2456-1.414 0.49827-2.0586 0.21821-0.5564 0.46734-1.2664-0.11927-1.6988-0.56275-0.414-1.2262-0.0297-1.827-0.248-0.55127-0.2 0.00883-1.1093 0.09099-1.4377 0.24383-0.9895-0.65552-1.2271-1.463-1.3738-1.3808-0.2498-1.3967-1.4927-0.31627-2.2045 0.33041-0.2175 0.91172-0.4918 1.0248-0.9128 0.11485-0.4262-0.25178-0.9651-0.42759-1.3249-0.29595-0.6018-0.01679-1.2176 0.63608-1.4394 0.59456-0.2018 1.5805 0.6673 2.0699 0.9573-0.52565 0.6926-0.5283 1.1756-0.04152 1.89 0.09718 0.1424-0.53802-0.7895 0 0zm21.949 15.582c-0.03 1.3075-2.8155 0.8952-3.5876 0.8769-0.6502-0.0175-1.3234 0.5266-1.9763 0.6507-0.788 0.1493-1.5973 0.0926-2.3773-0.0699-0.7068-0.1467-1.3791-0.4122-2.0929-0.5232-0.6741-0.1057-1.3879-0.1092-2.0461-0.2847-1.0274-0.2743-0.7438-1.4953-0.7438-2.318 1.0495 0.034 2.1017 0.0192 3.1486 0.1056 1.0159 0.083 1.8932 0.5459 2.9286 0.566 2.19 0.0437 4.4808-0.4603 6.624-0.862 0.0486 0.6192 0.137 1.2358 0.1228 1.8586-0.0053 0.2253 0.0151-0.6376 0 0zm11.141-22.298c0.2385-2.1643 0.4143-4.3531 0.2836-6.5305-0.0672-1.1197-0.2191-2.2359-0.4815-3.3277-0.1617-0.669 1.1016-1.5258 1.5116-1.9398 0.5645 2.6054 1.0451 5.2274 0.9285 7.907-0.099 2.2849-0.3905 5.7619-2.7184 6.9716 0.1617-1.0271 0.3631-2.0473 0.4762-3.0805 0.1404-1.2769-0.1113 1.0123 0 0zm-34.95-10.428c0.50886 0.621-0.13605 2.2141-0.2191 2.946-0.13605 1.2019-0.17138 2.4142-0.13251 3.623 0.03975 1.2271 0.16962 2.4446 0.34896 3.6587 0.15195 1.0323 0.45586 2.1267 0.45586 3.1696-2.1212-0.9913-2.4975-4.1251-2.6618-6.1724-0.22882-2.85 0.1864-5.7864 0.95942-8.5324 0.41963 0.43233 0.86666 0.84196 1.2492 1.3075 0.1334 0.1625-0.35426-0.4306 0 0zm1.6432 1.6543c0.1652 0.2218 0.07244 0.8655 0.09806 1.1223 0.05919 0.5826 0.26327 1.0621 0.26945 1.6656 0.01237 1.2499-0.03357 2.4761 0.11308 3.7216 0.29772 2.525 0.98063 4.9898 1.4886 7.4782-0.52035-0.8455-2.2386-1.0796-2.4206-2.0639-0.25532-1.3818-0.54597-2.76-0.68467-4.1592-0.144-1.4464-0.2244-2.9006-0.20938-4.354 0.00795-0.7843 0.08216-1.5599 0.19171-2.3363 0.08216-0.5835 0.04505-1.4019 0.38871-1.8875 0.25797 0.2664 0.54244 0.5136 0.76507 0.8132 0.08657 0.1161-0.2138-0.2883 0 0zm30.783 8.9158c0.3896-1.8901 0.5451-3.7007 0.4567-5.6266-0.0689-1.4961-0.265-3.2045 1.319-3.9967 0.4055 2.5495 0.5769 5.1208 0.356 7.7018-0.1113 1.3066-0.3224 2.6018-0.5742 3.8875-0.1202 0.6158-0.1175 1.1459-0.6882 1.4979-0.6078 0.3747-1.2262 0.7328-1.8402 1.0979 0.3251-1.5206 0.6573-3.0386 0.9709-4.5618 0.3127-1.5154-0.303 1.4734 0 0zm-19.315 18.06c-0.8048-0.0236-2.2431-0.1275-2.7175 0.7267-0.333 0.6 0.1944 1.6184-0.3242 2.1058-0.2341 0.2192-0.6387 0.2576-0.9382 0.3153-0.7306 0.1406-1.4674 0.2637-2.213 0.2829-0.8764 0.0227-3.3571-0.1336-3.3668-1.4376 0.87461 0.131 2.7184 0.8402 3.1724-0.2777 0.4364-1.0708 1.4904-0.9049 2.4259-1.2263 1.2925-0.4437 2.4454-1.2673 3.8678-1.2429 0.7747 0.014 1.3225 0.2813 1.9391 0.7014-0.1687 0.4306-1.3799 0.0664-1.8455 0.0524-0.5742-0.0166 0.5857 0.0174 0 0zm8.8848-0.7564c1.0337 0.2646 2.0072 0.7083 3.0099 1.0638 0.682 0.242 2.1547 0.1913 2.5823 0.8612 0.3022 0.4734 0.6626 1.0595 1.2634 1.1809 0.7747 0.1563 1.6202-0.2324 2.3331-0.4734-0.4408 1.4079-2.2854 1.7066-3.5708 1.5345-1.1415-0.1545-3.2988 0.0638-3.1637-1.5127 0.1423-1.6464-1.3728-2.1285-2.8261-1.9189-0.4046 0.0577-0.811 0.0952-1.2183 0.131-0.3472 0.0315-1.0469 0.0542-0.4355-0.3773 0.5848-0.4122 1.3075-0.6716 2.0257-0.4891 1.1299 0.2882-0.8119-0.2061 0 0zm-17.596-28.238c0.43904 0.2542 0.87904 0.5084 1.3181 0.7625 0.3339 0.1939 0.5442 0.0516 0.1864-0.1921-0.2165-0.1476-0.4373-0.2882-0.6503-0.4393-0.79594-0.56776-1.2262-1.1084-2.258-1.2438 0.03357 0.19128 0.18022 0.42885-0.03975 0.50396-0.13075-0.32753-0.26062-0.65506-0.39137-0.98259 0.31627 0.03319 0.53448 0.28997 0.82867 0.37906 0.11308 0.03669 0.2244 0.03057 0.33394-0.01834 0.32865-0.14848 0.30568 0.02009 0.56364 0.27862 0.63871 0.64196 1.3808 1.1844 2.2289 1.5241-0.1652-0.96858-1.3048-1.2254-1.7598-2.0132 0.7209 0.23931 1.031 1.1538 1.9109 0.95551-0.3737-0.40089-0.7474-0.80179-1.1211-1.2018-0.197-0.21224-0.95589-0.81577-0.7386-1.0254 0.4965 0.49261 0.9294 1.0455 1.4418 1.5224 0.4161 0.38692 1.6415 1.2297 0.7669 0.15546-0.2686-0.32927-0.5363-0.65942-0.8049-0.9887-0.1705-0.20962-0.72-0.64807-0.4761-0.84459 0.5141 0.61751 1.0283 1.2359 1.5416 1.8534 0.0653-0.28036 0.1298-0.55985 0.1952-0.84022-0.0795 1.0822 0.3251 1.8962 1.3437 2.3364 0.0089-0.5957-0.6705-0.84634-0.727-1.4114 0.1554 0.24631 0.3118 0.49173 0.4664 0.73804 0.1096-0.22185 0.2191-0.4437 0.3287-0.66642 0.3339 0.32841 0.6678 0.65772 1.0027 0.98612-0.1423 0.2113-0.7624-0.0821-0.9921-0.145 0.1272 0.338 0.2535 0.676 0.3807 1.014 0.1387 0.3695-0.379 0.4708-0.6935 0.6393 0.2624 0.1118 0.5248 0.2236 0.7872 0.3363-0.0734 0.1782-0.6193 0.0035-0.8013-0.0227-0.0963 0.2664 0.3083 0.4454 0.5106 0.6105-0.0883 0.1118-0.3825-0.0471-0.5009-0.0821-0.3728-0.1092-0.2853 0.0524-0.3852 0.366 0.2032 0.0314 0.4073 0.062 0.6114 0.0934-8e-3 0.104-1.9604 0.1817-2.2033 0.0682-0.8102-0.3817-1.6203-0.7643-2.4304-1.1468 0.71211 0.0131 1.3154 0.6105 2.0134 0.1554-0.6414-0.3092-1.3385-0.5686-1.9436-0.9415-0.6617-0.407-1.1052-0.6027-1.8049-0.1066 0.288 0.2507 0.57512 0.5005 0.86312 0.7512-0.12545 0.1319-1.531-0.7547-0.90288-1.0202 0.41611-0.1764 0.7633-0.1257 0.53537-0.717 0.96826 0.7843 2.092 1.3337 3.2679 1.7415-0.2597-0.9004-1.3561-0.9747-1.8022-1.7215 0.52744 0.3057 0.44794 0.7494 0 0zm3.6901-2.6211c-0.1157-0.30569 0.3949-0.8114 0.3605-0.13975-0.0177 0.34762 0.2261 0.67777 0.4434 0.92844 0.4029 0.46553 0.7192-1.0673 0.8711-1.3031 0.4232-0.65593 0.0583-0.86904-0.151-1.5092-0.2059-0.62886 0.4673-1.1241 0.9797-1.3127-0.1458 0.6044-0.6909 1.4245-0.3207 2.0412 0.3401 0.56684 1.2686 0.86293 1.8376 1.1066-0.4435 0.17381-1.3508 0.43584-1.2616 1.0839 0.0919 0.66816 0.6582 0.40526 1.1361 0.30656-0.5786 0.36072-0.8825 0.46903-1.5054 0.16071-0.3207 1.0192 1.1414 0.87516 1.6644 1.4201 0.6441-1.3555 1.888-0.2768 1.7334 0.8734-0.0822 0.6132-0.6679 0.8944-1.2316 0.8289-0.439-0.0515-0.4514 0.159-0.5115 0.5494-1.1635-0.2987-1.1043-1.2638-1.6503-2.1381-0.3056-0.4909-1.106-2.2325-1.7845-1.6342-0.2076-0.41749-0.4444-0.82537-0.6096-1.2621-0.0459-0.12228 0.1528 0.40264 0 0zm18.446-0.09608c-0.1237 0.32317-0.2907 0.98871-0.6202 1.1835-0.1749 0.10393-0.3269-0.06638-0.4965 0.04017-0.2942 0.18517-0.5027 0.52667-0.7059 0.79568-0.4382 0.57991-0.7129 1.1145-0.9453 1.7966-0.1864 0.5476-0.5071 1.0105-1.061 1.2437-0.1078-0.5747-0.4046-0.3223-0.834-0.3458-0.5671-0.0324-0.985-0.7512-1.0389-1.2446-0.1316-1.2054 1.0902-1.8796 1.6096-0.6036 0.6105-0.49782 1.9692-0.372 1.691-1.4481-0.4488 0.40439-0.963 0.23844-1.4047-0.07686 0.4744 0.07162 1.3154 0.18516 0.9806-0.62973-0.2279-0.55549-0.8101-0.70746-1.3605-0.75201 0.644-0.29696 1.6238-0.55549 2.0072-1.2044 0.3666-0.61925-0.091-1.4237-0.3145-2.0106 0.455 0.12053 1.0142 0.37382 1.0124 0.91708-0.0018 0.69785-0.6166 1.0577-0.1952 1.7896 0.1404 0.24281 0.409 0.46727 0.4938 0.73803 0.0504 0.16246-0.2306 0.58344 0.0433 0.6603 0.6856 0.19215 0.9691-0.66379 0.7112-1.1529 0.2756-0.04455 0.5707-0.069 0.4276 0.30394zm4.9517 10.624c0.235-0.2602 0.47-0.5214 0.705-0.7817 0.2862 0.1136 0.0344 1.0682-0.0036 1.3626-0.1404 1.0856-0.3366 2.1634-0.5627 3.2351-0.455 2.1529-1.031 4.2779-1.5328 6.4195-1.0849-0.607-1.0875-1.3275-1.1025-2.4638-0.0168-1.256 0.8207-2.2543 1.1096-3.4404 0.1183-0.4865 0.1687-1.1224 0.4673-1.5425 0.159-0.2236 0.8331-0.3179 0.7288-0.6865-0.0485-0.1703-0.166-0.3327-0.2562-0.4821 0.1953-0.1616 0.4011-0.3258 0.5637-0.5205 0.3092-0.3721 0.0972-0.7372-0.1166-1.0997 0.2394-0.2655 0.4523 0.7686 0 0zm-28.547 0.2874c-0.22175 0.3293-0.10248 0.6446 0.14841 0.9171 0.21556 0.2332 0.43554 0.234 0.32246 0.5642-0.0424 0.1258-0.10071 0.2742-0.08481 0.4105 0.03269 0.2856 0.51682 0.4105 0.72708 0.5022 0.46027 0.1991 0.56805 1.1057 0.70855 1.5267 0.1811 0.5415 0.3092 1.0804 0.6246 1.5556 0.3101 0.4664 0.4417 1.0114 0.4664 1.5634 0.0248 0.5467-0.0406 1.0917-0.0733 1.6368-0.0406 0.6838-0.5044 0.9406-0.9091 1.4472-0.78623-3.5792-1.8658-7.1131-2.2104-10.773 0.3419 0.1354 0.51682 0.2979 0.28006 0.649-0.27917 0.4149 0.26856-0.3983 0 0zm-0.38342 10.307c0.55304-0.6585-0.04152-1.4245-0.2403-2.1049 0.52212-0.0245 0.86755-0.1773 1.2739 0.2437 0.34454 0.3563 0.51505 0.8533 0.54155 1.3389 0.01944 0.3494-0.34012 1.3171-0.08393 1.5014 0.57689-0.3633 1.1538-0.7275 1.7298-1.0909 0.1025 1.6359 0.0354 3.2919 0.0363 4.9313 0 0.4201 0.1077 1.0158-0.0398 1.4272-0.1113 0.3109-0.7227 0.207-0.9647 0.2087 0.3631-0.8743 1.7845-3.5574 0.1228-4.0151-0.34457-0.0943-1.3888 0.1144-1.5072-0.3319-0.09895-0.3729 0.11043-0.6707-0.19966-0.9992-0.30567-0.3231-0.73503-0.4576-1.1396-0.6122 0.15726-0.166 0.32511-0.3223 0.47088-0.497 0.35868-0.4262-0.12192 0.1459 0 0zm17.717-1.2525c-1.0433 0.2516-1.7156 0.021-2.7237-0.1371-0.9832-0.1563-1.8225 0.7293-2.7899 0.193-0.2597-0.1441-0.5822-0.1065-0.849-0.2253-0.2986-0.1328-0.1643-0.9651-0.1307-1.2105 0.0512-0.373 0.6687-0.2254 0.8499-0.1136 0.2411 0.1502 0.3357 0.5276 0.5442 0.7704 0.0883-0.0909 0.3533-0.2254 0.3489-0.3791-0.0053-0.1817 0.0256-0.3922 0.2059-0.4874 0.2473-0.1301 0.8004-0.1353 1.0442 0.0062 0.1731 0.1004 0.2023 0.3109 0.197 0.4908-0.0044 0.1511 0.2703 0.283 0.3587 0.3695 0.2253-0.2446 0.3057-0.8027 0.6069-0.9014 0.2536-0.0838 0.7721-0.0969 0.9983 0.0699 0.1802 0.1327 0.1687 1.0734 0.6299 0.752 0.303-0.2105 0.1776-0.6883 0.515-0.8577 0.5336-0.269 0.736 0.4725 0.9073 0.7808-0.2385 0.0952-0.0583 0.3092-0.1448 0.5276-0.0884 0.2218-0.3578 0.3013-0.5681 0.3519-0.841 0.2027 0.5954-0.1432 0 0zm-2.7758 12.985c0.3905-0.7074 0.6847-1.6306 1.3031-2.1844 0.5318-0.4768 1.3057-0.4305 1.9683-0.5284-0.4894 0.2219-1.1679 0.3948-1.5451 0.7948-0.3481 0.3704-0.2598 0.8935-0.2606 1.3564-9e-4 0.3974 0.1599 1.1975-0.0813 1.5399-0.2394 0.3406-1.3667 0.1353-1.7316 0.1284-0.4797-0.0096-1.1264 0.1458-1.3384-0.3861-0.182-0.4585-0.0804-1.1363-0.0521-1.6175 0.0742-1.2473-1.1008-1.4814-2.0611-1.8001 1.8349-0.0848 3.1769 1.0515 3.7988 2.697 0.402-0.7275-0.6908-1.8297 0 0zm-0.2023-29.126c-0.2429-0.4795-0.4859-0.959-0.728-1.4376-0.0962-0.18953-0.1917-0.37906-0.288-0.56859-0.2076-0.40963-0.0441-0.34587 0.2969-0.56335-0.1953-0.21835-0.3896-0.43671-0.5849-0.65506 0.1096-0.28298 0.22-0.56597 0.3296-0.84895-0.25-0.03931-0.5001-0.07949-0.751-0.11966 0.4373-0.34063 1.0089-1.0446 1.5991-1.0953 0.7536-0.06463 1.3234 0.56422 1.8676 0.97473-0.5893 0.22621-0.7819 0.22272-0.5151 0.9031 0.1688 0.4306-0.1811 0.31356-0.3931 0.64109-0.1316 0.20438 0.1546 0.49784 0.3189 0.51444-0.3843 0.75113-0.7686 1.504-1.152 2.2551-0.3914-0.7721 0.3949-0.773 0 0zm13.602 17.647c-0.1661-0.6682 0.2156-3.0666 1.4321-2.3626 0.3631 0.2105-0.3101 0.8-0.3923 1.0673-0.182 0.5896 0.2492 1.1547 0.6025 1.5844-0.8949 0.2428-1.5283 0.7764-1.2235 1.7599-0.8526 0.1607-1.8394-0.1607-2.2899 0.807v-3.3565c0.4355 0.2935 0.8711 0.5878 1.3066 0.8813 0.6122 0.4131 0.7527 0.3799 0.5645-0.3808-0.2306-0.9293 0.0513 0.2078 0 0zm5.0392-20.582c0.1069 0.43933-1.2828 1.5171-1.5717 1.8132-0.6917 0.7084-1.3923 1.408-2.1087 2.0927 0.606-0.7424 1.4462-1.573 0.2394-2.1852 0.9779-1.146 1.9568-2.2927 2.9348-3.4387 0.174 0.57121 0.3666 1.1381 0.5062 1.718 0.0265 0.11005-0.1281-0.53103 0 0zm-33.468 1.7338c-0.44879 0.1484-1.1768 0.1135-1.0707 0.7817-0.65816-0.6298-1.3234-1.2525-1.9692-1.8927-0.69615-0.69175-0.16167-1.5355 0.08923-2.3477 0.98328 1.1529 1.9674 2.3058 2.9507 3.4587-0.49915 0.165-0.99034-1.1608 0 0zm12.223 0.4279c0.1334 0.0813 0.2668 0.1625 0.4011 0.2437 0.0185-0.2978 0.0371-0.5956 0.0556-0.89348 0.2571 0.18608 0.9073 0.49438 0.8755 0.80528-0.0397 0.3861 0.0901 0.7363 0.4135 0.9721 0.03-0.1319 0.045-0.6184 0.2208-0.6018-0.0265 0.435-0.053 0.8691-0.0786 1.3032-0.0292 0.4821 0.0795 0.6314-0.4002 0.7476 0.0875-0.5904 0.2058-1.0988-0.2739-1.5713-0.0265 0.3075 0.0318 1.4717-0.2518 1.5827-0.4046 0.158-0.6537-0.1302-0.8074-0.4787-0.0822 0.1869-0.1643 0.3747-0.2465 0.5625 0.0159-0.2821 0.1767-0.6289 0.0345-0.9005-0.2713-0.517-0.781 0.0428-1.0946 0.2428-0.1723 0.1092-0.3455 0.2192-0.5177 0.3293-0.349 0.2218-0.4753 0.0314-0.1661-0.1039 0.394-0.1712 0.7924-0.3905 1.0698-0.7232 1.0487-1.2595-0.4072-3.1513-1.0248-4.2474 0.4568 0.59567 0.9082 1.2001 1.1927 1.8979 0.1608 0.3957 0.2641 0.8123 0.2951 1.2376 0.0415 0.5704 0.0839 0.7319 0.371 1.2272 0.3657-0.5643 0.2306-1.0796-0.068-1.6316 0.1095 0.0664 0.2738 0.5057 0 0zm5.7406 0.5416c0.0097 0.9983 0.7845 1.4839 1.6423 1.7904-0.2173 0.297-0.523-0.062-0.7986-0.2244-0.3251-0.1922-0.6502-0.3834-0.9762-0.5756-0.6273 0.1293-0.2536 0.7092-0.2491 1.1223-0.1979-0.3642-0.2642-0.2262-0.645-0.0891-0.3525 0.1267-0.6678 0.1363-1.0398 0.09-0.5194-0.0655-0.3224-0.483-0.3224-0.9407v-1.2061c0.3578 1.1581 0.5159-0.1328 0.6608-0.6909 0.0565 0.0795 0.1131 0.159 0.1687 0.2384 0.2209-0.2908 0.4417-0.5817 0.6626-0.8725v1.1215c0.1661-0.1249 0.3313-0.249 0.4974-0.3739-0.2553 0.6228-0.4983 1.0333-0.1016 1.6193 0.0972-0.1546 0.3772-0.3816 0.3525-0.5895-0.0442-0.3712-0.0186-0.7485 0.0654-1.1127 0.121-0.52321 0.3595-1.0027 0.6228-1.4682-0.4338 0.60178-0.5469 1.4437-0.5398 2.1617 0.0106 1.062-0.0088-0.897 0 0zm5.6019 26.659c0.7183-0.0105 0.6485 0.9607 0.7607 1.4857-1.4771-0.2236-2.8191-1.0752-4.2556-1.4805 1.1644 0 2.3297 0.0105 3.4949-0.0052 0.4046-0.0061-1.1635 0.0157 0 0zm-18.171 1.6062c0.1705-0.8394 0.099-1.5783 1.1379-1.594 0.993-0.0148 1.9869-7e-3 2.9799-7e-3 -1.3729 0.5345-2.7458 1.0682-4.1178 1.601 0.1105-0.5441 1.5072-0.5861 0 0zm9.8796-36.393c-0.106 0.65942-0.2111 1.3188-0.3163 1.9792-0.2058 1.2909-0.3966 0.14062-0.4885-0.49086-0.0857-0.5913-0.3242-1.2106 0.0062-1.6892 0.1236-0.17905 0.0812-0.39653 0.0521-0.59304-0.0486-0.32928 0.0777-0.5354 0.1846-0.83586 0.3366 0.24456 0.6661 0.32578 0.4197 0.73105-0.2147 0.35373-0.1697 0.62187 0.1422 0.89874-0.1449 0.90485-0.4347-0.38518 0 0zm14.833 5.3068c-0.2747-1-0.75-0.49697-1.4356-0.0131 0.5787-0.79305 1.1574-1.5852 1.7351-2.3774 0.6971 0.9197 0.6891 1.7128-0.2995 2.3905-0.2341-0.85245 1.0142-0.69523 0 0zm-30.522-2.3739c0.51859 0.71882 1.1679 1.3477 1.2695 2.2717-0.25266-0.17904-0.53095-0.51793-0.87814-0.47601-0.39313 0.04717-0.54067 0.18342-0.80394-0.18079-0.3896-0.53977 0.06538-1.1887 0.41257-1.6149 0.50003 0.69349-0.73326 0.89962 0 0zm21.121 14.1c-0.0344 0.3825 0.3446 0.8498-0.1166 1.1127-0.1661 0.0943-0.8384 0.3843-1.0107 0.2306-0.0459-0.0926-0.0733-0.1913-0.0812-0.2952-0.0645-0.1834-0.3243-0.2647-0.4656-0.3695 0.3702-0.6315 0.9612-0.8978 1.6741-0.6786-0.0362 0.4052-0.7447-0.2289 0 0zm7.4448-1.9757c0.3702 0.138 0.7545 0.8018 0.2836 1.0385-0.5893 0.2961-0.5831 0.6254-0.1255 1.0691-0.5857 0.1764-1.1316 0.3109-0.3321-0.1485-0.3896-0.2123-0.7801-0.4254-1.1706-0.6367 0.4126-0.104 1.6273-0.2123 1.7333-0.6079-0.6811-0.518-1.0716-0.6918-1.9197-0.828 0.0521-0.3118 1.243 7e-3 1.531 0.1135 0.2421 0.0909-0.4691-0.1747 0 0zm-4.8174-11.629c-0.1149-0.10481-0.2253-0.21399-0.3313-0.32753-0.0663 0.20088-0.0866 0.60876-0.3066 0.60178 0.0371-0.53628 0.1644-1.0036 0.349-1.511 0.1634-0.45156 0.5919-0.25417 0.97-0.20613-0.0919 0.57034-1.0345 1.4813-0.0459 1.6909-0.212 0.29871-0.4144-0.05939-0.6352-0.24804-0.1175-0.10045 0.1678 0.14324 0 0zm-23.116 6.9209c0.1758 0.1302 0.93998 0.5643 0.8375 0.7512-0.41787-0.2385-0.83574-0.4769-1.2536-0.7154 0.10425-0.5292 1.0442-0.1266 0.77125-0.7642 0.88345 0.2454 1.7678 0.4909 2.6512 0.7372-1.0584 0.1493-1.9833-0.6656-3.0063-0.0088 0.31892 0.2367 1.1105-0.7127 0 0zm6.5719-7.3882c-0.1899 0.22883-0.5893 0.93455-0.8834 0.81053 1.1493-0.31268-0.8243-1.5887 0.068-1.7765 0.4991-0.10481 0.5292-0.12228 0.6811 0.32229 0.1696 0.49435 0.3101 0.97996 0.4232 1.4892-0.2209 0.03843-0.2491-0.64545-0.2889-0.84546-0.3207 0.38518 0.0742 0.37295 0 0zm22.729 7.3996c-0.9877-0.7922-1.9895 0.1834-3.0559-0.0018 0.8959-0.2524 1.7908-0.5057 2.6866-0.7581-0.1113 0.4909 0.4276 0.5171 0.8534 0.6979-0.3613 0.2271-0.7218 0.455-1.0831 0.6821-0.2977 0.1878-0.3392 0.0367-0.0636-0.1572 0.2217-0.1546 0.4426-0.3092 0.6626-0.4629-1.046-0.8394-0.303 0.2122 0 0zm-7.1895 8.4048c-0.1493 0 0.4161 7.01 0 7.1332v-7.1332c0.0186 0 0 2.3783 0 0zm-3.9004-14.726c-0.6387-0.01921-0.0398-2.7556-0.3967-2.8115 0.1131-0.14586 0.2262-0.29084 0.3402-0.4367 0.5645 0.74414 0.1236 2.3259 0.0565 3.2482-0.0424-8.7e-4 0.068-0.92756 0 0zm-7.5093-1.8997c-0.0415-0.21748 0.2836-0.32752 0.25-0.58169-0.0371-0.15896-0.1201-0.29172-0.2482-0.3974 0.1254-0.12926 0.2509-0.2594 0.3754-0.38867 0.4674 0.60091 0.1767 1.6132 0.1299 2.3547-0.0177 0.27076-0.0671 1.1669-0.2394 0.33452-0.091-0.43933-0.182-0.87953-0.2677-1.3215-0.0097-0.05153 0.1069 0.552 0 0zm-9.7568 10.78c-0.31362-0.055-0.71912-0.1328-0.87726-0.4472-0.19701-0.3922 0.33218-0.5703 0.57071-0.78-0.13164-0.0925-0.26415-0.186-0.39667-0.2786 0.88256 0.0926 1.7651 0.1852 2.6477 0.2786-0.96295 0.0926-1.9356-0.0262-2.7502 0.6036 0.26857 0.2078 0.53802 0.4148 0.8057 0.6236-0.42493-0.0751-0.25266-0.1965 0 0zm28.262-0.6359c-0.8101-0.4952-1.735-0.5851-2.6662-0.5808 0.8393-0.1004 1.6785-0.2009 2.5187-0.3013-0.1838 0.1127-0.3684 0.2262-0.553 0.3389 0.2756 0.1153 0.9594 0.2882 0.7633 0.6192-0.1158 0.1957-0.7642 0.7826-0.9224 0.5258 0.2872-0.2 0.5734-0.4009 0.8596-0.6018-0.8746-0.5354-0.3313 0.2324 0 0zm-8.6895-10.369c-0.3481-0.26377 0.121-1.0376 0.439-0.41661 0.258 0.50483 0.7845 1.5695-0.0477 1.8211-0.0044-0.51357 0.076-1.0507-0.3913-1.4044-0.1105-0.08472 0.4982 0.37732 0 0zm-12.556 0.60178c0.243-0.55024 0.2439-0.91096 0.8013-1.1791 0.1237 0.47339 0.1007 0.55374-0.2288 0.8935-0.3083 0.31879-0.2094 0.79044-0.159 1.1817-0.3657-0.19739-0.5981-0.48124-0.4135-0.89612 0.1396-0.31617-0.1802 0.40439 0 0zm4.776 19.884c0.1475-0.2245 0.3869-0.4402 0.6714-0.2987 0.5477 0.2725 0.4982 0.179 1.0795 0.0899 0.3508-0.0541 0.6626 0.29 0.993 0.1485 0.425-0.1825 0.6396-0.4638 0.9868 0.0603h-3.7307c0.2685-0.407 1.2642 0 0 0zm-4.1938-16.915c0.2951-1.2359 1.4595-0.0952 1.9436 0.27076-0.4444 0.19826-1.4586-0.18342-1.9436-0.27076 0.0972-0.40614 0.6255 0.11267 0 0zm3.5038 1.1136c-0.2279-0.27163-0.4559-0.54326-0.6829-0.81489 0.318 0.14498 0.6078 0.06463 0.8658-0.14761 0.2968-0.24281 0.4496-0.01485 0.7659 0.16595-0.432 0.05066-0.4921 0.29783-0.2739 0.64982-0.4223-0.15809-0.4744-0.27862-0.6749 0.14673-0.2465-0.29259 0.0627-0.13363 0 0zm6.8219-0.78432c0.4488-0.63148 1.3234-1.4979 1.8579-0.33714-0.6193 0.11267-1.2386 0.22447-1.8579 0.33714 0.2439-0.34326 0.6034-0.11005 0 0zm-1.7262 0.87341c0.0088-0.19128 0.0177-0.38256 0.0265-0.57296-0.1396 0.08647-0.2783 0.17206-0.4179 0.25766-0.1396-0.26989-0.4417-0.53977-0.1449-0.73367 0.3093-0.20263 0.8959 0.09433 1.2466 0.18953-0.2368 0.28735-0.4735 0.57383-0.7103 0.85944 0.0124-0.25766 0.2977-0.35898 0 0zm10.044 25.484c-0.2695 0.0253-0.7492 0.1327-0.8349-0.2262-0.1298-0.5494-0.0327-1.2027-0.0327-1.7617 0.2898 0.6629 0.5787 1.325 0.8676 1.9879-0.819 0.0777-0.2907-0.6673 0 0zm-24.788-28.143c-0.2624 0.05241-0.46737-1.5713-0.53362-1.8918 0.23142-0.08472 1.1599 1.0892 1.023 1.2525-0.1997-0.18167-0.4718-0.58781-0.743-0.49261 0.084 0.37732 0.1688 0.75463 0.2536 1.1319-0.0468 0.00961-0.0848-0.37731 0 0zm24.027-0.6009c-0.1572-0.12053 0.6538-1.3328 0.91-1.3092-0.0424 0.32054-0.0857 0.64109-0.1281 0.9625-0.0371 0.28386 0.0318 0.98521-0.3066 0.93717 0.0857-0.41749 0.1714-0.83411 0.258-1.2516-0.2111-0.07598-0.5866 0.49959-0.7333 0.66118-0.0326-0.02533 0.2112-0.23321 0 0zm-25.42 0.77908c0.03622 0.27076 0.07245 0.54064 0.10867 0.8114-0.27299 0.04716-0.28447-0.6769-0.33306-0.91621-0.05566-0.26726-0.27829-0.58781 0.04682-0.67427 0.2456 0.3415 0.49208 0.683 0.73768 1.0236-0.13164 0.10307-0.43201-0.16769-0.56011-0.24455 0.04418 0.33713 0.23412 0.14149 0 0zm27.315 0.7817c-0.0486-0.00786-0.0972-0.01572-0.1457-0.02358 0.0432-0.20962 0.2579-0.7031 0.0494-0.80965-0.1855 0.15896-0.8074 0.68388-0.3436 0.04541 0.1652-0.22708 0.4337-0.82974 0.7262-0.75724-0.0954 0.51444-0.1917 1.0298-0.2863 1.5451-0.0486-0.00786 0.0946-0.51531 0 0zm-13.733 16.053c0.1343 0.497 0.523 0.5887 0.9885 0.5538-0.0538 0.3799-0.5309 0.1292-0.7836 0.041-0.3869-0.1336-0.5883 0.1904-0.9603 0.1476-0.5194-0.0603 0.0628-0.1834 0.2412-0.2009 0.3207-0.0314 0.4806-0.2253 0.5142-0.5415 0.1546 0.5765-0.0734 0.6961 0 0zm-11.664-7.6956c-0.4452 0.2681-2.1582 0.2611-2.5964 0h2.5964zm24.013 5.7444c-0.1767 0.4795-0.341 0.9258-0.5054 1.3704-0.204-1.249-0.166-1.3555 0.5054-1.3704zm-31.68-14.447c-0.19082 0.63759-0.4161 1.3905-0.62106 2.0744-0.31627-0.83586 0.14754-1.5189 0.62106-2.0744zm38.964-0.04716c0.5884 0.4961 0.818 1.1293 0.6634 2.0403-0.2314-0.7127-0.4752-1.4612-0.6634-2.0403zm-23.169 0.36771c-0.083-0.03931-0.1501-0.09783-0.2023-0.17381 0.235-0.13713 1.645-0.22622 1.6812 0.03231-0.4921 0.04979-0.9841 0.10743-1.4789 0.1415-0.0627 0.00436 0.4939-0.03407 0 0zm-10.358 8.7681c-0.28888 0.3468 0.59898 0.5651 0.45763 0.8935-0.27122-0.1642-0.54332-0.3284-0.81454-0.4926-0.59632-0.3598 0.0053-0.3764 0.35691-0.4009-0.03268 0.0385-0.18287 0.0131 0 0zm22.493 11.593c-0.1961-0.4245-0.3728-0.8594-0.485-1.3145 0.3773 0.8603 0.7545 1.7215 1.1326 2.5818-0.1767-0.0244-0.5619-1.0821-0.6476-1.2673-0.1952-0.4227 0.1971 0.4262 0 0zm-28.016-18.254c-0.23323-0.0567 0.33041-1.856 0.4108-2.1783 0.31186 0.08472-0.0106 0.69436-0.08216 0.95988-0.10955 0.40613-0.2191 0.81227-0.32864 1.2184-0.04152-0.0096 0.1917-0.71093 0 0zm26.87 9.0189c0.2341-0.2979 0.5531 0.5118 0.144 0.8446-0.2491-0.2402-0.3799-0.5433-0.144-0.8446zm-3.934-11.45c0.0707-0.00437 0.4285 0.18254 0.2527 0.23931-0.4735 0.15896-1.1697-0.04542-1.6565-0.0952 0.0195-0.11442 1.2369-0.13538 1.4038-0.14411 0.0884-0.00524-0.4664 0.02533 0 0zm3.1018-3.9566c0.2809-0.3808 0.7942-0.18603 1.1821 0.48824-0.4002-0.16507-0.7943-0.3284-1.1821-0.48824zm-13.133 0.00874c-0.4055 0.1939-0.811 0.38779-1.2165 0.58169 0.3013-0.3974 0.5619-0.88389 1.2165-0.58169zm4.0135 21.068c0.1396-0.2437 0.2783-0.4874 0.4179-0.7311 0.1166 0.2437 0.2341 0.4883 0.3516 0.7311h-0.7695c0.1599-0.2804 0.2615 0 0 0zm4.6354-0.7538c0.1264 0.2446 0.2518 0.49 0.3773 0.7346h-0.7289c0.1166-0.2446 0.2341-0.49 0.3516-0.7346 0.1343 0.2621-0.1351 0.2821 0 0zm10.102-2.6805c-0.1652-0.1144-0.4426-0.1799-0.3392-0.3913 0.2368 0.1171 0.4735 0.2332 0.7094 0.3503-0.0344 0.2-0.5804 0.4367-0.6696 0.2489 0.1007-0.0699 0.1996-0.1389 0.2994-0.2079-0.1528-0.1057-0.1228 0.0847 0 0zm-2.2377 2.9382c-0.0778-0.0096-0.1546-0.0184-0.2324-0.028 0.0601-0.4183 0.1202-0.8358 0.1803-1.2533 0.0697 0.4175 0.212 0.8655 0.0521 1.2813-0.0778-0.0096 0.1563-0.407 0 0zm-21.591-10.3c-0.0345 0.2691-1.1034 0.0097-1.3809-0.0235 0.05478-0.2795 1.0946-0.0123 1.3809 0.0235-0.0062 0.0472-0.4506-0.0559 0 0zm18.737 17.044c0.3392-0.4175 0.4585-0.4201 0.8993 0h-0.8993zm4.7458-16.879c-0.0088-0.0541-0.0185-0.1074-0.0274-0.1616 0.4144-0.0602 0.8287-0.1214 1.2431-0.1816 0.0397 0.2524-0.9586 0.2995-1.2157 0.3432-0.0088-0.0533 0.4117-0.0699 0 0zm-23.784 8.0214c0.4735 0.1241 0.5124 0.2603 0.3622 1.1556-0.1316-0.4175-0.2412-0.7678-0.3622-1.1556zm-0.0203-0.5773c-1.1829-0.1616 0.0062-0.676 0.1387-0.5546-0.1687 0.2114-0.5257 0.2873-0.1387 0.5546-0.1758-0.0236-0.4329-0.2996 0 0zm15.337 3.8343h-1.0107c0.4267-0.6236 0.7033-0.0952 1.0107 0zm-5.7821 0c-0.3729 0.0201-0.6776 0.0367-0.9816 0.0541 0.2766-0.1956 0.5575-0.6515 0.9816-0.0541zm21.702-17.249c0.0972-0.02446 0.515 1.4176 0.4408 1.6263-0.1466-0.54239-0.2933-1.0839-0.4408-1.6263 0.0256-0.00611 0.144 0.53103 0 0zm-31.743 9.1987c-0.0115-0.0489-0.023-0.0978-0.0353-0.1467 0.2783-0.0637 0.5565-0.1284 0.8348-0.193 0.0301 0.2515-0.5769 0.2821-0.7995 0.3397-0.0115-0.0489 0.2721-0.0698 0 0zm21.478 4.4553c-0.0424-0.0192 0.3816-1.1642 0.5495-1.0848-0.1829 0.3616-0.3667 0.7232-0.5495 1.0848-0.0151-7e-3 0.1828-0.3616 0 0zm-10.194-15.776c0.0247 0.03494 0.0495 0.06988 0.0742 0.10481-0.1855 0.12228-0.8163 0.66467-0.9709 0.51182 0.2995-0.20525 0.599-0.4105 0.8967-0.61663 0.0247 0.03494-0.2986 0.20613 0 0zm13.709 11.168c-0.0062 0.041-0.0124 0.0821-0.0186 0.124-0.2199-0.0332-0.7067 0.0367-0.6829-0.2419 0.2333 0.0393 0.4674 0.0786 0.7015 0.1179-0.0062 0.041-0.2341-0.0393 0 0zm-13.242 3.6569c0.0018 0.0297 1.3411-0.0952 1.4559 0h-1.4559c0-0.0061 0.4859 0 0 0zm-11.638-2.194c-0.0398-0.2008 0.5044-0.2 0.6573-0.2314-0.015 0.2934-0.4126 0.2017-0.6573 0.2314-0.0062-0.0305 0.2164-0.0262 0 0zm14.299-12.105c-0.053 0.08734-0.7005-0.3581-0.8118-0.42448 0.2394-0.27338 0.5777 0.22709 0.8118 0.42448-0.0088 0.01485-0.2261-0.19128 0 0zm-14.306 9.0371c-0.0159-0.1362 0.6847-0.2585 0.7041-0.0323-0.235 0.0114-0.47 0.0219-0.7041 0.0323-0.0035-0.0297 0.2341-0.0104 0 0zm13.34 22.327c0.7863-0.8831 1.1114-2.7277 0.8119-3.8483-0.1802-0.6734-0.2244-1.3774-0.3021-2.0682-0.0689-0.6184-0.0035-1.4508-0.4665-1.8988-0.1148 0.3389 0.2032 1.6717-0.2297 1.6271-0.0786-0.6935 0.1281-1.5607-0.2562-2.1538-0.1961 0.3328-0.189 0.5494-0.189 0.9398-0.2156-0.428-0.2377-0.9206-0.4347-1.3608-0.2129 0.4306-0.2526 0.8149-0.3101 1.29-0.2738-0.0366-0.1343-0.3519-0.1396-0.5764-0.0079-0.3572-0.0477-0.3022-0.318-0.4585-0.2641 0.5572-0.5168 0.9991-0.5504 1.628-0.0318 0.5974-0.273 1.1075-0.3428 1.6883-0.03 0.2489 0.1122 0.5066 0.0424 0.7424-0.0803 0.2716-0.3056 0.5887-0.2676 0.8795 0.1298 0.9896 0.1899 2.4875 0.7756 3.3338 0.4559 0.656 1.6026 0.7713 2.1768 0.2359 0.7916-0.8883-0.0689 0.0646 0 0zm-0.1122-5.6222c0.2262 0.704 0.0274 1.1494-0.6193 1.4036 0.0645-0.5372 0.1193-1.0437 0.6193-1.4036zm-1.8552 0c0.5601 0.3433 0.6184 0.8411 0.5822 1.4403-0.5106-0.3747-0.6705-0.7721-0.5822-1.4403zm2.0938 2.9548c-0.0619 0.6672-0.2863 0.9563-0.9011 1.0987 0.1554-0.5389 0.2394-1.0402 0.9011-1.0987zm0.038-1.3643c-0.0707 0.5598-0.3075 0.9372-0.9321 1.1634 0.1131-0.6263 0.2686-1.0708 0.9321-1.1634zm-8e-3 2.7783c-0.0769 0.5162-0.303 0.8926-0.8861 1.0892 0.1122-0.8202 0.2792-1.0184 0.8861-1.0892zm-1.3402-5.7741c0.3949 0 0.2226 0.3354 0.2226 0.6542 0 0.3389 0.1838 0.9808-0.2226 0.9808v-1.635c0.0742 0 0 0.545 0 0zm-0.1025 6.7742c-0.5159-0.0324-0.7889-0.3765-0.8083-1.049 0.546 0.1956 0.8446 0.4909 0.8083 1.049zm-0.3047-1.2813c-0.2059-0.3389-0.4108-0.6769-0.6794-1.1197 0.735 0.1144 0.9515 0.4637 0.6794 1.1197zm-0.6732-2.4421c0.4011 0.0577 0.8013 0.186 0.8525 0.6376 0.1228 1.083-0.6803-0.3607-0.8525-0.6376 0.7447 0.1083 0.2677 0.4289 0 0zm10.56-22.765c0.5901 0.1703 1.3455-0.4122 1.4559-0.9782 0.0592-0.30482-0.5142-0.28648-0.6573-0.2472-0.3772 0.104-0.7103 0.4158-0.8225 0.7887 0.1926-0.0733 0.8658-0.4498 0.955-0.248-0.3392 0.1808-0.6784 0.3607-1.0168 0.5406 0.0283 0.048 0.0574 0.0961 0.0857 0.1441 0.5795 0.1668-0.0247-7e-3 0 0zm1.5469 0.6263c0.7209-0.3258-0.2624-0.6996-0.6423-0.6149-0.5919 0.1319-0.8843 0.6987-0.9965 1.242 0.5469-0.2044 1.1052-0.3861 1.6388-0.6271 0.121-0.0551-0.4921 0.2218 0 0zm-1.1414 0.062c-0.0636-0.249 0.7085-0.3188 0.9347-0.3773 0.0548 0.2873-0.6812 0.317-0.9347 0.3773-0.0106-0.042 0.3207-0.0769 0 0zm0.9011 0.8603c-0.182 0.0821-0.3631 0.1642-0.5451 0.2463 0.3013 0.1694 1.3773 0.0934 0.9047-0.3782-0.3932-0.393-0.8826-0.2646-1.3208-0.0166 0.3207 0.0489 0.6405 0.0987 0.9612 0.1485-0.265 0.1188-0.3693-0.0577 0 0zm-17.789 10.551c0-0.559-0.0769-1.1555 0.0724-1.7023 0.1263-0.4638 0.6405-0.8009 0.6511-1.2699 0.0247-1.0551-0.978-1.8237-0.9594-2.8849 0.0044-0.2175-0.2765-0.2419-0.4135-0.1904-0.2615 0.1004-0.2129 0.4376-0.2792 0.6533-0.1775 0.5747-0.4196 1.1284-0.6272 1.6927-0.2306 0.6245-0.2447 0.8577 0.1113 1.4044 0.3331 0.511 0.4435 1.1101 0.3993 1.7102-0.348-0.2804-0.6767-0.6228-0.7659-1.0735-0.1281-0.6454-0.0106-0.8044-0.6485-1.2096-0.962-0.6114-1.1626 0.8445-0.6784 1.3878 0.1325 0.1485 0.3807 0.1529 0.4593 0.3398 0.1016 0.2402 0.2359 0.4611 0.3269 0.7066 0.205 0.5511 0.2686 1.1398 0.2836 1.7232 0.0177 0.6865-0.3251 1.9757 0.6705 2.0709-0.6705 1.7415-1.3419 3.4831-2.0124 5.2247-0.0778 0.2026-0.1564 0.4061-0.235 0.6088 0.2102 0.1729 0.3339 0.1056 0.371-0.2018 0.258-0.4908 0.5168-0.98 0.7757-1.4699 0.4655-0.8822 0.9311-1.7643 1.3967-2.6456 0.1087 0.6323-0.0186 1.256-0.1184 1.8796-0.1246 0.7799-0.0786 1.3127 0.3976 1.9756 0.394 0.5485 0.8905-0.3729 1.0036-0.7109 0.212-0.6394-0.0071-1.3529-0.0654-2.001-0.0309-0.3389-0.0619-0.6769-0.0919-1.0167-0.0274-0.3057 0.0159-1.221 0.2668-0.4148 0.22 0.7074 0.3993 1.2935 0.8393 1.8918 0.2942 0.3991 0.6087 1.3415 1.1776 1.3642 0.7978 0.0324 0.2094-1.2035 0.0221-1.559-0.3437-0.6516-0.7324-1.2787-1.0778-1.9294-0.3419-0.6419-1.0398-1.5695-0.9585-2.325 0.0733-0.6874 0.5397-1.3529 0.8048-1.98 0.265-0.6245 0.4576-1.3459 0.9638-1.8324 0.493-0.4734 0.4276-1.028 0.4444-1.6464 0.0212-0.745-0.8799-0.0646-1.0884 0.1092-0.5345 0.4428-0.2553 0.8385-0.4815 1.3704-0.1166 0.2733-0.7103 1.9809-0.9364 1.9503 0-0.2262 0.0282 0.0044 0 0zm-0.4577 5.6859c-0.2005 0-0.1086-2.6613-0.1086-3.0386v-3.7137c0.2853 0.027 0.1086 6.0562 0.1086 6.7523-0.0362 0 0-2.2473 0 0zm0.2456-8.6931c-0.0565 0.3197-0.311 0.3337-0.485 0.138-0.2306-0.2585 0.0901-0.4585 0.2385-0.6576 0.0628 0.124 0.2757 0.3607 0.2465 0.5196-0.0221 0.1223 0.0221-0.1205 0 0zm1.3384 8.1053c-0.1669 0.0865-1.1131-1.9687-1.0645-1.994 0.3543 0.6638 0.7094 1.3293 1.0645 1.994-0.0291 0.0148-0.3551-0.6647 0 0zm-1.9965 2.5207c0.3542-0.1957 0.379-0.2367 0.7049-0.0062-0.363 0.2603-0.3569 0.2891-0.7049 0.0062 0.1342-0.0734 0.0971 0.0786 0 0zm2.9471-0.8237c-0.0547 0.0288-0.1095 0.0577-0.1643 0.0874-0.1131-0.2262-0.227-0.4525-0.3401-0.6769 0.1908-0.0839 0.4011 0.4297 0.5044 0.5895-0.0547 0.0288-0.136-0.2113 0 0zm-0.9709-7.8135c-0.1272-0.055 0.2801-0.8201 0.3437-0.966 0.1316 0.0576-0.2792 0.8184-0.3437 0.966-0.0221-0.0087 0.1361-0.3118 0 0zm-3.4657-0.4551c0.182-0.0934 0.4046 0.5599 0.4912 0.7267-0.1997 0.0804-0.4011-0.5511-0.4912-0.7267 0.0309-0.0157 0.1307 0.2551 0 0zm-0.1697-9.9892c-0.3304-0.0166-0.6599-0.0331-0.9903-0.0489 0.3189 0.5407 0.9303 0.4079 1.4586 0.4778-0.2076-0.9319-0.9047-1.2289-1.8102-0.8935 0.2836 0.3345 0.174 0.3817 0.5415 0.2218 0.2863-0.1249 0.5566 0.1468 0.8004 0.2428-0.3295-0.0166-0.3321-0.131 0 0zm-0.6378-1.2786c0.2889-0.0018 0.4885-0.0192 0.7633 0.0917 0.2438 0.0987 0.4223 0.3354 0.5707 0.0559-0.6334-0.4411-0.9188-0.697-1.6936-0.6577 0.0866 0.2087 0.1732 0.4175 0.2598 0.6262 0.0335-0.0384 0.0662-0.0768 0.0998-0.1161 0.1714-9e-4 -0.0336 0.0393 0 0zm-0.6732 2.2158c0.2898 0.3738 0.6105 0.5345 1.0054 0.1983-0.1767-0.0813-0.3534-0.1616-0.531-0.2428 0.2801-0.0393 0.5601-0.0778 0.8411-0.1171-0.4921-0.3441-0.9568-0.3546-1.3155 0.1616 0.3622 0.4664 0.3534-0.5083 0 0zm9.1552-2.1346c-0.3225 0.4079-0.2536 0.8245 0.2429 1.3337 0.1255-0.5241 0.2871-0.9905-0.2429-1.3337zm-0.0981 2.3669c0.3516-0.4157 0.1334-0.7397-0.1122-1.1153-0.3437 0.4384-0.2156 0.773 0.1122 1.1153zm3.3014 0.2079c0.3764-0.5406 0.2182-1.0525 0.0071-1.5896-0.4408 0.5957-0.4435 0.9188-0.0071 1.5896zm0.5469-1.2935c0.076-0.4944 0.1369-0.8909 0.2147-1.3975-0.6494 0.4664-0.7218 0.8883-0.2147 1.3975zm0.0883-0.1529c-0.0609 0.4743-0.1086 0.8376-0.1555 1.2001 0.6079-0.4594 0.6299-0.6551 0.1555-1.2001z" clip-rule="evenodd" fill="#fff" fill-rule="evenodd"/>
</svg>
