<svg width="104" height="29" viewBox="0 0 104 29" fill="none" xmlns="http://www.w3.org/2000/svg">
<path d="M0.0363159 14.2253V22.5748H2.47216V18.7432C3.18869 19.1877 4.02043 19.4412 4.90742 19.4412C7.59837 19.4412 9.77852 17.1042 9.77852 14.2212C9.77793 11.3382 7.59778 9 4.90683 9C4.01984 9 3.18869 9.25469 2.47216 9.69864V9H0.0363159V14.2159C0.0363159 14.2177 0.0363159 14.2189 0.0363159 14.2206C0.0363159 14.2224 0.0363159 14.2236 0.0363159 14.2253ZM4.90683 11.6106C6.25231 11.6106 7.34268 12.7797 7.34268 14.2212C7.34268 15.6627 6.25289 16.8312 4.90683 16.8312C3.56194 16.8312 2.47157 15.6627 2.47157 14.2212C2.47157 12.7797 3.56253 11.6106 4.90683 11.6106Z" fill="white"/>
<path d="M20.3785 11.6106C21.7239 11.6106 22.8137 12.7797 22.8137 14.2206C22.8137 15.6621 21.7239 16.8312 20.3785 16.8312C19.0436 16.8312 17.9602 15.681 17.9432 14.2548V18.7426C18.6597 19.1871 19.4903 19.4412 20.3785 19.4412C23.0529 19.4412 25.2249 17.1301 25.2496 14.2696V14.1723C25.2249 11.3123 23.0529 9 20.3785 9C19.4909 9 18.6597 9.25469 17.9432 9.69864V14.1864C17.9602 12.7603 19.0436 11.6106 20.3785 11.6106Z" fill="white"/>
<path d="M15.5079 22.5742H17.9432V18.7438V18.7432V14.2554V14.2206V14.187V9.69923V9H15.5079V14.164L15.5074 14.1723V14.2696L15.5079 14.2778V22.5742Z" fill="white"/>
<path d="M37.6292 18.7432V19.4412H40.0662V14.2212C40.0662 15.4186 39.6889 16.5199 39.0564 17.4008C39.6883 16.5199 40.0662 15.418 40.0662 14.2206V9H37.6292V9.69805C36.9127 9.25469 36.0815 9 35.1946 9C32.5042 9 30.324 11.3376 30.324 14.2206C30.324 17.1036 32.5042 19.4407 35.1946 19.4407C36.0815 19.4412 36.9127 19.1877 37.6292 18.7432ZM39.9581 13.1818C39.7512 12.0917 39.2333 11.1266 38.5003 10.3979C39.2333 11.1266 39.7518 12.0917 39.9581 13.1818ZM40.0269 13.6063C40.0233 13.5745 40.0251 13.5409 40.021 13.509C40.0251 13.5409 40.0233 13.5745 40.0269 13.6063ZM32.7587 14.2212C32.7587 12.7797 33.8491 11.6106 35.194 11.6106C36.5377 11.6106 37.6263 12.7768 37.6292 14.2153V14.2277C37.6263 15.6662 36.5377 16.8318 35.194 16.8318C33.8497 16.8312 32.7587 15.6627 32.7587 14.2212Z" fill="white"/>
<path d="M53.3388 11.61V19.4412H55.7758V9H55.7746V9.00059H53.3388V9H48.9556V9.00059H46.5209V11.6094V11.61V19.4412H48.9556V11.61V11.6094H53.3388V11.61Z" fill="white"/>
<path d="M62.2293 19.4412H64.6657V11.6094H64.6651V9.0006H62.2287V11.61H62.2293V19.4412Z" fill="white"/>
<path d="M69.0489 11.61V19.4412H71.4842V11.61V11.6094V9.00059H69.0489V9H64.6657V11.6094H69.0489V11.61Z" fill="white"/>
<path d="M88.587 12.8115L86.7895 14.6149L84.9915 16.4184H88.587V12.8115Z" fill="white"/>
<path d="M89.0338 20.72L90.8318 22.5235L92.6287 20.72L94.4268 22.5235L96.2249 20.72L98.0224 18.9171L99.8205 17.1136H96.2249H92.6287H89.0338H85.4382H81.8432H78.2476L80.0451 18.9171L81.8432 20.72L83.6401 22.5235L85.4382 20.72L87.2363 22.5235L89.0338 20.72Z" fill="white"/>
<path d="M92.5359 21.622L90.7384 23.4249H94.3334L92.5359 21.622Z" fill="white"/>
<path d="M96.1309 21.622L94.3334 23.4249H97.929L96.1309 21.622Z" fill="white"/>
<path d="M87.1422 23.4249H90.7384L88.9403 21.622L87.1422 23.4249Z" fill="white"/>
<path d="M92.5359 25.2284H96.1309L94.3334 23.4249L92.5359 25.2284Z" fill="white"/>
<path d="M96.1309 25.2284H99.727L97.9289 23.4249L96.1309 25.2284Z" fill="white"/>
<path d="M88.9403 25.2284H92.5359L90.7384 23.4249L88.9403 25.2284Z" fill="white"/>
<path d="M94.5638 14.6221L96.3619 12.8186L98.1599 11.0157L96.3619 9.21277L94.5638 7.40928L92.7669 5.60639L90.9688 3.80349L89.1713 2V5.60639V9.21277V12.8186V16.425H92.7669L94.5638 14.6221Z" fill="white"/>
<path d="M88.587 11.9177L88.5817 11.9118V8.31131L86.7837 10.1142L86.7866 10.1172L84.9915 11.9177V15.5235L86.7895 13.72L88.587 11.9177Z" fill="white"/>
</svg>
