<?xml version="1.0" encoding="UTF-8"?>
<svg fill="none" viewBox="0 0 27 29" xmlns="http://www.w3.org/2000/svg">
<path d="m6.9006 6.1104c0.23388 0.09933 0.46777 0.19809 0.70222 0.29741-0.14945 0.35871-0.86722-0.09592-0.70222-0.29741 0.23388 0.09933-0.02112 0.02554 0 0zm-6.4233 1.5285c-0.046667-0.39674 0.034445-0.88031 0.47944-0.98021 0 0.64648-0.15056 1.2992-0.2 1.9457-0.053889 0.70607-0.066667 1.4156-0.025556 2.1222 0.078333 1.3333 0.29833 2.9077 1.1544 3.9731 0.08055 0.097 0.15833 0.1963 0.23444 0.2968-0.13222 0.1181-0.27333 0.2265-0.39556 0.3559-0.185 0.1958-0.29777 0.4518-0.28944 0.7265 0.01444 0.4654 0.63444 0.945 0.08111 1.2566-0.43333 0.2435-0.78666 0.5341-0.84833 1.0676-0.061667 0.5352 0.19444 1.05 0.69666 1.2475 0.2 0.0789 0.98556 0.0636 0.93834 0.4184-0.03167 0.2361-0.22445 0.4103-0.25445 0.6527-0.03277 0.265 0.08334 0.5687 0.27334 0.7509 0.375 0.3604 0.82333-0.0925 1.1672 0.1492 0.32722 0.2299-0.22556 1.2828-0.29222 1.5654-0.14056 0.592-0.08167 1.1204 0.28777 1.612 0.10445 0.1396 0.39778 0.3422 0.39 0.5392-0.00888 0.2253-0.37611 0.4869-0.51222 0.6436-0.15278 0.1748-1.2228 1.1658-0.54166 1.285 0.35722 0.0624 1.1311-1.1601 1.35-1.4167 0.32111 0.5943-0.425 1.2044-0.745 1.6318-0.15945 0.2123-1.2639 1.3366-0.61556 1.4842 0.36556 0.0829 1.1072-1.2861 1.305-1.558 0.11444-0.1566 0.22333-0.3212 0.35278-0.466 0.17055-0.1895 0.26111 0.0017 0.45444 0.1062 0.33611 0.1816 0.70056 0.3048 1.0761 0.3683 0.66556 0.1124 1.3444 0.0386 2.0039-0.0811 0.15334-0.0279 0.93389-0.2685 0.96167-0.0954 0.04 0.2566-0.07722 0.5943 0.21056 0.7407 0.64833 0.3298 1.2816 0.4149 1.9866 0.5295 0.8122 0.1306 1.5228 0.4745 2.3672 0.4376 0.7273-0.0312 1.3839-0.4813 2.0878-0.4676 0.5717 0.0113 1.4322 0.0698 1.9428-0.231 0.1889-0.1113 0.3161-0.298 0.3694-0.5126 0.0339-0.1356 0.0189-0.2724 0.0478-0.4086 0.0489-0.2288 0.205-0.1027 0.3939-0.0687 0.7144 0.1277 1.4411 0.2628 2.1689 0.2038 0.2994-0.0244 0.5961-0.0829 0.88-0.1845 0.1794-0.0636 0.3528-0.1442 0.5178-0.2395 0.2516-0.1453 0.2666-0.323 0.4722-0.046 0.2622 0.3547 0.5255 0.7083 0.7872 1.0637 0.1967 0.2661 0.4183 0.7395 0.7061 0.9103 0.27 0.1601 0.2811-0.3133 0.2422-0.4478-0.0961-0.3309-0.455-0.6708-0.6611-0.9387-0.3083-0.4013-1.185-1.1426-0.8183-1.7079 0.2922 0.319 0.5889 0.6329 0.8739 0.9586 0.1133 0.13 0.2339 0.382 0.4078 0.436 0.1655 0.051 0.3827-0.1476 0.3316-0.3219-0.1477-0.5068-1.5816-1.2532-1.19-1.7856 0.5667-0.7685 0.8406-1.5506 0.4589-2.4871-0.0894-0.2185-0.4966-0.8735-0.1689-1.0529 0.3528-0.1935 0.7561 0.1828 1.1178-0.1271 0.3178-0.2724 0.3495-0.7515 0.1611-1.1062-0.1472-0.2776-0.2344-0.4671 0.1167-0.567 0.7905-0.2248 1.5033-0.3871 1.3933-1.4224-0.0344-0.3212-0.1839-0.6135-0.4355-0.8127-0.1595-0.126-0.6673-0.2594-0.6595-0.5188 0.0106-0.3457 0.3039-0.6306 0.3117-0.9967 0.0089-0.4171-0.2656-0.7503-0.5622-1.0046 1.0739-0.9694 1.3205-2.6171 1.4411-3.9991 0.0766-0.8821 0.0461-1.7595-0.0495-2.6382-0.0427-0.38993-0.1366-0.69529 0.3045-0.8071 0.16-0.04086 0.3216-0.07038 0.4822-0.10614v-0.47676c-0.2278-0.26563-0.4478-0.48074-0.5756-0.81732-0.1211-0.31897-0.0055-0.59765 5e-3 -0.92401 0.0217-0.65669-0.2805-1.2231-0.7922-1.6114-0.1933-0.147-0.5383-0.31614-0.5189-0.60844 0.0178-0.26903 0.3995-0.27868 0.5673-0.43136 0.2205-0.20093 0.3822-0.48585 0.5605-0.7248 0.1861-0.24917 0.5689-0.60447 0.5056-0.94615-0.5073 0.34281-1.1495 0.6686-1.5078 1.1851-0.4078 0.58744-0.9383 1.0983-1.4145 1.629-0.1033-0.2696-0.3705-0.69074-0.3294-0.98929 0.0406-0.29457 0.2939-0.28038 0.47-0.46712 0.3739-0.39673 0.8311-1.1936 0.9111-1.7226-0.4683 0.36609-0.9605 0.73559-1.3605 1.1817-0.1462 0.1629-0.0178 0.37006-0.1584 0.50798-0.2566 0.25201-0.5189 0.49947-0.7794 0.74751-0.0811-0.06641-0.125-0.39617-0.155-0.50061-0.3584 0.28549-0.575 0.5602-0.8345 0.93934 0.0561-0.48471 0.2873-1.2277 0.1556-1.7039-0.1967-0.71515-0.8206 0.45747-0.9728 0.67258-0.2811 0.39674-2.3522 2.952-1.9172 3.2817 0.1055-0.16176 0.2111-0.32352 0.3167-0.48528 0.1944 0.18049-0.33 0.74126-0.4739 0.95354 0.7522-0.19809 0.835-0.84002 0.8827-1.5472 0.0578 0.19638 0.1162 0.39219 0.1745 0.58858 0.1428-0.17879 0.865-1.2163 1.0017-1.1068-0.2267 0.29514-0.4528 0.58971-0.6795 0.88485-0.0817 0.10671-0.6672 0.80199-0.1889 0.50685 0.5595-0.34509 0.9606-0.88486 1.4028-1.3633-0.2517 0.59993-0.7956 0.99496-1.2367 1.4405 0.5484 0.10273 0.765-0.36836 1.2256-0.5165-0.3911 0.35304-0.86 0.69472-1.1311 1.1601 0.5689-0.14303 1.0311-0.51252 1.4361-0.92969 0.0811-0.08343 0.1605-0.16857 0.2389-0.25427 0.095 0.08059 0.2055 0.12032 0.325 0.07832 0.175-0.0613 0.3066-0.22476 0.5033-0.22646-0.0694 0.21057-0.1389 0.42171-0.2083 0.63228-0.145-0.04881-0.0239-0.22136 0.0083-0.34225-0.6578 0-1.0805 0.48528-1.5594 0.86953-0.1061 0.08514-0.2178 0.16517-0.3367 0.22987-0.2194 0.11919-0.0944 0.19808 0.1106 0.13281 0.3327-0.10613 0.5811-0.37857 0.9094-0.50174-0.3267 0.47847-0.9956 0.52615-1.1972 1.13 0.7555-0.22816 1.4294-0.64136 2.0722-1.0977-0.0328 0.08854-0.0656 0.17708-0.0983 0.26619 0.2327 0.06527 0.4661 0.13054 0.6994 0.19581-0.1589 0.14247-0.7011 0.76056-0.8433 0.60448 0.1872-0.16687 0.3744-0.33374 0.5616-0.50118-0.5194-0.27754-0.7183-0.15154-1.205 0.11806-0.4077 0.2259-0.83 0.41944-1.2361 0.65045 0.4906 0.20092 0.88-0.13793 1.3611-0.12374-0.4605 0.18617-0.8994 0.41434-1.3488 0.62548-0.4339 0.20319-1.0717 0.084-1.5389 0.084 0.0977-0.10103 0.195-0.20263 0.2927-0.30366-0.1111-0.147-0.3394-0.00397-0.5005 0.042 0.1361-0.13111 0.3672-0.24973 0.3067-0.44611-0.1073 0.01816-0.4195 0.126-0.4906 0.04029 0.1611-0.08854 0.3228-0.17651 0.4839-0.26506-0.1595-0.07548-0.3189-0.1504-0.4783-0.22532 0.0577-0.23555 0.115-0.47166 0.1727-0.70721h-0.4877c0.1405-0.18787 0.2811-0.37517 0.4216-0.56303 0.0278 0.18219 0.055 0.36438 0.0828 0.54601 0.1044-0.07265 0.1111-0.53126 0.1761-0.6845 0.1256-0.29628 0.3228-0.55226 0.5067-0.81164 0.1528-0.21682 0.3444-0.46825 0.3972-0.73558 0.0744-0.38085-0.2767-0.43817-0.5261-0.5585-0.0217-0.23895 0.6333-0.5568 0.2083-0.91323-0.2411-0.20206-0.5516-0.27642-0.7761-0.50401-0.2317-0.23498-0.4222-0.52672-0.7844-0.53637-0.5628-0.01589-1.2756 0.65556-0.9884 1.2453 0.2639 0.54261 0.4323 0.94502-0.3466 1.0568 0.0711-0.3519 0.1744-0.79631-0.2095-0.99837-0.2411-0.12714-0.0522-0.22079-0.0455-0.47336 5e-3 -0.18049-0.0661-0.35076-0.2228-0.44384-0.2661-0.15836-0.8-0.15098-0.9183 0.19922-0.0639 0.189 0.0144 0.40411-0.0745 0.5846-0.0955 0.19298-0.3005 0.36382-0.4161 0.56815-0.2128-0.12203-0.255-0.12998-0.1656-0.38312 0.0728-0.2066 0.1645-0.41376 0.2134-0.62774 0.0844-0.37006-0.0639-0.68336-0.3989-0.84853-0.1878-0.09308-0.3933-0.0386-0.3261-0.28095 0.0466-0.16744 0.125-0.38141 0.0216-0.54431-0.22-0.34622-0.6777-0.42966-0.9933-0.15495-0.2478 0.21568-0.1322 0.52842-0.0439 0.79915-0.2266 0.079457-0.5183 0.15155-0.68 0.34793-0.1666 0.20262-0.1228 0.51139-0.0844 0.7509 0.0772 0.48585 0.3572 0.82697-0.0606 1.1976 0-0.21341 0.0617-0.41774-0.0922-0.59483-0.0822-0.08343-0.1656-0.1663-0.25-0.24803 0.0139-0.14189 0.04-0.28209 0.0233-0.42512-0.0522-0.44498-0.5694-0.63001-0.93-0.40695-0.1844 0.11408-0.2477 0.33147-0.24 0.5409 0.0095 0.25144-0.1455 0.27868-0.245 0.47166-0.1133 0.22022-0.1011 0.51309-0.0766 0.75034 0.035 0.33941-0.27059 0.22476-0.4217 0.0386-0.38667-0.4762 0.3083-0.72764 0.2606-1.222-0.0462-0.46996-0.74227-0.96205-1.1895-0.85761-0.27611 0.06413-0.43278 0.27868-0.62222 0.47166-0.205 0.20886-0.45333 0.29457-0.68778 0.45406-0.46055 0.31387-0.12889 0.6669 0.04556 1.0409-0.49334 0.15438-0.565 0.46144-0.41278 0.9382-0.58222-0.81617-1.1689-1.6329-1.7061-2.4814-0.29111-0.45917-0.48278-0.02384-0.46722 0.28833 0.02388 0.49096 0.05833 0.97794 0.14333 1.4615-0.175-0.23612-0.46167-0.83718-0.75111-0.93537-0.20056-0.06982-0.15611 0.26222-0.35111 0.07321-0.11278-0.10954-0.24889-0.19638-0.34167-0.32692-0.07722-0.10841-0.105-0.23668-0.09-0.36949 0.01833-0.16347-0.37444-0.41661-0.46944-0.50288-0.33056-0.29855-0.63723-0.65272-1.0511-0.81561 0.27389 0.54885 0.55556 1.2634 1.0194 1.671 0.10389 0.09081 0.42889 0.33203 0.38222 0.50798-0.09 0.33601-0.23333 0.65442-0.35611 0.97851-0.325-0.35701-0.66944-0.68904-1.0006-1.0387-0.165-0.17481-0.22333-0.42171-0.35833-0.61582-0.175-0.25144-0.52444-0.4376-0.76778-0.61299-0.20777-0.14984-0.41444-0.32806-0.64222-0.44498-0.40444-0.20887 0.072778 0.38085 0.14444 0.48301 0.27889 0.39901 0.60111 1.0682 1.0578 1.2799 0.59111 0.27414 0.01945 0.6618-0.29777 0.95921-0.43223 0.40582-0.85278 0.84285-0.81667 1.4876 0.028333 0.50571 0.33444 0.91551-0.12278 1.3213-0.18 0.16006-0.39111 0.37234-0.39111 0.61696 0 0.39958 0.11667 0.34906 0.47722 0.44328-0.065-0.54771-0.17333-0.0454 0 0zm20.379 2.3061c0.6589 0.00398 1.3461 0.05955 1.9506-0.26392 0.1277 0.24179-0.6128 0.35017-0.7906 0.41037 0.1639 0.0261 0.5061 0.0028 0.5661 0.172-0.1644 0.1152-0.6161 0.5545-0.7428 0.3819 0.1389-0.0981 0.2778-0.1963 0.4162-0.2945-0.3745-0.36612-0.8945-0.3349-1.3995-0.40585 0.6645 0.00398 0.3828 0.05392 0 0zm-15.926 2.435c0.12889-0.1204 0.25778-0.2413 0.38667-0.3622-0.32445-0.2531-0.81167-0.4563-0.39556-0.8712 0.28445-0.2838 0.80333-0.3019 1.18-0.3139-0.34444 0.1743-0.77944 0.1306-1.075 0.4104-0.485 0.4597 0.72889 0.6743 1.0644 0.5273-0.30667 0.1612-0.61278 0.3224-0.91945 0.4836 0.35556 0.2349 0.58056 0.3104 1.0011 0.3678-0.14333 0.08-0.33333 0.1657-0.48166 0.0442-0.21334-0.1759-0.48723-0.2122-0.76056-0.286 0.13944-0.1306 0.25444 0.0686 0 0zm9.71 1.2362c0.0356-0.1119 0.2506-0.1522 0.3344-0.1993 0.1462 0.5279 0.2223 1.0955 0.5367 1.5558-0.1994-0.0029-0.3333-0.0085-0.4555-0.197-0.1045-0.1612-0.49-0.0829-0.6462-0.1021-0.1755 0.2134-0.2377 0.3819-0.5372 0.2048-0.195-0.1152-0.2994-0.2735-0.5522-0.2383-0.3011 0.042-0.5961 0.6663-0.8933 0.1657-0.28-0.4734-0.8167 0.1107-1.12 0.1947 0.1922-0.1947 0.2855-0.4495 0.3383-0.7157 0.0561-0.2816 0.0144-0.7873 0.3411-0.7873 0.3283 0 0.4789 0.6942 0.6078 0.9905 0.245 0.5653 0.3794-0.3224 0.4505-0.558 0.0584-0.1947 0.1167-0.3893 0.1756-0.5834 0.0772-0.2572 0.0583-0.201 0.2856-0.201 0.2244 0 0.2661 0.5455 0.3855 0.7793 0.0622 0.122 0.31 0.7191 0.4339 0.7288 0.1356 0.0102 0.2606-0.8661 0.315-1.0375 0.0283-0.0892-0.1078 0.3382 0 0zm-1.1511 11.005c-0.3033-0.2838-0.5383-0.5891-0.9233-0.7651-0.3923-0.1782-0.8073-0.2435-1.2089-0.3837-0.3373-0.1175-0.1984-0.6987-0.1978-0.9722 0.0011-0.5211 0.0017-1.0427 0.0017-1.5637 0-0.5216 0-1.0427-0.0012-1.5643-5e-4 -0.248-0.1438-1.021 0.1112-1.1732 0.2688-0.1606 0.6166 0.1204 0.8872 0.1334 0.4205 0.0205 0.8011-0.1941 1.2172-0.1975 0.4594-4e-3 0.87 0.231 1.3367 0.1799 0.185-0.0204 0.6866-0.2906 0.8505-0.0993 0.1939 0.2259 0.0795 0.8122 0.0795 1.0784 0 0.5193-0.0011 1.0387-0.0011 1.5586 0 0.5193 5e-4 1.0392 0.0027 1.5585 0.0011 0.2555 0.1361 0.8855-0.1561 1.033-0.3244 0.1652-0.755 0.201-1.1016 0.3326-0.455 0.1749-0.6173 0.4524-0.8967 0.8446-0.2478-0.2316 0.1378-0.1941 0 0zm-2.6478-1.7158c0 0.6607-0.3739 0.5188-0.93832 0.521-0.8 4e-3 -1.6272 0.0608-2.4244-0.0221-0.75277-0.0783-0.89389-0.6198-0.91611-1.3077-0.02889-0.899-0.00333-1.8009-0.00333-2.7005 0-3.5877-0.05667-7.181 0.00111-10.768 0.00944-0.57496 0.90556-0.33884 1.2928-0.33941h2.4994c0.6272 0 0.4889 0.36779 0.4889 0.9314v2.6687c0 3.6722 6e-4 7.3445 0 11.017v0zm5.0522-10.833c-0.0011-0.8241 0.0034-1.6476 6e-4 -2.4712-0.0011-0.33657-0.0995-0.82696 0.0261-1.1448 0.1078-0.27243 0.5833-0.17027 0.7939-0.16857 0.7833 0.00682 1.5667 0.00682 2.35 0.00284 0.3189-0.00113 0.7811-0.09705 1.0822 0.02668 0.2633 0.10727 0.1656 0.59766 0.165 0.80823-5e-3 3.5411-0.0033 7.0828-0.0044 10.623-6e-4 0.8293-6e-4 1.6579-0.0011 2.4866-6e-4 0.5012-0.045 0.966-0.5889 1.1164-0.6356 0.1754-1.385 0.0789-2.0367 0.0766-0.4483-0.0017-1.7922 0.2838-1.7906-0.3876 0.0089-3.3845 0.0023-6.7689 0.0023-10.153 0.3339 0.4773 0.6755 0.9325 1.0266 1.3957 0.1734 0.2287 0.3134 0.4847 0.3795 0.7679 0.0578 0.2486 0.2311 0.378 0.3016 0.6232 0.1484 0.5148-0.4677 1.3673-0.6722 1.8282-0.1422 0.3206-0.2828 0.643-0.425 0.9637-0.1466 0.3303-0.1444 0.4036-0.0216 0.7549 0.5966-0.3383 0.8366-1.3174 1.1227-1.9406 0.1989-0.4342 0.3023-0.5346 0.2395 0.0409-0.0528 0.4853-0.1017 0.9717-0.1734 1.4541-0.0655 0.4405-0.0555 0.6431 0.1489 1.0353 0.1889 0.3638 0.3889 0.4932 0.6528 0.0834 0.415-0.6442-0.0178-1.4961-0.045-2.1874 0.2506 0.3241 0.7417 1.8543 1.2045 1.6363-0.0895-0.8173-0.4156-1.5614-0.7412-2.3146-0.155-0.3587-0.3788-0.7123-0.4316-1.1067-0.0617-0.466 0.1672-0.8247 0.3705-1.2181 0.2828-0.5471 0.0734 0.4484 0.0461 0.5977-0.08 0.437 0.0812 0.6402 0.4967 0.7719 0.8628 0.2747 0.5867-1.0097 0.5878-1.5007 0.0011-0.3814-0.0211-0.7651-0.0511-1.1454-0.0128-0.1674-0.0334-0.3064-0.0917-0.4631-0.0739-0.1998 0.0756-0.2611 0.1439-0.4563 0.0828-0.2361 0.1394-0.588-0.0839-0.7657-0.2417-0.1918-0.4994 0.1249-0.6394 0.3076-0.1967 0.2566-0.1367 0.6022-0.265 0.8979-0.1623 0.3752-0.3817 0.6346-0.4973 1.0336-0.185-0.5312 0.2423-1.1039 0.3273-1.6221 0.0416-0.2543 0.0461-0.5154-0.0017-0.7691-0.0439-0.2344-0.2656-0.4018-0.3428-0.6272-0.0783-0.227-0.1611-0.3559-0.3178-0.5346-0.2344 0.2389-0.2933 0.4614-0.4322 0.7628-0.2211 0.4802-0.3366 0.8638-0.2116 1.4099 0.0527 0.231 0.1533 0.3672 0.2561 0.5715 0.1194 0.2367 0.0839 0.5057 0.0877 0.7611 0.0028 0.1782 0.0928 0.5977-0.1016 0.6261-0.0489-0.3116-0.09-0.6249-0.1445-0.9354-0.0694-0.395-0.1183-1.3639-0.4922-1.5807-0.4061-0.235-0.9028 0.1163-1.1878 0.3848-0.0094-0.118-0.0166-0.2367-0.02-0.3559-0.0016-1.1232 0 0.1062 0 0zm-3.2911 1.4207c-5e-3 -0.206 0.1661-0.5875-0.0589-0.7396-0.2161-0.1458-0.6877-0.118-0.9289-0.0635-0.2994 0.0675-0.3061 0.3377-0.2588 0.5999 0.0922 0.5091 0.0755 0.848-0.1517 1.3242-0.2095-1.3639-0.0433-2.8709-0.045-4.2523 0-0.3667-0.0011-0.73335-0.0017-1.1-5e-4 -0.26449-0.0694-0.62945 0.0289-0.88145 0.1489-0.38141 1.5467-0.15722 1.8817-0.15665 0.7383 5.7e-4 1.4766-0.00171 2.2144-0.00568 0.6267-0.0034 0.3595 1.2822 0.3589 1.701-0.0011 0.75036-0.0017 1.5013-0.0017 2.2516v1.1255c0 0.252 0.1295 1.0404-0.0433 1.2266-0.0767-0.3309-0.31-0.6363-0.2011-0.991 0.0739-0.2395 0.2556-0.6703-0.06-0.8281-0.2233-0.1118-0.9394-0.1306-1.1111 0.0868-0.1661 0.2112 0.1333 0.8622 0.0611 1.1494-0.3828-0.4535-0.1678-0.7589-0.1717-1.2924-0.0027-0.3689-0.3522-0.3241-0.6283-0.3241-0.3744 0-1.0028 0.0619-0.7944 0.6243 0.1005 0.2708 0.2416 0.4496 0.1577 0.7544-0.0444 0.16-0.05 0.2889-0.2255 0.2889-0.0067-0.1663-0.015-0.3321-0.0206-0.4978-5e-4 -0.0329 0.0056 0.1657 0 0zm8.4089 10.978c0.8817-0.6107 1.0989-1.5603 0.7239-2.5501-0.1778-0.4706-0.5828-1.1097-0.5544-1.625 0.0288-0.5307 0.8127-0.3145 1.1272-0.3565 0.5622-0.0743 0.2461-0.5743 0.3528-0.8945 0.1144-0.3433 0.6916-0.2423 0.8355-0.6027 0.1739-0.4354-0.5578-0.6317-0.4028-1.058 0.0867-0.2395 0.3111-0.4047 0.3284-0.6754 0.0155-0.2429-0.1628-0.4598-0.3034-0.634 0.47-0.2696 1.7284-1.1567 1.7545 0.0301 0.0083 0.378-0.34 0.6107-0.3122 1.0012 0.0333 0.4671 0.4327 0.5852 0.7622 0.7946 0.7272 0.4631 0.3366 1.2697-0.3778 1.3872-0.335 0.0556-0.7239 0.1197-0.8744 0.479-0.1912 0.4558 0.2722 0.7083 0.23 1.113-0.0573 0.5466-1.1762 0.0426-1.4589 0.579-0.3267 0.6186 0.35 1.3752 0.4166 1.9791 0.085 0.7776-0.4833 1.3957-1.0361 1.8446-0.3561 0.2889-0.7755 0.4904-1.2322 0.5318-0.4872 0.0438-0.6483-0.4841-0.85-0.84 0.2911-0.1685 0.595-0.3127 0.8711-0.5034 0.7361-0.5103-0.2683 0.1862 0 0zm-17.324-7.1719c0.25278 0.3842-0.43278 0.6845-0.36278 1.0693 0.05278 0.2883 0.36 0.3939 0.59667 0.4711 0.27222 0.088 0.26389 0.2957 0.25722 0.5454-0.02777 1.0239 1.1911 0.1277 1.4439 0.8003 0.11889 0.3167-0.12555 0.7912-0.23944 1.071-0.21222 0.5216-0.48945 1.008-0.48222 1.591 0.01388 1.1084 0.94555 1.701 1.8244 2.1068-0.17556 0.29-0.30944 0.7117-0.66389 0.8139-0.35167 0.101-0.74-0.0533-1.0467-0.2225-0.63-0.3462-1.3917-1.0523-1.4061-1.8446-0.00833-0.4569 0.15445-0.9189 0.31334-1.3378 0.13722-0.3615 0.29389-0.823-0.075-1.1039-0.35389-0.2691-0.77111-0.0193-1.1489-0.1612-0.34667-0.13 0.00555-0.7209 0.05722-0.9343 0.15333-0.643-0.41222-0.7974-0.92-0.8928-0.86833-0.1623-0.87833-0.97-0.19889-1.4325 0.20778-0.1414 0.57333-0.3196 0.64445-0.5932 0.07222-0.2769-0.15834-0.6271-0.26889-0.861-0.18611-0.391-0.01056-0.7912 0.4-0.9353 0.37389-0.1311 0.99389 0.4336 1.3017 0.622-0.33055 0.4501-0.33222 0.764-0.02611 1.2283 0.06111 0.0925-0.33833-0.5131 0 0zm13.803 10.126c-0.0189 0.8496-1.7706 0.5817-2.2561 0.5698-0.4089-0.0113-0.8322 0.3423-1.2428 0.4229-0.4955 0.097-1.0044 0.0601-1.495-0.0454-0.4444-0.0954-0.8672-0.2679-1.3161-0.34-0.4239-0.0687-0.8728-0.071-1.2867-0.1851-0.64611-0.1782-0.46777-0.9716-0.46777-1.5063 0.66004 0.0221 1.3216 0.0125 1.98 0.0687 0.6388 0.0539 1.1905 0.3547 1.8416 0.3678 1.3772 0.0283 2.8178-0.2992 4.1656-0.5602 0.0305 0.4024 0.0861 0.8031 0.0772 1.2078-0.0033 0.1464 0.0094-0.4144 0 0zm7.0061-14.49c0.15-1.4065 0.2606-2.8288 0.1783-4.2438-0.0422-0.72764-0.1377-1.453-0.3027-2.1625-0.1017-0.43476 0.6927-0.99156 0.9505-1.2606 0.355 1.6931 0.6572 3.397 0.5839 5.1383-0.0622 1.4848-0.2455 3.7443-1.7094 4.5304 0.1016-0.6674 0.2283-1.3304 0.2994-2.0018 0.0883-0.8298-0.07 0.6578 0 0zm-21.978-6.7763c0.32 0.40355-0.08556 1.4388-0.13778 1.9144-0.08556 0.78099-0.10778 1.5688-0.08333 2.3543 0.025 0.7975 0.10666 1.5887 0.21944 2.3776 0.09556 0.6709 0.28667 1.3821 0.28667 2.0598-1.3339-0.6442-1.5706-2.6807-1.6739-4.0111-0.14389-1.852 0.11722-3.7602 0.60333-5.5447 0.26389 0.28096 0.545 0.54715 0.78556 0.84967 0.08389 0.10557-0.22278-0.27982 0 0zm1.0333 1.075c0.10389 0.14417 0.04556 0.56247 0.06167 0.72934 0.03722 0.37858 0.16555 0.69018 0.16944 1.0824 0.00778 0.81221-0.02111 1.6091 0.07111 2.4184 0.18723 1.6409 0.61667 3.2426 0.93611 4.8596-0.32722-0.5494-1.4078-0.7015-1.5222-1.3412-0.16055-0.8979-0.34333-1.7935-0.43055-2.7028-0.09056-0.9399-0.14111-1.8849-0.13167-2.8293 5e-3 -0.50969 0.05167-1.0137 0.12056-1.5183 0.05166-0.37914 0.02833-0.91096 0.24444-1.2265 0.16222 0.17311 0.34111 0.33373 0.48111 0.52841 0.05445 0.07549-0.13444-0.1873 0 0zm19.358 5.7938c0.245-1.2282 0.3428-2.4048 0.2872-3.6563-0.0433-0.97226-0.1667-2.0824 0.8295-2.5972 0.255 1.6568 0.3627 3.3277 0.2238 5.0049-0.07 0.8491-0.2027 1.6908-0.3611 2.5263-0.0755 0.4002-0.0739 0.7447-0.4327 0.9734-0.3823 0.2435-0.7712 0.4762-1.1573 0.7135 0.2045-0.9882 0.4134-1.9746 0.6106-2.9645 0.1967-0.9847-0.1906 0.9575 0 0zm-12.146 11.736c-0.5061-0.0153-1.4106-0.0828-1.7089 0.4723-0.20945 0.3899 0.12222 1.0517-0.20389 1.3684-0.14722 0.1424-0.40167 0.1674-0.59 0.2049-0.45944 0.0914-0.92278 0.1714-1.3917 0.1839-0.55111 0.0147-2.1111-0.0869-2.1172-0.9343 0.55 0.0852 1.7094 0.5461 1.995-0.1804 0.27445-0.6959 0.93722-0.5881 1.5256-0.7969 0.81277-0.2884 1.5378-0.8236 2.4322-0.8077 0.4872 0.0091 0.8317 0.1828 1.2194 0.4558-0.1061 0.2798-0.8677 0.0431-1.1605 0.034-0.3611-0.0108 0.3683 0.0114 0 0zm5.5872-0.4915c0.65 0.172 1.2622 0.4603 1.8928 0.6913 0.4289 0.1572 1.355 0.1243 1.6239 0.5596 0.19 0.3077 0.4166 0.6885 0.7944 0.7674 0.4872 0.1016 1.0189-0.151 1.4672-0.3076-0.2772 0.9149-1.4372 1.109-2.2455 0.9972-0.7178-0.1004-2.0745 0.0415-1.9895-0.983 0.0895-1.0699-0.8633-1.3832-1.7772-1.247-0.2544 0.0375-0.51 0.0619-0.7661 0.0851-0.2183 0.0205-0.6583 0.0352-0.2739-0.2452 0.3678-0.2679 0.8222-0.4364 1.2739-0.3178 0.7106 0.1873-0.5106-0.1339 0 0zm-11.066-18.35c0.27612 0.16517 0.55278 0.33033 0.82889 0.4955 0.21 0.126 0.34223 0.03348 0.11723-0.12487-0.13612-0.09592-0.275-0.1873-0.40889-0.28549-0.50056-0.36893-0.77111-0.72026-1.42-0.80823 0.02111 0.1243 0.11333 0.27868-0.025 0.32749-0.08223-0.21284-0.16389-0.42569-0.24611-0.63853 0.19888 0.02157 0.33611 0.18844 0.52111 0.24633 0.07111 0.02384 0.14111 0.01987 0.21-0.01192 0.20666-0.09649 0.19222 0.01306 0.35444 0.18106 0.40167 0.41717 0.86833 0.76964 1.4017 0.99043-0.10389-0.62945-0.82056-0.79632-1.1067-1.3083 0.45333 0.15551 0.64833 0.74977 1.2017 0.62093-0.235-0.26052-0.47-0.52104-0.705-0.78099-0.12389-0.13792-0.60111-0.53012-0.46445-0.66634 0.31223 0.32012 0.58445 0.67939 0.90667 0.98929 0.26167 0.25144 1.0322 0.79915 0.48222 0.10103-0.16889-0.21398-0.33722-0.42852-0.50611-0.6425-0.10722-0.13622-0.45278-0.42114-0.29944-0.54885 0.32333 0.40128 0.64666 0.80313 0.96944 1.2044 0.04111-0.18219 0.08167-0.36381 0.12278-0.54601-0.05 0.70323 0.20444 1.2322 0.845 1.5183 0.00555-0.38709-0.42167-0.54999-0.45722-0.91721 0.09777 0.16006 0.19611 0.31955 0.29333 0.4796 0.06889-0.14416 0.13778-0.28833 0.20667-0.43306 0.21 0.21341 0.42 0.42739 0.63055 0.6408-0.08944 0.13735-0.47944-0.05335-0.62389-0.09422 0.08 0.21965 0.15945 0.43931 0.23945 0.65896 0.08722 0.24008-0.23834 0.30592-0.43611 0.41547 0.165 0.07265 0.33 0.1453 0.495 0.21851-0.04611 0.11579-0.38945 0.00227-0.50389-0.01475-0.06056 0.17311 0.19389 0.28946 0.32111 0.39673-0.05556 0.07265-0.24056-0.03065-0.315-0.05335-0.23445-0.07095-0.17945 0.03406-0.24222 0.23782 0.12777 0.02043 0.25611 0.0403 0.38444 0.06073-5e-3 0.06754-1.2328 0.11805-1.3856 0.04427-0.50945-0.24803-1.0189-0.49663-1.5283-0.74523 0.44778 0.00851 0.82722 0.39674 1.2661 0.10103-0.40333-0.20093-0.84166-0.3695-1.2222-0.61185-0.41611-0.26449-0.695-0.39163-1.135-0.06925 0.18111 0.1629 0.36167 0.32523 0.54278 0.48812-0.07889 0.08571-0.96278-0.49039-0.56778-0.66293 0.26167-0.11465 0.48-0.08173 0.33667-0.46598 0.60889 0.50968 1.3156 0.86669 2.055 1.1318-0.16334-0.58517-0.85278-0.63342-1.1333-1.1187 0.33167 0.19865 0.28167 0.48698 0 0zm2.3206-1.7033c-0.07278-0.19865 0.24833-0.52728 0.22667-0.09081-0.01111 0.22589 0.14222 0.44044 0.27889 0.60333 0.25333 0.30252 0.45222-0.69358 0.54777-0.84683 0.26611-0.42625 0.03667-0.56474-0.095-0.98077-0.12944-0.40866 0.29389-0.73048 0.61611-0.85307-0.09166 0.39276-0.43444 0.92572-0.20166 1.3264 0.21389 0.36836 0.79778 0.56077 1.1555 0.71912-0.27886 0.11295-0.84941 0.28322-0.7933 0.70437 0.05778 0.43419 0.41389 0.26335 0.7144 0.19922-0.36384 0.23441-0.55496 0.30479-0.94662 0.10443-0.20167 0.66237 0.71778 0.56871 1.0466 0.92288 0.405-0.88088 1.1873-0.17992 1.09 0.56758-0.0516 0.39844-0.42 0.5812-0.7744 0.53863-0.2761-0.03348-0.2839 0.1033-0.3217 0.35701-0.73163-0.19411-0.69441-0.82129-1.0377-1.3894-0.19223-0.31898-0.69556-1.4507-1.1222-1.0619-0.13055-0.2713-0.27944-0.53636-0.38333-0.82015-0.02889-0.07946 0.09611 0.26165 0 0zm11.599-0.06244c-0.0777 0.21001-0.1827 0.6425-0.39 0.76907-0.11 0.06754-0.2055-0.04313-0.3122 0.02611-0.185 0.12033-0.3161 0.34225-0.4439 0.51707-0.2755 0.37687-0.4483 0.72423-0.5944 1.1675-0.1172 0.35588-0.3189 0.65669-0.6672 0.80824-0.0678-0.37347-0.2545-0.20944-0.5245-0.22476-0.3566-0.021-0.6194-0.48812-0.6533-0.8088-0.0828-0.78326 0.6855-1.2214 1.0122-0.3922 0.3839-0.32352 1.2383-0.24179 1.0633-0.94105-0.2822 0.26279-0.6055 0.15495-0.8833-0.04994 0.2983 0.04654 0.8272 0.12032 0.6167-0.40923-0.1434-0.36098-0.5095-0.45974-0.8556-0.48868 0.405-0.19298 1.0211-0.36098 1.2622-0.78269 0.2306-0.40242-0.0572-0.92516-0.1977-1.3066 0.2861 0.07833 0.6377 0.24293 0.6366 0.59596-0.0011 0.45349-0.3877 0.68734-0.1227 1.163 0.0883 0.15778 0.2572 0.30365 0.3105 0.4796 0.0317 0.10557-0.145 0.37914 0.0272 0.42909 0.4311 0.12487 0.6095-0.43136 0.4473-0.7492 0.1733-0.02895 0.3588-0.04484 0.2688 0.19751zm3.1139 6.904c0.1478-0.1691 0.2956-0.3388 0.4434-0.508 0.18 0.0738 0.0216 0.6942-0.0023 0.8854-0.0883 0.7055-0.2116 1.4059-0.3538 2.1024-0.2862 1.399-0.6484 2.78-0.9639 4.1717-0.6823-0.3945-0.6839-0.8628-0.6934-1.6012-0.0105-0.8162 0.5161-1.4649 0.6978-2.2357 0.0745-0.3161 0.1061-0.7293 0.2939-1.0023 0.1-0.1453 0.5239-0.2066 0.4583-0.4461-0.0305-0.1107-0.1044-0.2163-0.1611-0.3133 0.1228-0.105 0.2522-0.2117 0.3545-0.3383 0.1944-0.2418 0.0611-0.479-0.0734-0.7146 0.1506-0.1725 0.2845 0.4995 0 0zm-17.952 0.1867c-0.13945 0.214-0.06445 0.4189 0.09333 0.596 0.13556 0.1515 0.27389 0.1521 0.20278 0.3667-0.02667 0.0817-0.06334 0.1782-0.05334 0.2667 0.02056 0.1856 0.325 0.2668 0.45723 0.3264 0.28944 0.1294 0.35722 0.7185 0.44555 0.9921 0.11389 0.3519 0.19445 0.7021 0.39278 1.0109 0.195 0.303 0.27778 0.6572 0.29333 1.0159 0.01556 0.3553-0.02555 0.7095-0.04611 1.0637-0.02555 0.4444-0.31722 0.6113-0.57166 0.9404-0.49445-2.3259-1.1733-4.6223-1.39-7.0005 0.215 0.088 0.325 0.1936 0.17611 0.4217-0.17556 0.2696 0.16889-0.2588 0 0zm-0.24111 6.698c0.34777-0.4279-0.02612-0.9257-0.15112-1.3678 0.32834-0.0159 0.54556-0.1152 0.80112 0.1583 0.21666 0.2316 0.32388 0.5546 0.34055 0.8701 0.01222 0.2271-0.21389 0.8559-0.05278 0.9757 0.36278-0.2361 0.72556-0.4728 1.0878-0.7089 0.06445 1.0631 0.02222 2.1392 0.02278 3.2045 0 0.273 0.06778 0.6601-0.025 0.9275-0.07 0.202-0.45445 0.1345-0.60667 0.1356 0.22834-0.5681 1.1222-2.3117 0.07722-2.6091-0.21666-0.0613-0.87333 0.0743-0.94777-0.2157-0.06223-0.2424 0.06944-0.4359-0.12556-0.6493-0.19222-0.21-0.46222-0.2974-0.71667-0.3979 0.09889-0.1079 0.20445-0.2094 0.29612-0.323 0.22555-0.2769-0.07667 0.0948 0 0zm11.141-0.8139c-0.6561 0.1635-1.0789 0.0137-1.7128-0.0891-0.6183-0.1016-1.1461 0.4739-1.7545 0.1255-0.1633-0.0937-0.3661-0.0693-0.5338-0.1465-0.1878-0.0863-0.1034-0.6272-0.0823-0.7866 0.0323-0.2424 0.4206-0.1465 0.5345-0.0738 0.1516 0.0976 0.2111 0.3428 0.3422 0.5006 0.0556-0.0591 0.2222-0.1465 0.2194-0.2464-0.0033-0.118 0.0162-0.2548 0.1295-0.3167 0.1555-0.0845 0.5033-0.0879 0.6567 4e-3 0.1088 0.0653 0.1272 0.2021 0.1238 0.319-0.0027 0.0982 0.17 0.1839 0.2256 0.2401 0.1417-0.1589 0.1922-0.5216 0.3817-0.5858 0.1594-0.0545 0.4855-0.063 0.6277 0.0454 0.1134 0.0863 0.1062 0.6976 0.3962 0.4887 0.1905-0.1368 0.1116-0.4472 0.3238-0.5573 0.3356-0.1749 0.4628 0.307 0.5706 0.5074-0.15 0.0618-0.0367 0.2009-0.0911 0.3428-0.0556 0.1442-0.225 0.1958-0.3572 0.2287-0.5289 0.1317 0.3744-0.0931 0 0zm-1.7456 8.4382c0.2456-0.4597 0.4306-1.0596 0.8195-1.4195 0.3344-0.3099 0.8211-0.2798 1.2377-0.3434-0.3077 0.1442-0.7344 0.2566-0.9716 0.5165-0.2189 0.2407-0.1634 0.5806-0.1639 0.8815-6e-4 0.2582 0.1005 0.7781-0.0511 1.0006-0.1506 0.2214-0.8595 0.088-1.0889 0.0834-0.3017-0.0062-0.7084 0.0948-0.8417-0.2508-0.1144-0.298-0.0505-0.7384-0.0328-1.0512 0.0467-0.8105-0.6922-0.9626-1.2961-1.1698 1.1539-0.055 1.9978 0.6834 2.3889 1.7527 0.2528-0.4728-0.4344-1.1891 0 0zm-0.1272-18.927c-0.1528-0.3116-0.3056-0.6232-0.4578-0.93424-0.0605-0.12316-0.1205-0.24632-0.1811-0.36949-0.1306-0.26619-0.0278-0.22476 0.1867-0.36609-0.1228-0.14189-0.245-0.28379-0.3678-0.42568 0.0689-0.1839 0.1383-0.36779 0.2072-0.55169-0.1572-0.02554-0.3144-0.05165-0.4722-0.07776 0.275-0.22135 0.6344-0.67882 1.0055-0.71174 0.4739-0.042 0.8323 0.36666 1.1745 0.63342-0.3706 0.147-0.4917 0.14473-0.3239 0.58687 0.1061 0.27982-0.1139 0.20376-0.2472 0.41661-0.0828 0.13281 0.0972 0.32352 0.2005 0.3343-0.2416 0.48812-0.4833 0.97737-0.7244 1.4655-0.2461-0.50174 0.2483-0.50231 0 0zm8.5539 11.468c-0.1045-0.4342 0.1355-1.9928 0.9005-1.5353 0.2284 0.1368-0.195 0.5199-0.2466 0.6936-0.1145 0.3831 0.1566 0.7503 0.3789 1.0296-0.5628 0.1578-0.9612 0.5045-0.7695 1.1436-0.5361 0.1045-1.1567-0.1044-1.44 0.5245v-2.1812c0.2739 0.1907 0.5478 0.382 0.8217 0.5727 0.385 0.2684 0.4733 0.2469 0.355-0.2475-0.145-0.6039 0.0322 0.1351 0 0zm3.1689-13.375c0.0672 0.2855-0.8067 0.98589-0.9884 1.1783-0.435 0.4603-0.8755 0.91493-1.3261 1.3599 0.3811-0.48245 0.9095-1.0222 0.1506-1.4201 0.615-0.74466 1.2305-1.4899 1.8455-2.2346 0.1095 0.37119 0.2306 0.73955 0.3184 1.1164 0.0166 0.07152-0.0806-0.34508 0 0zm-21.046 1.1266c-0.28223 0.09649-0.74 0.07378-0.67334 0.50798-0.41389-0.40922-0.83222-0.81391-1.2383-1.2299-0.43778-0.44952-0.10167-0.99781 0.05611-1.5256 0.61833 0.7492 1.2372 1.4984 1.8556 2.2476-0.31389 0.10727-0.62278-0.75431 0 0zm7.6866 0.27811c0.0839 0.05279 0.1678 0.10557 0.2522 0.15836 0.0117-0.19355 0.0234-0.38709 0.035-0.58064 0.1617 0.1209 0.5706 0.32125 0.5506 0.52331-0.025 0.25087 0.0567 0.47847 0.26 0.63172 0.0189-0.08571 0.0283-0.40185 0.1389-0.39107-0.0167 0.28266-0.0333 0.56474-0.0495 0.84683-0.0183 0.3133 0.05 0.41036-0.2516 0.48585 0.055-0.38368 0.1294-0.71402-0.1722-1.0211-0.0167 0.19979 0.02 0.95637-0.1584 1.0285-0.2544 0.10273-0.4111-0.08457-0.5078-0.31104-0.0516 0.12147-0.1033 0.24349-0.155 0.36552 0.01-0.18332 0.1112-0.40865 0.0217-0.58517-0.1705-0.33601-0.4911 0.02781-0.6883 0.15779-0.1084 0.07094-0.2172 0.14246-0.3256 0.21397-0.2194 0.14417-0.2989 0.02044-0.1044-0.06754 0.2478-0.11124 0.4983-0.2537 0.6728-0.46995 0.6594-0.81845-0.2562-2.0478-0.6445-2.7601 0.2872 0.38709 0.5711 0.77986 0.75 1.2334 0.1011 0.25711 0.1661 0.52785 0.1856 0.80426 0.0261 0.37063 0.0527 0.47563 0.2333 0.79745 0.23-0.36666 0.145-0.70153-0.0428-1.0602 0.0689 0.04314 0.1722 0.32863 0 0zm3.61 0.3519c0.0061 0.64874 0.4934 0.96432 1.0328 1.1635-0.1367 0.19297-0.3289-0.0403-0.5022-0.14587-0.2045-0.12487-0.4089-0.24917-0.6139-0.37404-0.3945 0.08401-0.1595 0.46088-0.1567 0.72934-0.1244-0.23668-0.1661-0.147-0.4055-0.05789-0.2217 0.0823-0.42 0.08854-0.6539 0.05846-0.3267-0.04257-0.2028-0.31387-0.2028-0.61128v-0.78383c0.225 0.75261 0.3244-0.08627 0.4156-0.44895 0.0355 0.05165 0.0711 0.1033 0.1061 0.15495 0.1389-0.18901 0.2777-0.37801 0.4166-0.56701v0.72877c0.1045-0.08117 0.2084-0.16176 0.3128-0.24293-0.1605 0.40469-0.3133 0.67145-0.0639 1.0523 0.0611-0.10046 0.2372-0.24803 0.2217-0.38311-0.0278-0.24122-0.0117-0.48642 0.0411-0.7231 0.0761-0.33998 0.2261-0.65158 0.3917-0.9541-0.2728 0.39106-0.3439 0.93821-0.3395 1.4048 0.0067 0.69018-0.0055-0.5829 0 0zm3.5228 17.324c0.4517-0.0068 0.4078 0.6243 0.4783 0.9654-0.9289-0.1453-1.7727-0.6987-2.6761-0.962 0.7322 0 1.465 0.0068 2.1978-0.0034 0.2544-4e-3 -0.7317 0.0102 0 0zm-11.427 1.0437c0.10723-0.5454 0.06223-1.0256 0.71556-1.0358 0.62444-0.0096 1.2494-0.0045 1.8739-0.0045-0.86336 0.3473-1.7267 0.6941-2.5895 1.0403 0.06945-0.3536 0.94778-0.3808 0 0zm6.2128-23.65c-0.0667 0.42853-0.1328 0.85705-0.1989 1.2861-0.1294 0.83888-0.2494 0.09138-0.3072-0.31898-0.0539-0.38425-0.2039-0.78667 0.0039-1.0977 0.0778-0.11635 0.0511-0.25768 0.0328-0.38538-0.0306-0.21398 0.0489-0.34792 0.1161-0.54317 0.2116 0.15892 0.4189 0.21171 0.2639 0.47506-0.135 0.22987-0.1067 0.40411 0.0894 0.58403-0.0911 0.58802-0.2733-0.2503 0 0zm9.3278 3.4486c-0.1728-0.64988-0.4717-0.32295-0.9028-0.00851 0.3639-0.51536 0.7278-1.0302 1.0911-1.545 0.4384 0.59766 0.4334 1.113-0.1883 1.5535-0.1472-0.55395 0.6378-0.45179 0 0zm-19.194-1.5427c0.32611 0.46712 0.73444 0.87578 0.79833 1.4763-0.15889-0.11635-0.33389-0.33657-0.55222-0.30933-0.24722 0.03065-0.34 0.1192-0.50555-0.11748-0.245-0.35077 0.04111-0.77248 0.25944-1.0495 0.31444 0.45066-0.46111 0.58461 0 0zm13.282 9.1624c-0.0217 0.2486 0.2166 0.5523-0.0734 0.7231-0.1044 0.0613-0.5272 0.2498-0.6355 0.1499-0.0289-0.0602-0.0461-0.1243-0.0511-0.1919-0.0406-0.1192-0.2039-0.1719-0.2928-0.2401 0.2328-0.4103 0.6044-0.5834 1.0528-0.441-0.0228 0.2634-0.4684-0.1487 0 0zm4.6816-1.2838c0.2328 0.0896 0.4745 0.521 0.1784 0.6748-0.3706 0.1924-0.3667 0.4064-0.0789 0.6947-0.3684 0.1147-0.7117 0.2021-0.2089-0.0965-0.245-0.1379-0.4906-0.2764-0.7361-0.4137 0.2594-0.0676 1.0233-0.1379 1.09-0.395-0.4284-0.3366-0.6739-0.4496-1.2072-0.5381 0.0327-0.2026 0.7816 0.0045 0.9627 0.0738 0.1523 0.059-0.295-0.1135 0 0zm-3.0294-7.5568c-0.0722-0.06811-0.1417-0.13906-0.2083-0.21284-0.0417 0.13054-0.0545 0.3956-0.1928 0.39106 0.0233-0.34849 0.1033-0.65215 0.2194-0.98191 0.1028-0.29344 0.3722-0.16517 0.61-0.13395-0.0578 0.37063-0.6505 0.96261-0.0289 1.0988-0.1333 0.19411-0.2605-0.03859-0.3994-0.16119-0.0739-0.06527 0.1055 0.09308 0 0zm-14.537 4.4975c0.11056 0.08457 0.59111 0.36666 0.52667 0.48812-0.26278-0.15495-0.52556-0.3099-0.78833-0.46485 0.06555-0.34395 0.65666-0.0823 0.485-0.49663 0.55555 0.15949 1.1117 0.31898 1.6672 0.47904-0.66556 0.09705-1.2472-0.4325-1.8906-0.00568 0.20056 0.15382 0.69834-0.46314 0 0zm4.1328-4.8011c-0.11944 0.1487-0.37056 0.6073-0.55556 0.52671 0.72278-0.20319-0.51833-1.0324 0.04278-1.1545 0.31389-0.06811 0.33278-0.07946 0.42834 0.20944 0.10666 0.32125 0.19499 0.63682 0.26611 0.96772-0.13889 0.02497-0.15667-0.41944-0.18167-0.54941-0.20167 0.2503 0.04667 0.24235 0 0zm14.293 4.8085c-0.6211-0.51479-1.2511 0.11919-1.9216-0.00113 0.5633-0.16403 1.1261-0.32863 1.6894-0.49266-0.07 0.31898 0.2689 0.336 0.5367 0.45349-0.2272 0.14757-0.4539 0.29571-0.6811 0.44328-0.1873 0.12203-0.2134 0.02384-0.04-0.10216 0.1394-0.10046 0.2783-0.20092 0.4166-0.30082-0.6577-0.54544-0.1905 0.13792 0 0zm-4.5211 5.4618c-0.0939 0 0.2617 4.5554 0 4.6354v-4.6354c0.0117 0 0 1.5455 0 0zm-2.4528-9.5694c-0.4016-0.01248-0.025-1.7907-0.2494-1.827 0.0711-0.09479 0.1422-0.189 0.2139-0.28379 0.355 0.48358 0.0778 1.5115 0.0355 2.1108-0.0266-5.6e-4 0.0428-0.60276 0 0zm-4.7222-1.2345c-0.0261-0.14133 0.1784-0.21284 0.1572-0.37801-0.0233-0.10329-0.0755-0.18957-0.1561-0.25824 0.0789-0.08401 0.1578-0.16857 0.2361-0.25258 0.2939 0.3905 0.1112 1.0483 0.0817 1.5302-0.0111 0.17594-0.0422 0.75828-0.1505 0.21738-0.0573-0.28549-0.1145-0.57155-0.1684-0.85875-0.0061-0.03349 0.0672 0.35871 0 0zm-6.1355 7.0051c-0.19723-0.03576-0.45223-0.08628-0.55167-0.2906-0.12389-0.25485 0.20889-0.37063 0.35889-0.50685-0.08278-0.06017-0.16611-0.1209-0.24945-0.18106 0.555 0.06016 1.11 0.12033 1.665 0.18106-0.60555 0.06016-1.2172-0.01703-1.7294 0.39219 0.16889 0.13509 0.33833 0.26961 0.50667 0.40526-0.26723-0.04881-0.15889-0.12771 0 0zm17.773-0.4132c-0.5094-0.32182-1.0911-0.38028-1.6766-0.37744 0.5278-0.06527 1.0555-0.13054 1.5839-0.19582-0.1156 0.07322-0.2317 0.14701-0.3478 0.22023 0.1733 0.07492 0.6033 0.1873 0.48 0.40241-0.0728 0.12714-0.4806 0.50855-0.58 0.34168 0.1805-0.12997 0.3605-0.26052 0.5405-0.39106-0.55-0.34793-0.2083 0.15098 0 0zm-5.4644-6.7383c-0.2189-0.17141 0.0761-0.67429 0.2761-0.27074 0.1622 0.32806 0.4933 1.0199-0.03 1.1834-0.0028-0.33373 0.0478-0.68279-0.2461-0.91266-0.0694-0.05506 0.3133 0.24519 0 0zm-7.8956 0.39106c0.15277-0.35758 0.15333-0.59199 0.50388-0.76623 0.07778 0.30762 0.06334 0.35984-0.14389 0.58063-0.19388 0.20717-0.13166 0.51366-0.1 0.76793-0.23-0.12827-0.37611-0.31273-0.25999-0.58233 0.08777-0.20547-0.11334 0.26279 0 0zm3.0034 12.922c0.0928-0.1459 0.2433-0.2861 0.4222-0.1941 0.3444 0.177 0.3133 0.1163 0.6789 0.0584 0.2205-0.0352 0.4167 0.1885 0.6244 0.0965 0.2673-0.1186 0.4023-0.3014 0.6206 0.0392h-2.3461c0.1689-0.2645 0.795 0 0 0zm-2.6372-10.992c0.18556-0.80313 0.91775-0.06187 1.2222 0.17595-0.2795 0.12884-0.91724-0.11919-1.2222-0.17595 0.06112-0.26393 0.39334 0.07322 0 0zm2.2034 0.72366c-0.1433-0.17652-0.2867-0.35303-0.4295-0.52955 0.2 0.09422 0.3823 0.042 0.5445-0.09592 0.1867-0.15779 0.2828-0.00965 0.4817 0.10784-0.2717 0.03292-0.3095 0.19354-0.1723 0.42228-0.2655-0.10273-0.2983-0.18106-0.4244 0.09535-0.155-0.19014 0.0394-0.08684 0 0zm4.29-0.50969c0.2822-0.41035 0.8322-0.97339 1.1683-0.21908-0.3894 0.07322-0.7789 0.14587-1.1683 0.21908 0.1533-0.22305 0.3794-0.07151 0 0zm-1.0856 0.56758c0.0056-0.1243 0.0111-0.2486 0.0167-0.37233-0.0878 0.05619-0.175 0.11181-0.2628 0.16744-0.0878-0.17538-0.2778-0.35077-0.0911-0.47677 0.1945-0.13168 0.5633 0.0613 0.7839 0.12317-0.1489 0.18673-0.2978 0.37289-0.4467 0.55849 0.0078-0.16743 0.1873-0.23327 0 0zm6.3161 16.561c-0.1694 0.0165-0.4711 0.0863-0.525-0.147-0.0816-0.357-0.0205-0.7815-0.0205-1.1448 0.1822 0.4308 0.3639 0.861 0.5455 1.2918-0.515 0.0506-0.1827-0.4336 0 0zm-15.588-18.288c-0.165 0.03406-0.29389-1.0211-0.33556-1.2294 0.14556-0.05506 0.72945 0.70777 0.64333 0.81391-0.12555-0.11806-0.29666-0.38198-0.46722-0.32012 0.05278 0.2452 0.10611 0.49039 0.15945 0.73558-0.02945 0.00625-0.05334-0.24519 0 0zm15.109-0.39049c-0.0989-0.07833 0.4111-0.86613 0.5722-0.8508-0.0266 0.2083-0.0539 0.4166-0.0805 0.62547-0.0234 0.18446 0.02 0.64023-0.1928 0.60901 0.0539-0.2713 0.1078-0.54203 0.1622-0.81334-0.1328-0.04938-0.3689 0.32466-0.4611 0.42966-0.0205-0.01646 0.1328-0.15154 0 0zm-15.986 0.50628c0.02277 0.17595 0.04555 0.35133 0.06833 0.52728-0.17167 0.03065-0.17889-0.43987-0.20945-0.59539-0.035-0.17368-0.175-0.38198 0.02945-0.43817 0.15444 0.22192 0.30944 0.44385 0.46389 0.6652-0.08278 0.06698-0.27167-0.10897-0.35222-0.15892 0.02777 0.21908 0.14722 0.09195 0 0zm17.177 0.50798c-0.0306-0.00511-0.0611-0.01021-0.0917-0.01532 0.0272-0.13622 0.1622-0.4569 0.0311-0.52615-0.1166 0.1033-0.5078 0.44442-0.2161 0.02952 0.1039-0.14757 0.2728-0.5392 0.4567-0.49209-0.06 0.3343-0.1206 0.66917-0.18 1.004-0.0306-0.00511 0.0594-0.33487 0 0zm-8.6361 10.432c0.0844 0.3229 0.3289 0.3825 0.6216 0.3598-0.0339 0.2469-0.3339 0.084-0.4927 0.0267-0.2434-0.0868-0.37 0.1237-0.6039 0.0959-0.3267-0.0391 0.0394-0.1192 0.1516-0.1305 0.2017-0.0204 0.3023-0.1464 0.3234-0.3519 0.0972 0.3746-0.0461 0.4523 0 0zm-7.335-5.001c-0.28 0.17425-1.3572 0.16975-1.6328 0h1.6328zm15.101 3.733c-0.1111 0.3116-0.2144 0.6016-0.3178 0.8905-0.1283-0.8116-0.1044-0.8808 0.3178-0.8905zm-19.922-9.3883c-0.12 0.41433-0.26167 0.90358-0.39056 1.348-0.19889-0.54317 0.092778-0.98702 0.39056-1.348zm24.502-0.03065c0.37 0.32238 0.5144 0.73388 0.4172 1.3259-0.1456-0.46314-0.2989-0.94956-0.4172-1.3259zm-14.57 0.23895c-0.0522-0.02554-0.0945-0.06357-0.1272-0.11295 0.1477-0.08911 1.0344-0.147 1.0572 0.021-0.3095 0.03235-0.6189 0.06982-0.93 0.09195-0.0395 0.00284 0.3105-0.02213 0 0zm-6.5139 5.6979c-0.18167 0.2254 0.37667 0.3672 0.28778 0.5807-0.17056-0.1068-0.34167-0.2135-0.51222-0.3202-0.375-0.2338 0.00333-0.2446 0.22444-0.2605-0.02056 0.025-0.115 0.0085 0 0zm14.145 7.5335c-0.1233-0.2759-0.2345-0.5585-0.305-0.8542 0.2372 0.5591 0.4744 1.1187 0.7122 1.6777-0.1111-0.0158-0.3533-0.7032-0.4072-0.8235-0.1228-0.2747 0.1239 0.277 0 0zm-17.618-11.862c-0.14667-0.03689 0.20778-1.2061 0.25833-1.4155 0.19612 0.05505-0.00666 0.45122-0.05166 0.62377-0.06889 0.26392-0.13778 0.52785-0.20667 0.79177-0.02611-0.00624 0.12056-0.46201 0 0zm16.897 5.8608c0.1473-0.1935 0.3478 0.3326 0.0906 0.5489-0.1567-0.1561-0.2389-0.3531-0.0906-0.5489zm-2.4739-7.4409c0.0445-0.00284 0.2695 0.11862 0.1589 0.15552-0.2977 0.1033-0.7355-0.02952-1.0416-0.06187 0.0122-0.07435 0.7777-0.08797 0.8827-0.09365 0.0556-0.0034-0.2933 0.01646 0 0zm1.9506-2.5711c0.1767-0.24746 0.4994-0.12089 0.7433 0.31728-0.2516-0.10728-0.4994-0.21341-0.7433-0.31728zm-8.2589 0.00568-0.765 0.378c0.18945-0.25824 0.35333-0.57439 0.765-0.378zm2.5239 13.691c0.0878-0.1584 0.175-0.3167 0.2628-0.4751 0.0733 0.1584 0.1472 0.3173 0.2211 0.4751h-0.4839c0.1006-0.1822 0.1644 0 0 0zm2.915-0.4899c0.0794 0.159 0.1583 0.3185 0.2372 0.4774h-0.4583c0.0733-0.1589 0.1472-0.3184 0.2211-0.4774 0.0844 0.1703-0.085 0.1834 0 0zm6.3528-1.7418c-0.1039-0.0744-0.2784-0.117-0.2134-0.2543 0.1489 0.076 0.2978 0.1515 0.4462 0.2276-0.0217 0.1299-0.365 0.2838-0.4212 0.1617 0.0634-0.0454 0.1256-0.0902 0.1884-0.135-0.0961-0.0687-0.0772 0.055 0 0zm-1.4072 1.9093c-0.0489-0.0063-0.0973-0.0119-0.1462-0.0182 0.0378-0.2718 0.0756-0.5432 0.1134-0.8145 0.0439 0.2713 0.1333 0.5625 0.0328 0.8327-0.0489-0.0063 0.0983-0.2645 0 0zm-13.578-6.6935c-0.02167 0.17481-0.69389 0.00624-0.86834-0.01532 0.03445-0.18163 0.68834-0.00795 0.86834 0.01532-0.00389 0.03065-0.28334-0.03632 0 0zm11.783 11.076c0.2133-0.2713 0.2883-0.273 0.5655 0h-0.5655zm2.9844-10.968c-0.0056-0.03519-0.0117-0.06981-0.0172-0.105 0.2605-0.03916 0.5211-0.07889 0.7816-0.11806 0.025 0.16403-0.6027 0.19468-0.7644 0.22306-0.0056-0.03462 0.2589-0.0454 0 0zm-14.957 5.2126c0.29778 0.0806 0.32223 0.1692 0.22778 0.751-0.08278-0.2714-0.15167-0.499-0.22778-0.751zm-0.01277-0.3751c-0.74389-0.105 0.00388-0.4393 0.08722-0.3604-0.10611 0.1373-0.33056 0.1867-0.08722 0.3604-0.11056-0.0154-0.27223-0.1947 0 0zm9.6444 2.4916h-0.6356c0.2684-0.4052 0.4423-0.0618 0.6356 0zm-3.6361 0c-0.2345 0.0131-0.4261 0.0239-0.6172 0.0352 0.1739-0.1271 0.3505-0.4234 0.6172-0.0352zm13.647-11.209c0.0611-0.0159 0.3239 0.92118 0.2772 1.0568-0.0922-0.35247-0.1844-0.70437-0.2772-1.0568 0.0161-0.00398 0.0906 0.34508 0 0zm-19.962 5.9778c-0.00722-0.0318-0.01444-0.0636-0.02222-0.0954 0.175-0.0414 0.35-0.0834 0.525-0.1254 0.01889 0.1634-0.36278 0.1833-0.50278 0.2208-0.00722-0.0318 0.17112-0.0454 0 0zm13.506 2.8952c-0.0267-0.0125 0.24-0.7566 0.3455-0.7049-0.115 0.2349-0.2305 0.4699-0.3455 0.7049-0.0095-0.0045 0.115-0.235 0 0zm-6.4106-10.252c0.0156 0.0227 0.0311 0.0454 0.0467 0.06811-0.1167 0.07946-0.5134 0.43192-0.6106 0.3326 0.1883-0.13338 0.3767-0.26676 0.5639-0.40071 0.0156 0.0227-0.1878 0.13395 0 0zm8.6211 7.2576c-0.0039 0.0267-0.0078 0.0534-0.0117 0.0806-0.1383-0.0216-0.4444 0.0238-0.4294-0.1572 0.1467 0.0255 0.2939 0.0511 0.4411 0.0766-0.0039 0.0267-0.1472-0.0255 0 0zm-8.3272 2.3765c0.0011 0.0193 0.8433-0.0619 0.9155 0h-0.9155c0-4e-3 0.3055 0 0 0zm-7.3183-1.4258c-0.025-0.1305 0.31722-0.13 0.41333-0.1504-0.00945 0.1907-0.25945 0.1311-0.41333 0.1504-0.00389-0.0199 0.13611-0.017 0 0zm8.9922-7.8666c-0.0334 0.05676-0.4406-0.23271-0.5106-0.27584 0.1506-0.17766 0.3634 0.14757 0.5106 0.27584-0.0056 0.00965-0.1422-0.1243 0 0zm-8.9961 5.8727c-0.01-0.08854 0.43055-0.168 0.44277-0.021-0.14777 0.00738-0.29555 0.01419-0.44277 0.021-0.00223-0.01929 0.14722-0.00681 0 0zm8.3889 14.509c0.4944-0.5738 0.6988-1.7725 0.5105-2.5007-0.1133-0.4376-0.1411-0.8951-0.19-1.3441-0.0433-0.4018-0.0022-0.9427-0.2933-1.2339-0.0722 0.2202 0.1278 1.0864-0.1445 1.0574-0.0494-0.4506 0.0806-1.0142-0.1611-1.3996-0.1233 0.2162-0.1189 0.357-0.1189 0.6107-0.1355-0.2781-0.1494-0.5982-0.2733-0.8843-0.1339 0.2798-0.1589 0.5296-0.195 0.8383-0.1722-0.0238-0.0844-0.2287-0.0878-0.3746-5e-3 -0.2321-0.03-0.1964-0.2-0.298-0.1661 0.3621-0.325 0.6493-0.3461 1.058-0.02 0.3882-0.1717 0.7197-0.2155 1.0971-0.0189 0.1618 0.0705 0.3292 0.0266 0.4825-0.0505 0.1765-0.1922 0.3825-0.1683 0.5715 0.0817 0.6431 0.1194 1.6165 0.4878 2.1665 0.2866 0.4262 1.0077 0.5011 1.3689 0.1532 0.4977-0.5772-0.0434 0.042 0 0zm-0.0706-3.6535c0.1422 0.4575 0.0172 0.7469-0.3894 0.9121 0.0405-0.3491 0.075-0.6782 0.3894-0.9121zm-1.1667 0c0.3523 0.2231 0.3889 0.5466 0.3661 0.9359-0.3211-0.2434-0.4216-0.5017-0.3661-0.9359zm1.3167 1.9201c-0.0389 0.4337-0.18 0.6215-0.5667 0.714 0.0978-0.3502 0.1506-0.6759 0.5667-0.714zm0.0239-0.8865c-0.0445 0.3638-0.1933 0.609-0.5861 0.756 0.0711-0.407 0.1689-0.6959 0.5861-0.756zm-5e-3 1.8054c-0.0483 0.3355-0.1906 0.5801-0.5572 0.7078 0.0705-0.5329 0.1755-0.6618 0.5572-0.7078zm-0.8428-3.7522c0.2483 0 0.14 0.2179 0.14 0.4251 0 0.2202 0.1156 0.6374-0.14 0.6374v-1.0625c0.0467 0 0 0.3541 0 0zm-0.0644 4.4021c-0.3245-0.021-0.4961-0.2446-0.5084-0.6816 0.3434 0.1271 0.5311 0.3189 0.5084 0.6816zm-0.1917-0.8326c-0.1294-0.2202-0.2583-0.4399-0.4272-0.7277 0.4622 0.0744 0.5983 0.3014 0.4272 0.7277zm-0.4233-1.587c0.2522 0.0375 0.5039 0.1209 0.5361 0.4144 0.0772 0.7038-0.4278-0.2344-0.5361-0.4144 0.4683 0.0704 0.1683 0.2787 0 0zm6.6405-14.793c0.3711 0.11068 0.8461-0.26789 0.9156-0.63569 0.0372-0.19808-0.3234-0.18616-0.4134-0.16062-0.2372 0.06754-0.4466 0.27017-0.5172 0.51252 0.1211-0.04767 0.5445-0.2923 0.6006-0.16119-0.2134 0.11749-0.4267 0.23441-0.6395 0.35133 0.0178 0.03122 0.0361 0.06244 0.0539 0.09365 0.3645 0.10841-0.0155-0.00454 0 0zm0.9728 0.40696c0.4533-0.21171-0.165-0.45463-0.4039-0.39958-0.3722 0.08571-0.5561 0.45406-0.6267 0.8071 0.3439-0.13282 0.695-0.25087 1.0306-0.40752 0.0761-0.03576-0.3094 0.14416 0 0zm-0.7178 0.04029c-0.04-0.16176 0.4456-0.20716 0.5878-0.24519 0.0344 0.18673-0.4283 0.20603-0.5878 0.24519-0.0066-0.02724 0.2017-0.04994 0 0zm0.5667 0.55907c-0.1145 0.05335-0.2283 0.1067-0.3428 0.16006 0.1895 0.11011 0.8661 0.06073 0.5689-0.24576-0.2472-0.25541-0.555-0.17198-0.8306-0.01079 0.2017 0.03179 0.4028 0.06414 0.6045 0.09649-0.1667 0.07719-0.2322-0.03746 0 0zm-11.187 6.8563c0-0.3632-0.04833-0.7509 0.04556-1.1062 0.07944-0.3014 0.40278-0.5205 0.40944-0.8252 0.01556-0.6857-0.615-1.1851-0.60333-1.8748 0.00278-0.1413-0.17389-0.1572-0.26-0.1237-0.16445 0.0653-0.13389 0.2844-0.17556 0.4246-0.11166 0.3734-0.26388 0.7333-0.39444 1.0999-0.145 0.4058-0.15389 0.5574 0.07 0.9127 0.20944 0.332 0.27889 0.7214 0.25111 1.1113-0.21889-0.1822-0.42556-0.4047-0.48167-0.6975-0.08055-0.4195-0.00666-0.5228-0.40777-0.7861-0.605-0.3973-0.73112 0.5488-0.42667 0.9018 0.08333 0.0965 0.23944 0.0994 0.28889 0.2208 0.06389 0.1561 0.14833 0.2997 0.20555 0.4592 0.12889 0.3581 0.16889 0.7407 0.17834 1.1198 0.01111 0.4462-0.20445 1.2839 0.42166 1.3458-0.42166 1.1317-0.84389 2.2635-1.2656 3.3952-0.04889 0.1317-0.09834 0.2639-0.14778 0.3956 0.13222 0.1124 0.21 0.0687 0.23333-0.1311 0.16223-0.319 0.325-0.6368 0.48778-0.9552 0.29278-0.5733 0.58556-1.1465 0.87833-1.7192 0.06834 0.4109-0.01166 0.8162-0.07444 1.2214-0.07833 0.5069-0.04945 0.8531 0.25 1.2839 0.24778 0.3564 0.56-0.2424 0.63111-0.462 0.13334-0.4155-0.00444-0.8792-0.04111-1.3004-0.01944-0.2202-0.03889-0.4398-0.05778-0.6606-0.01722-0.1987 0.01-0.7935 0.16778-0.2696 0.13833 0.4597 0.25111 0.8406 0.52778 1.2294 0.185 0.2593 0.38278 0.8718 0.74052 0.8865 0.5017 0.021 0.1317-0.7821 0.0139-1.0131-0.2161-0.4234-0.46053-0.8309-0.67775-1.2538-0.215-0.4172-0.65389-1.0199-0.60278-1.5109 0.04611-0.4467 0.33944-0.8792 0.50611-1.2867 0.16666-0.4058 0.28778-0.8746 0.60612-1.1908 0.31-0.3076 0.2689-0.668 0.2794-1.0699 0.0134-0.4841-0.5533-0.042-0.68441 0.071-0.33611 0.2878-0.16056 0.5449-0.30278 0.8905-0.07333 0.1777-0.44667 1.2873-0.58889 1.2674 0-0.147 0.01778 0.0029 0 0zm-0.28778 3.695c-0.12611 0-0.06833-1.7294-0.06833-1.9746v-2.4134c0.17945 0.0176 0.06833 3.9356 0.06833 4.388-0.02277 0 0-1.4604 0 0zm0.15445-5.6491c-0.03556 0.2077-0.19556 0.2168-0.305 0.0896-0.145-0.168 0.05667-0.2979 0.15-0.4274 0.03944 0.0806 0.17333 0.2345 0.155 0.3378-0.01389 0.0794 0.01389-0.0784 0 0zm0.84167 5.2671c-0.105 0.0562-0.7-1.2793-0.66945-1.2958 0.22278 0.4314 0.44611 0.8639 0.66945 1.2958-0.01834 0.0096-0.22334-0.4319 0 0zm-1.2556 1.638c0.22278-0.1271 0.23833-0.1538 0.44333-4e-3 -0.22833 0.1692-0.22444 0.1879-0.44333 4e-3 0.08445-0.0477 0.06111 0.0511 0 0zm1.8533-0.5352c-0.0344 0.0187-0.0689 0.0375-0.1033 0.0567-0.0711-0.147-0.14278-0.294-0.21389-0.4398 0.11999-0.0545 0.25219 0.2792 0.31719 0.3831-0.0344 0.0187-0.0855-0.1374 0 0zm-0.61052-5.0776c-0.08-0.0357 0.17611-0.5329 0.21611-0.6277 0.08278 0.0375-0.17556 0.5318-0.21611 0.6277-0.01389-0.0056 0.08555-0.2026 0 0zm-2.1794-0.2957c0.11445-0.0607 0.25445 0.3638 0.30889 0.4722-0.12555 0.0523-0.25222-0.3581-0.30889-0.4722 0.01945-0.0102 0.08223 0.1658 0 0zm-0.10666-6.4914c-0.20778-0.01079-0.415-0.02157-0.62278-0.03179 0.20055 0.35133 0.585 0.26506 0.91722 0.31047-0.13055-0.60561-0.56889-0.79858-1.1383-0.58063 0.17833 0.21738 0.10944 0.24803 0.34055 0.14416 0.18-0.08116 0.35 0.09535 0.50334 0.15779-0.20723-0.01079-0.20889-0.08514 0 0zm-0.40111-0.83094c0.18166-0.00113 0.30722-0.01248 0.48 0.0596 0.15333 0.06414 0.26555 0.21795 0.35888 0.03632-0.39833-0.28662-0.57777-0.45292-1.065-0.42738 0.05445 0.13565 0.10889 0.2713 0.16334 0.40695 0.02111-0.02497 0.04166-0.04995 0.06278-0.07549 0.10777-5.6e-4 -0.02112 0.02554 0 0zm-0.42334 1.44c0.18222 0.24292 0.38389 0.34736 0.63222 0.12884-0.11111-0.05279-0.22222-0.105-0.33388-0.15779 0.17611-0.02554 0.35222-0.05051 0.52888-0.07605-0.30944-0.22363-0.60166-0.23044-0.82722 0.105 0.22778 0.30309 0.22222-0.33033 0 0zm5.7572-1.3872c-0.2027 0.26506-0.1594 0.53579 0.1528 0.86669 0.0789-0.34055 0.1806-0.64363-0.1528-0.86669zm-0.0616 1.5381c0.2211-0.27017 0.0839-0.48074-0.0706-0.7248-0.2161 0.28492-0.1355 0.5023 0.0706 0.7248zm2.0761 0.13508c0.2367-0.35133 0.1372-0.68393 0.0044-1.033-0.2772 0.38708-0.2789 0.59709-0.0044 1.033zm0.3439-0.84058c0.0478-0.32125 0.0861-0.57894 0.135-0.90813-0.4084 0.30309-0.4539 0.57723-0.135 0.90813zm0.0555-0.09933c-0.0383 0.30819-0.0683 0.54431-0.0977 0.77985 0.3822-0.29854 0.3961-0.42568 0.0977-0.77985z" clip-rule="evenodd" fill="#fff" fill-rule="evenodd"/>
</svg>
