<?xml version="1.0" encoding="utf-8"?>
<!-- Generator: Adobe Illustrator 24.1.1, SVG Export Plug-In . SVG Version: 6.00 Build 0)  -->
<svg version="1.1" id="Слой_1" xmlns="http://www.w3.org/2000/svg" xmlns:xlink="http://www.w3.org/1999/xlink" x="0px" y="0px"
	 viewBox="0 0 228.2 47" style="enable-background:new 0 0 228.2 47;" xml:space="preserve">
<style type="text/css">
	.st0{fill-rule:evenodd;clip-rule:evenodd;fill:#FFFFFF;}
	.st1{fill:#FFFFFF;}
</style>
<g>
	<path class="st0" d="M11,10.6c0.4,0.2,0.7,0.3,1.1,0.5C11.9,11.6,10.7,10.9,11,10.6C11.3,10.7,10.9,10.6,11,10.6z M0.8,12.9
		c-0.1-0.6,0.1-1.4,0.8-1.5c0,1-0.2,2-0.3,3c-0.1,1.1-0.1,2.2,0,3.3c0.1,2.1,0.5,4.5,1.8,6.1c0.1,0.1,0.3,0.3,0.4,0.5
		c-0.2,0.2-0.4,0.3-0.6,0.5c-0.3,0.3-0.5,0.7-0.5,1.1c0,0.7,1,1.5,0.1,1.9c-0.7,0.4-1.3,0.8-1.3,1.6c-0.1,0.8,0.3,1.6,1.1,1.9
		c0.3,0.1,1.6,0.1,1.5,0.6c-0.1,0.4-0.4,0.6-0.4,1c-0.1,0.4,0.1,0.9,0.4,1.2c0.6,0.6,1.3-0.1,1.9,0.2c0.5,0.4-0.4,2-0.5,2.4
		c-0.2,0.9-0.1,1.7,0.5,2.5c0.2,0.2,0.6,0.5,0.6,0.8c0,0.3-0.6,0.7-0.8,1c-0.2,0.3-1.9,1.8-0.9,2c0.6,0.1,1.8-1.8,2.1-2.2
		c0.5,0.9-0.7,1.9-1.2,2.5c-0.3,0.3-2,2.1-1,2.3c0.6,0.1,1.8-2,2.1-2.4c0.2-0.2,0.4-0.5,0.6-0.7c0.3-0.3,0.4,0,0.7,0.2
		c0.5,0.3,1.1,0.5,1.7,0.6c1.1,0.2,2.1,0.1,3.2-0.1c0.2,0,1.5-0.4,1.5-0.1c0.1,0.4-0.1,0.9,0.3,1.1c1,0.5,2,0.6,3.2,0.8
		c1.3,0.2,2.4,0.7,3.8,0.7c1.2,0,2.2-0.7,3.3-0.7c0.9,0,2.3,0.1,3.1-0.4c0.3-0.2,0.5-0.5,0.6-0.8c0.1-0.2,0-0.4,0.1-0.6
		c0.1-0.4,0.3-0.2,0.6-0.1c1.1,0.2,2.3,0.4,3.4,0.3c0.5,0,0.9-0.1,1.4-0.3c0.3-0.1,0.6-0.2,0.8-0.4c0.4-0.2,0.4-0.5,0.8-0.1
		c0.4,0.5,0.8,1.1,1.3,1.6c0.3,0.4,0.7,1.1,1.1,1.4c0.4,0.2,0.4-0.5,0.4-0.7c-0.2-0.5-0.7-1-1.1-1.4C36.9,43,35.5,41.9,36,41
		c0.5,0.5,0.9,1,1.4,1.5c0.2,0.2,0.4,0.6,0.6,0.7c0.3,0.1,0.6-0.2,0.5-0.5c-0.2-0.8-2.5-1.9-1.9-2.7c0.9-1.2,1.3-2.4,0.7-3.8
		c-0.1-0.3-0.8-1.3-0.3-1.6c0.6-0.3,1.2,0.3,1.8-0.2c0.5-0.4,0.6-1.2,0.3-1.7c-0.2-0.4-0.4-0.7,0.2-0.9c1.3-0.3,2.4-0.6,2.2-2.2
		c-0.1-0.5-0.3-0.9-0.7-1.3c-0.3-0.2-1.1-0.4-1-0.8c0-0.5,0.5-1,0.5-1.5c0-0.6-0.4-1.2-0.9-1.5c1.7-1.5,2.1-4,2.3-6.2
		c0.1-1.4,0.1-2.7-0.1-4.1c-0.1-0.6-0.2-1.1,0.5-1.2c0.3-0.1,0.5-0.1,0.8-0.2V12c-0.4-0.4-0.7-0.7-0.9-1.3c-0.2-0.5,0-0.9,0-1.4
		c0-1-0.4-1.9-1.3-2.5c-0.3-0.2-0.9-0.5-0.8-0.9c0-0.4,0.6-0.4,0.9-0.7c0.4-0.3,0.6-0.7,0.9-1.1c0.3-0.4,0.9-0.9,0.8-1.5
		c-0.8,0.5-1.8,1-2.4,1.8c-0.6,0.9-1.5,1.7-2.2,2.5c-0.2-0.4-0.6-1.1-0.5-1.5c0.1-0.5,0.5-0.4,0.7-0.7c0.6-0.6,1.3-1.8,1.4-2.7
		c-0.7,0.6-1.5,1.1-2.2,1.8c-0.2,0.3,0,0.6-0.3,0.8c-0.4,0.4-0.8,0.8-1.2,1.2c-0.1-0.1-0.2-0.6-0.2-0.8c-0.6,0.4-0.9,0.9-1.3,1.4
		c0.1-0.7,0.5-1.9,0.2-2.6c-0.3-1.1-1.3,0.7-1.5,1c-0.4,0.6-3.7,4.5-3,5c0.2-0.2,0.3-0.5,0.5-0.7c0.3,0.3-0.5,1.1-0.8,1.5
		c1.2-0.3,1.3-1.3,1.4-2.4c0.1,0.3,0.2,0.6,0.3,0.9C31.6,9,32.8,7.4,33,7.6c-0.4,0.5-0.7,0.9-1.1,1.4c-0.1,0.2-1.1,1.2-0.3,0.8
		c0.9-0.5,1.5-1.4,2.2-2.1c-0.4,0.9-1.3,1.5-2,2.2c0.9,0.2,1.2-0.6,1.9-0.8c-0.6,0.5-1.4,1.1-1.8,1.8c0.9-0.2,1.6-0.8,2.3-1.4
		c0.1-0.1,0.3-0.3,0.4-0.4c0.2,0.1,0.3,0.2,0.5,0.1C35.5,9,35.7,8.8,36,8.8c-0.1,0.3-0.2,0.6-0.3,1c-0.2-0.1,0-0.3,0-0.5
		c-1,0-1.7,0.7-2.5,1.3c-0.2,0.1-0.3,0.3-0.5,0.4c-0.3,0.2-0.2,0.3,0.2,0.2c0.5-0.2,0.9-0.6,1.4-0.8c-0.5,0.7-1.6,0.8-1.9,1.7
		c1.2-0.4,2.3-1,3.3-1.7c-0.1,0.1-0.1,0.3-0.2,0.4c0.4,0.1,0.7,0.2,1.1,0.3c-0.3,0.2-1.1,1.2-1.3,0.9c0.3-0.3,0.6-0.5,0.9-0.8
		c-0.8-0.4-1.1-0.2-1.9,0.2c-0.6,0.3-1.3,0.6-2,1c0.8,0.3,1.4-0.2,2.2-0.2c-0.7,0.3-1.4,0.6-2.1,1c-0.7,0.3-1.7,0.1-2.4,0.1
		c0.2-0.2,0.3-0.3,0.5-0.5c-0.2-0.2-0.5,0-0.8,0.1c0.2-0.2,0.6-0.4,0.5-0.7c-0.2,0-0.7,0.2-0.8,0.1c0.3-0.1,0.5-0.3,0.8-0.4
		c-0.3-0.1-0.5-0.2-0.8-0.3c0.1-0.4,0.2-0.7,0.3-1.1h-0.8c0.2-0.3,0.4-0.6,0.7-0.9c0,0.3,0.1,0.6,0.1,0.8c0.2-0.1,0.2-0.8,0.3-1.1
		c0.2-0.5,0.5-0.8,0.8-1.2c0.2-0.3,0.5-0.7,0.6-1.1c0.1-0.6-0.4-0.7-0.8-0.9c0-0.4,1-0.9,0.3-1.4c-0.4-0.3-0.9-0.4-1.2-0.8
		c-0.4-0.4-0.7-0.8-1.2-0.8c-0.9,0-2,1-1.6,1.9c0.4,0.8,0.7,1.5-0.6,1.6c0.1-0.5,0.3-1.2-0.3-1.5c-0.4-0.2-0.1-0.3-0.1-0.7
		c0-0.3-0.1-0.5-0.4-0.7C25,3.5,24.2,3.5,24,4c-0.1,0.3,0,0.6-0.1,0.9c-0.2,0.3-0.5,0.6-0.7,0.9c-0.3-0.2-0.4-0.2-0.3-0.6
		c0.1-0.3,0.3-0.6,0.3-1c0.1-0.6-0.1-1.1-0.6-1.3c-0.3-0.1-0.6-0.1-0.5-0.4c0.1-0.3,0.2-0.6,0-0.8c-0.3-0.5-1.1-0.7-1.6-0.2
		c-0.4,0.3-0.2,0.8-0.1,1.2c-0.4,0.1-0.8,0.2-1.1,0.5c-0.3,0.3-0.2,0.8-0.1,1.2c0.1,0.7,0.6,1.3-0.1,1.8c0-0.3,0.1-0.6-0.1-0.9
		c-0.1-0.1-0.3-0.3-0.4-0.4c0-0.2,0.1-0.4,0-0.7c-0.1-0.7-0.9-1-1.5-0.6c-0.3,0.2-0.4,0.5-0.4,0.8c0,0.4-0.2,0.4-0.4,0.7
		c-0.2,0.3-0.2,0.8-0.1,1.2c0.1,0.5-0.4,0.3-0.7,0.1c-0.6-0.7,0.5-1.1,0.4-1.9C16,3.8,14.9,3,14.2,3.2c-0.4,0.1-0.7,0.4-1,0.7
		c-0.3,0.3-0.7,0.5-1.1,0.7c-0.7,0.5-0.2,1,0.1,1.6c-0.8,0.2-0.9,0.7-0.7,1.4c-0.9-1.3-1.9-2.5-2.7-3.8C8.3,3.1,8,3.8,8,4.3
		c0,0.8,0.1,1.5,0.2,2.2C8,6.2,7.5,5.3,7.1,5.1C6.8,5,6.8,5.5,6.5,5.2C6.3,5,6.1,4.9,6,4.7C5.9,4.5,5.8,4.3,5.8,4.1
		c0-0.3-0.6-0.6-0.7-0.8c-0.5-0.5-1-1-1.7-1.3C3.9,3,4.3,4.1,5,4.7c0.2,0.1,0.7,0.5,0.6,0.8C5.5,6,5.3,6.5,5.1,7
		C4.6,6.4,4,5.9,3.5,5.4C3.2,5.1,3.1,4.7,2.9,4.4C2.6,4,2.1,3.8,1.7,3.5C1.4,3.3,1,3,0.7,2.8C0,2.5,0.8,3.4,0.9,3.5
		c0.4,0.6,1,1.6,1.7,2c0.9,0.4,0,1-0.5,1.5C1.4,7.6,0.8,8.3,0.8,9.3c0,0.8,0.5,1.4-0.2,2C0.3,11.6,0,11.9,0,12.3
		C0,12.9,0.2,12.8,0.8,12.9C0.7,12.1,0.5,12.9,0.8,12.9L0.8,12.9z M33.2,16.5c1,0,2.1,0.1,3.1-0.4c0.2,0.4-1,0.5-1.3,0.6
		c0.3,0,0.8,0,0.9,0.3c-0.3,0.2-1,0.9-1.2,0.6c0.2-0.2,0.4-0.3,0.7-0.5C34.8,16.6,34,16.6,33.2,16.5C34.2,16.5,33.8,16.6,33.2,16.5z
		 M7.8,20.2c0.2-0.2,0.4-0.4,0.6-0.6c-0.5-0.4-1.3-0.7-0.6-1.3c0.5-0.4,1.3-0.5,1.9-0.5c-0.5,0.3-1.2,0.2-1.7,0.6
		c-0.8,0.7,1.2,1,1.7,0.8c-0.5,0.2-1,0.5-1.5,0.7c0.6,0.4,0.9,0.5,1.6,0.6c-0.2,0.1-0.5,0.3-0.8,0.1C8.7,20.4,8.3,20.4,7.8,20.2
		C8.1,20,8.2,20.3,7.8,20.2L7.8,20.2z M23.3,22.1c0.1-0.2,0.4-0.2,0.5-0.3c0.2,0.8,0.4,1.7,0.9,2.4c-0.3,0-0.5,0-0.7-0.3
		c-0.2-0.2-0.8-0.1-1-0.2c-0.3,0.3-0.4,0.6-0.9,0.3c-0.3-0.2-0.5-0.4-0.9-0.4c-0.5,0.1-0.9,1-1.4,0.3c-0.4-0.7-1.3,0.2-1.8,0.3
		c0.3-0.3,0.5-0.7,0.5-1.1c0.1-0.4,0-1.2,0.5-1.2c0.5,0,0.8,1.1,1,1.5c0.4,0.9,0.6-0.5,0.7-0.9c0.1-0.3,0.2-0.6,0.3-0.9
		c0.1-0.4,0.1-0.3,0.5-0.3c0.4,0,0.4,0.8,0.6,1.2c0.1,0.2,0.5,1.1,0.7,1.1C23,23.8,23.2,22.4,23.3,22.1C23.3,22,23.1,22.7,23.3,22.1
		z M21.4,39.1c-0.5-0.4-0.9-0.9-1.5-1.2c-0.6-0.3-1.3-0.4-1.9-0.6c-0.5-0.2-0.3-1.1-0.3-1.5c0-0.8,0-1.6,0-2.4c0-0.8,0-1.6,0-2.4
		c0-0.4-0.2-1.6,0.2-1.8c0.4-0.2,1,0.2,1.4,0.2c0.7,0,1.3-0.3,1.9-0.3c0.7,0,1.4,0.4,2.1,0.3c0.3,0,1.1-0.4,1.4-0.2
		c0.3,0.3,0.1,1.2,0.1,1.7c0,0.8,0,1.6,0,2.4c0,0.8,0,1.6,0,2.4c0,0.4,0.2,1.4-0.2,1.6c-0.5,0.3-1.2,0.3-1.8,0.5
		C22.2,38,21.9,38.5,21.4,39.1C21.1,38.7,21.7,38.8,21.4,39.1z M17.2,36.4c0,1-0.6,0.8-1.5,0.8c-1.3,0-2.6,0.1-3.9,0
		c-1.2-0.1-1.4-1-1.5-2c0-1.4,0-2.8,0-4.2c0-5.5-0.1-11,0-16.6c0-0.9,1.4-0.5,2.1-0.5h4c1,0,0.8,0.6,0.8,1.4v4.1
		C17.2,25.1,17.2,30.8,17.2,36.4L17.2,36.4L17.2,36.4z M25.3,19.8c0-1.3,0-2.5,0-3.8c0-0.5-0.2-1.3,0-1.8c0.2-0.4,0.9-0.3,1.3-0.3
		c1.2,0,2.5,0,3.7,0c0.5,0,1.2-0.1,1.7,0c0.4,0.2,0.3,0.9,0.3,1.2c0,5.4,0,10.9,0,16.3c0,1.3,0,2.6,0,3.8c0,0.8-0.1,1.5-0.9,1.7
		c-1,0.3-2.2,0.1-3.2,0.1c-0.7,0-2.9,0.4-2.8-0.6c0-5.2,0-10.4,0-15.6c0.5,0.7,1.1,1.4,1.6,2.1c0.3,0.4,0.5,0.7,0.6,1.2
		c0.1,0.4,0.4,0.6,0.5,1c0.2,0.8-0.7,2.1-1.1,2.8c-0.2,0.5-0.4,1-0.7,1.5c-0.2,0.5-0.2,0.6,0,1.2c0.9-0.5,1.3-2,1.8-3
		c0.3-0.7,0.5-0.8,0.4,0.1c-0.1,0.7-0.2,1.5-0.3,2.2c-0.1,0.7-0.1,1,0.2,1.6c0.3,0.6,0.6,0.8,1,0.1c0.7-1,0-2.3-0.1-3.4
		c0.4,0.5,1.2,2.9,1.9,2.5c-0.1-1.3-0.7-2.4-1.2-3.6c-0.2-0.6-0.6-1.1-0.7-1.7c-0.1-0.7,0.3-1.3,0.6-1.9c0.4-0.8,0.1,0.7,0.1,0.9
		c-0.1,0.7,0.1,1,0.8,1.2c1.4,0.4,0.9-1.6,0.9-2.3c0-0.6,0-1.2-0.1-1.8c0-0.3-0.1-0.5-0.1-0.7c-0.1-0.3,0.1-0.4,0.2-0.7
		c0.1-0.4,0.2-0.9-0.1-1.2c-0.4-0.3-0.8,0.2-1,0.5c-0.3,0.4-0.2,0.9-0.4,1.4c-0.3,0.6-0.6,1-0.8,1.6c-0.3-0.8,0.4-1.7,0.5-2.5
		c0.1-0.4,0.1-0.8,0-1.2c-0.1-0.4-0.4-0.6-0.5-1c-0.1-0.3-0.3-0.5-0.5-0.8c-0.4,0.4-0.5,0.7-0.7,1.2c-0.4,0.7-0.5,1.3-0.3,2.2
		c0.1,0.4,0.2,0.6,0.4,0.9c0.2,0.4,0.1,0.8,0.1,1.2c0,0.3,0.1,0.9-0.2,1c-0.1-0.5-0.1-1-0.2-1.4c-0.1-0.6-0.2-2.1-0.8-2.4
		c-0.6-0.4-1.4,0.2-1.9,0.6C25.3,20.1,25.3,19.9,25.3,19.8C25.3,18,25.3,19.9,25.3,19.8L25.3,19.8z M20,21.9c0-0.3,0.3-0.9-0.1-1.1
		c-0.3-0.2-1.1-0.2-1.5-0.1c-0.5,0.1-0.5,0.5-0.4,0.9c0.1,0.8,0.1,1.3-0.2,2c-0.3-2.1-0.1-4.4-0.1-6.5c0-0.6,0-1.1,0-1.7
		c0-0.4-0.1-1,0-1.4c0.2-0.6,2.5-0.2,3-0.2c1.2,0,2.3,0,3.5,0c1,0,0.6,2,0.6,2.6c0,1.2,0,2.3,0,3.5v1.7c0,0.4,0.2,1.6-0.1,1.9
		c-0.1-0.5-0.5-1-0.3-1.5c0.1-0.4,0.4-1-0.1-1.3c-0.4-0.2-1.5-0.2-1.8,0.1c-0.3,0.3,0.2,1.3,0.1,1.8c-0.6-0.7-0.3-1.2-0.3-2
		c0-0.6-0.6-0.5-1-0.5c-0.6,0-1.6,0.1-1.3,1c0.2,0.4,0.4,0.7,0.3,1.2c-0.1,0.2-0.1,0.4-0.4,0.4C20.1,22.5,20,22.2,20,21.9
		C20,21.9,20,22.2,20,21.9z M33.4,38.8c1.4-0.9,1.7-2.4,1.2-3.9c-0.3-0.7-0.9-1.7-0.9-2.5c0-0.8,1.3-0.5,1.8-0.5
		c0.9-0.1,0.4-0.9,0.6-1.4c0.2-0.5,1.1-0.4,1.3-0.9c0.3-0.7-0.9-1-0.6-1.6c0.1-0.4,0.5-0.6,0.5-1c0-0.4-0.3-0.7-0.5-1
		c0.7-0.4,2.7-1.8,2.8,0c0,0.6-0.5,0.9-0.5,1.5c0.1,0.7,0.7,0.9,1.2,1.2c1.2,0.7,0.5,2-0.6,2.1c-0.5,0.1-1.2,0.2-1.4,0.7
		c-0.3,0.7,0.4,1.1,0.4,1.7c-0.1,0.8-1.9,0.1-2.3,0.9c-0.5,1,0.6,2.1,0.7,3c0.1,1.2-0.8,2.1-1.6,2.8c-0.6,0.4-1.2,0.8-2,0.8
		c-0.8,0.1-1-0.7-1.4-1.3C32.5,39.4,33,39.1,33.4,38.8C34.6,38.1,33,39.1,33.4,38.8z M5.9,27.8c0.4,0.6-0.7,1.1-0.6,1.6
		c0.1,0.4,0.6,0.6,0.9,0.7c0.4,0.1,0.4,0.5,0.4,0.8c0,1.6,1.9,0.2,2.3,1.2c0.2,0.5-0.2,1.2-0.4,1.6c-0.3,0.8-0.8,1.6-0.8,2.4
		c0,1.7,1.5,2.6,2.9,3.2c-0.3,0.4-0.5,1.1-1.1,1.3C9.1,41,8.5,40.8,8,40.5c-1-0.5-2.2-1.6-2.2-2.8c0-0.7,0.2-1.4,0.5-2.1
		c0.2-0.6,0.5-1.3-0.1-1.7c-0.6-0.4-1.2,0-1.8-0.2c-0.6-0.2,0-1.1,0.1-1.4c0.2-1-0.7-1.2-1.5-1.4c-1.4-0.2-1.4-1.5-0.3-2.2
		c0.3-0.2,0.9-0.5,1-0.9c0.1-0.4-0.3-1-0.4-1.3c-0.3-0.6,0-1.2,0.6-1.4c0.6-0.2,1.6,0.7,2.1,1C5.4,26.6,5.4,27.1,5.9,27.8
		C6,28,5.3,27,5.9,27.8L5.9,27.8z M27.8,43.4c0,1.3-2.8,0.9-3.6,0.9c-0.7,0-1.3,0.5-2,0.7c-0.8,0.1-1.6,0.1-2.4-0.1
		c-0.7-0.1-1.4-0.4-2.1-0.5c-0.7-0.1-1.4-0.1-2-0.3c-1-0.3-0.7-1.5-0.7-2.3c1,0,2.1,0,3.1,0.1c1,0.1,1.9,0.5,2.9,0.6
		c2.2,0,4.5-0.5,6.6-0.9C27.7,42.2,27.8,42.8,27.8,43.4C27.8,43.6,27.8,42.8,27.8,43.4z M39,21.1c0.2-2.2,0.4-4.4,0.3-6.5
		c-0.1-1.1-0.2-2.2-0.5-3.3c-0.2-0.7,1.1-1.5,1.5-1.9c0.6,2.6,1,5.2,0.9,7.9c-0.1,2.3-0.4,5.8-2.7,7C38.6,23.1,38.8,22.1,39,21.1
		C39.1,19.8,38.8,22.1,39,21.1L39,21.1z M4,10.7c0.5,0.6-0.1,2.2-0.2,2.9c-0.1,1.2-0.2,2.4-0.1,3.6c0,1.2,0.2,2.4,0.3,3.7
		c0.2,1,0.5,2.1,0.5,3.2c-2.1-1-2.5-4.1-2.7-6.2C1.6,15,2,12.1,2.8,9.4C3.2,9.8,3.6,10.2,4,10.7C4.1,10.8,3.6,10.2,4,10.7L4,10.7z
		 M5.6,12.3c0.2,0.2,0.1,0.9,0.1,1.1C5.8,14,6,14.5,6,15.1c0,1.2,0,2.5,0.1,3.7c0.3,2.5,1,5,1.5,7.5c-0.5-0.8-2.2-1.1-2.4-2.1
		c-0.3-1.4-0.5-2.8-0.7-4.2c-0.1-1.4-0.2-2.9-0.2-4.4c0-0.8,0.1-1.6,0.2-2.3c0.1-0.6,0-1.4,0.4-1.9C5.1,11.8,5.4,12,5.6,12.3
		C5.7,12.4,5.4,12,5.6,12.3L5.6,12.3z M36.4,21.2c0.4-1.9,0.5-3.7,0.5-5.6c-0.1-1.5-0.3-3.2,1.3-4c0.4,2.5,0.6,5.1,0.4,7.7
		c-0.1,1.3-0.3,2.6-0.6,3.9c-0.1,0.6-0.1,1.1-0.7,1.5c-0.6,0.4-1.2,0.7-1.8,1.1C35.8,24.3,36.1,22.8,36.4,21.2
		C36.7,19.7,36.1,22.7,36.4,21.2z M17.1,39.3c-0.8,0-2.2-0.1-2.7,0.7c-0.3,0.6,0.2,1.6-0.3,2.1c-0.2,0.2-0.6,0.3-0.9,0.3
		c-0.7,0.1-1.5,0.3-2.2,0.3c-0.9,0-3.4-0.1-3.4-1.4c0.9,0.1,2.7,0.8,3.2-0.3c0.4-1.1,1.5-0.9,2.4-1.2c1.3-0.4,2.4-1.3,3.9-1.2
		c0.8,0,1.3,0.3,1.9,0.7C18.8,39.7,17.6,39.3,17.1,39.3C16.5,39.3,17.7,39.3,17.1,39.3z M26,38.5c1,0.3,2,0.7,3,1.1
		c0.7,0.2,2.2,0.2,2.6,0.9c0.3,0.5,0.7,1.1,1.3,1.2c0.8,0.2,1.6-0.2,2.3-0.5c-0.4,1.4-2.3,1.7-3.6,1.5c-1.1-0.2-3.3,0.1-3.2-1.5
		c0.1-1.6-1.4-2.1-2.8-1.9c-0.4,0.1-0.8,0.1-1.2,0.1c-0.3,0-1,0.1-0.4-0.4C24.6,38.6,25.3,38.4,26,38.5C27.1,38.8,25.2,38.3,26,38.5
		z M8.4,10.3c0.4,0.3,0.9,0.5,1.3,0.8c0.3,0.2,0.5,0.1,0.2-0.2c-0.2-0.1-0.4-0.3-0.7-0.4C8.5,9.9,8,9.3,7,9.2c0,0.2,0.2,0.4,0,0.5
		C6.8,9.4,6.7,9,6.6,8.7c0.3,0,0.5,0.3,0.8,0.4c0.1,0,0.2,0,0.3,0c0.3-0.1,0.3,0,0.6,0.3c0.6,0.6,1.4,1.2,2.2,1.5
		c-0.2-1-1.3-1.2-1.8-2c0.7,0.2,1,1.2,1.9,1C10.3,9.4,9.9,9,9.6,8.6c-0.2-0.2-1-0.8-0.7-1c0.5,0.5,0.9,1,1.4,1.5
		c0.4,0.4,1.6,1.2,0.8,0.2c-0.3-0.3-0.5-0.7-0.8-1C10,8.1,9.5,7.6,9.7,7.4c0.5,0.6,1,1.2,1.5,1.9c0.1-0.3,0.1-0.6,0.2-0.8
		c-0.1,1.1,0.3,1.9,1.3,2.3c0-0.6-0.7-0.8-0.7-1.4c0.2,0.2,0.3,0.5,0.5,0.7c0.1-0.2,0.2-0.4,0.3-0.7c0.3,0.3,0.7,0.7,1,1
		c-0.1,0.2-0.8-0.1-1-0.1c0.1,0.3,0.3,0.7,0.4,1c0.1,0.4-0.4,0.5-0.7,0.6c0.3,0.1,0.5,0.2,0.8,0.3c-0.1,0.2-0.6,0-0.8,0
		c-0.1,0.3,0.3,0.4,0.5,0.6c-0.1,0.1-0.4,0-0.5-0.1c-0.4-0.1-0.3,0.1-0.4,0.4c0.2,0,0.4,0.1,0.6,0.1c0,0.1-2,0.2-2.2,0.1
		c-0.8-0.4-1.6-0.8-2.4-1.1c0.7,0,1.3,0.6,2,0.2c-0.6-0.3-1.3-0.6-1.9-0.9c-0.7-0.4-1.1-0.6-1.8-0.1C6.7,11.5,7,11.8,7.3,12
		c-0.1,0.1-1.5-0.8-0.9-1c0.4-0.2,0.8-0.1,0.5-0.7c1,0.8,2.1,1.3,3.3,1.7C9.9,11.1,8.8,11,8.4,10.3C8.9,10.6,8.9,11,8.4,10.3
		L8.4,10.3z M12.1,7.7c-0.1-0.3,0.4-0.8,0.4-0.1c0,0.3,0.2,0.7,0.4,0.9c0.4,0.5,0.7-1.1,0.9-1.3c0.4-0.7,0.1-0.9-0.2-1.5
		c-0.2-0.6,0.5-1.1,1-1.3c-0.1,0.6-0.7,1.4-0.3,2c0.3,0.6,1.3,0.9,1.8,1.1c-0.4,0.2-1.4,0.4-1.3,1.1C14.9,9.2,15.5,9,16,8.9
		c-0.6,0.4-0.9,0.5-1.5,0.2c-0.3,1,1.1,0.9,1.7,1.4c0.6-1.4,1.9-0.3,1.7,0.9c-0.1,0.6-0.7,0.9-1.2,0.8c-0.4-0.1-0.5,0.2-0.5,0.5
		c-1.2-0.3-1.1-1.3-1.7-2.1c-0.3-0.5-1.1-2.2-1.8-1.6C12.5,8.5,12.3,8.1,12.1,7.7C12,7.6,12.2,8.1,12.1,7.7L12.1,7.7z M30.5,7.6
		c-0.1,0.3-0.3,1-0.6,1.2c-0.2,0.1-0.3-0.1-0.5,0c-0.3,0.2-0.5,0.5-0.7,0.8c-0.4,0.6-0.7,1.1-0.9,1.8c-0.2,0.5-0.5,1-1.1,1.2
		c-0.1-0.6-0.4-0.3-0.8-0.3c-0.6,0-1-0.8-1-1.2c-0.1-1.2,1.1-1.9,1.6-0.6c0.6-0.5,2-0.4,1.7-1.4c-0.4,0.4-1,0.2-1.4-0.1
		c0.5,0.1,1.3,0.2,1-0.6c-0.2-0.6-0.8-0.7-1.4-0.8C27,7.2,28,7,28.4,6.3c0.4-0.6-0.1-1.4-0.3-2c0.5,0.1,1,0.4,1,0.9
		c0,0.7-0.6,1.1-0.2,1.8c0.1,0.2,0.4,0.5,0.5,0.7c0.1,0.2-0.2,0.6,0,0.7c0.7,0.2,1-0.7,0.7-1.2C30.4,7.2,30.7,7.2,30.5,7.6z
		 M35.5,18.2c0.2-0.3,0.5-0.5,0.7-0.8c0.3,0.1,0,1.1,0,1.4c-0.1,1.1-0.3,2.2-0.6,3.2c-0.5,2.2-1,4.3-1.5,6.4C33,27.8,33,27.1,33,26
		c0-1.3,0.8-2.3,1.1-3.4c0.1-0.5,0.2-1.1,0.5-1.5c0.2-0.2,0.8-0.3,0.7-0.7c0-0.2-0.2-0.3-0.3-0.5c0.2-0.2,0.4-0.3,0.6-0.5
		C35.9,18.9,35.7,18.6,35.5,18.2C35.7,17.9,35.9,19,35.5,18.2z M6.9,18.5c-0.2,0.3-0.1,0.6,0.1,0.9c0.2,0.2,0.4,0.2,0.3,0.6
		c0,0.1-0.1,0.3-0.1,0.4c0,0.3,0.5,0.4,0.7,0.5c0.5,0.2,0.6,1.1,0.7,1.5C8.9,23,9.1,23.5,9.4,24c0.3,0.5,0.4,1,0.5,1.6
		c0,0.5,0,1.1-0.1,1.6c0,0.7-0.5,0.9-0.9,1.4C8.1,25,7,21.5,6.7,17.8C7,18,7.2,18.1,6.9,18.5C6.7,18.9,7.2,18.1,6.9,18.5L6.9,18.5z
		 M6.6,28.8c0.6-0.7,0-1.4-0.2-2.1c0.5,0,0.9-0.2,1.3,0.2c0.3,0.4,0.5,0.9,0.5,1.3c0,0.3-0.3,1.3-0.1,1.5c0.6-0.4,1.2-0.7,1.7-1.1
		c0.1,1.6,0,3.3,0,4.9c0,0.4,0.1,1,0,1.4c-0.1,0.3-0.7,0.2-1,0.2c0.4-0.9,1.8-3.6,0.1-4c-0.3-0.1-1.4,0.1-1.5-0.3
		c-0.1-0.4,0.1-0.7-0.2-1c-0.3-0.3-0.7-0.5-1.1-0.6C6.2,29.1,6.4,29,6.6,28.8C6.9,28.4,6.4,28.9,6.6,28.8L6.6,28.8z M24.3,27.5
		c-1,0.3-1.7,0-2.7-0.1c-1-0.2-1.8,0.7-2.8,0.2c-0.3-0.1-0.6-0.1-0.8-0.2c-0.3-0.1-0.2-1-0.1-1.2c0.1-0.4,0.7-0.2,0.8-0.1
		c0.2,0.2,0.3,0.5,0.5,0.8c0.1-0.1,0.4-0.2,0.3-0.4c0-0.2,0-0.4,0.2-0.5c0.2-0.1,0.8-0.1,1,0c0.2,0.1,0.2,0.3,0.2,0.5
		c0,0.2,0.3,0.3,0.4,0.4c0.2-0.2,0.3-0.8,0.6-0.9c0.3-0.1,0.8-0.1,1,0.1c0.2,0.1,0.2,1.1,0.6,0.8c0.3-0.2,0.2-0.7,0.5-0.9
		c0.5-0.3,0.7,0.5,0.9,0.8c-0.2,0.1-0.1,0.3-0.1,0.5C24.8,27.4,24.5,27.5,24.3,27.5C23.4,27.8,24.9,27.4,24.3,27.5z M21.5,40.5
		c0.4-0.7,0.7-1.6,1.3-2.2c0.5-0.5,1.3-0.4,2-0.5c-0.5,0.2-1.2,0.4-1.5,0.8C22.9,39,23,39.5,23,40c0,0.4,0.2,1.2-0.1,1.5
		c-0.2,0.3-1.4,0.1-1.7,0.1c-0.5,0-1.1,0.1-1.3-0.4c-0.2-0.5-0.1-1.1-0.1-1.6c0.1-1.2-1.1-1.5-2.1-1.8
		C19.5,37.8,20.9,38.9,21.5,40.5C21.9,39.8,20.8,38.7,21.5,40.5z M21.3,11.4c-0.2-0.5-0.5-1-0.7-1.4c-0.1-0.2-0.2-0.4-0.3-0.6
		c-0.2-0.4,0-0.3,0.3-0.6c-0.2-0.2-0.4-0.4-0.6-0.7c0.1-0.3,0.2-0.6,0.3-0.8c-0.3,0-0.5-0.1-0.8-0.1c0.4-0.3,1-1,1.6-1.1
		c0.8-0.1,1.3,0.6,1.9,1c-0.6,0.2-0.8,0.2-0.5,0.9c0.2,0.4-0.2,0.3-0.4,0.6c-0.1,0.2,0.2,0.5,0.3,0.5C22.1,9.9,21.7,10.7,21.3,11.4
		C20.9,10.6,21.7,10.6,21.3,11.4L21.3,11.4z M34.9,29.1c-0.2-0.7,0.2-3.1,1.4-2.4c0.4,0.2-0.3,0.8-0.4,1.1c-0.2,0.6,0.2,1.2,0.6,1.6
		c-0.9,0.2-1.5,0.8-1.2,1.8c-0.9,0.2-1.8-0.2-2.3,0.8v-3.4c0.4,0.3,0.9,0.6,1.3,0.9C34.9,29.8,35.1,29.8,34.9,29.1
		C34.7,28.1,35,29.3,34.9,29.1z M39.9,8.5c0.1,0.4-1.3,1.5-1.6,1.8c-0.7,0.7-1.4,1.4-2.1,2.1c0.6-0.7,1.4-1.6,0.2-2.2
		c1-1.1,2-2.3,2.9-3.4C39.6,7.3,39.8,7.9,39.9,8.5C40,8.6,39.8,7.9,39.9,8.5z M6.5,10.2C6,10.4,5.3,10.3,5.4,11
		c-0.7-0.6-1.3-1.3-2-1.9C2.7,8.4,3.3,7.6,3.5,6.7C4.5,7.9,5.5,9.1,6.5,10.2C6,10.4,5.5,9,6.5,10.2L6.5,10.2z M18.7,10.6
		c0.1,0.1,0.3,0.2,0.4,0.2c0-0.3,0-0.6,0.1-0.9c0.3,0.2,0.9,0.5,0.9,0.8c0,0.4,0.1,0.7,0.4,1c0-0.1,0-0.6,0.2-0.6
		c0,0.4-0.1,0.9-0.1,1.3c0,0.5,0.1,0.6-0.4,0.7c0.1-0.6,0.2-1.1-0.3-1.6c0,0.3,0,1.5-0.3,1.6c-0.4,0.2-0.7-0.1-0.8-0.5
		c-0.1,0.2-0.2,0.4-0.2,0.6c0-0.3,0.2-0.6,0-0.9c-0.3-0.5-0.8,0-1.1,0.2c-0.2,0.1-0.3,0.2-0.5,0.3c-0.3,0.2-0.5,0-0.2-0.1
		c0.4-0.2,0.8-0.4,1.1-0.7c1-1.3-0.4-3.2-1-4.2c0.5,0.6,0.9,1.2,1.2,1.9c0.2,0.4,0.3,0.8,0.3,1.2c0,0.6,0.1,0.7,0.4,1.2
		C19.1,11.7,19,11.2,18.7,10.6C18.8,10.7,19,11.1,18.7,10.6z M24.4,11.2c0,1,0.8,1.5,1.6,1.8c-0.2,0.3-0.5-0.1-0.8-0.2
		c-0.3-0.2-0.7-0.4-1-0.6c-0.6,0.1-0.3,0.7-0.2,1.1c-0.2-0.4-0.3-0.2-0.6-0.1c-0.4,0.1-0.7,0.1-1,0.1c-0.5-0.1-0.3-0.5-0.3-0.9v-1.2
		c0.4,1.2,0.5-0.1,0.7-0.7c0.1,0.1,0.1,0.2,0.2,0.2c0.2-0.3,0.4-0.6,0.7-0.9v1.1c0.2-0.1,0.3-0.2,0.5-0.4c-0.3,0.6-0.5,1-0.1,1.6
		c0.1-0.2,0.4-0.4,0.4-0.6c0-0.4,0-0.7,0.1-1.1c0.1-0.5,0.4-1,0.6-1.5C24.5,9.6,24.4,10.5,24.4,11.2C24.4,12.2,24.4,10.3,24.4,11.2z
		 M30,37.8c0.7,0,0.6,1,0.8,1.5c-1.5-0.2-2.8-1.1-4.3-1.5C27.7,37.8,28.9,37.9,30,37.8C30.4,37.8,28.9,37.9,30,37.8z M11.9,39.4
		c0.2-0.8,0.1-1.6,1.1-1.6c1,0,2,0,3,0C14.6,38.4,13.2,38.9,11.9,39.4C12,38.9,13.4,38.9,11.9,39.4z M21.7,3c-0.1,0.7-0.2,1.3-0.3,2
		c-0.2,1.3-0.4,0.1-0.5-0.5c-0.1-0.6-0.3-1.2,0-1.7C21.1,2.7,21,2.5,21,2.3c0-0.3,0.1-0.5,0.2-0.8c0.3,0.2,0.7,0.3,0.4,0.7
		C21.4,2.5,21.4,2.8,21.7,3C21.6,4,21.3,2.7,21.7,3L21.7,3z M36.6,8.4c-0.3-1-0.8-0.5-1.4,0c0.6-0.8,1.2-1.6,1.7-2.4
		C37.6,6.9,37.6,7.7,36.6,8.4C36.3,7.5,37.6,7.7,36.6,8.4z M6.1,6c0.5,0.7,1.2,1.3,1.3,2.3C7.1,8.1,6.8,7.7,6.4,7.8
		C6.1,7.8,5.9,8,5.6,7.6C5.3,7.1,5.7,6.4,6.1,6C6.6,6.7,5.3,6.9,6.1,6L6.1,6z M27.2,20.1c0,0.4,0.3,0.8-0.1,1.1
		c-0.2,0.1-0.8,0.4-1,0.2c0-0.1-0.1-0.2-0.1-0.3c-0.1-0.2-0.3-0.3-0.5-0.4C25.9,20.1,26.5,19.9,27.2,20.1
		C27.1,20.5,26.4,19.9,27.2,20.1z M34.6,18.1c0.4,0.1,0.8,0.8,0.3,1c-0.6,0.3-0.6,0.6-0.1,1.1c-0.6,0.2-1.1,0.3-0.3-0.1
		c-0.4-0.2-0.8-0.4-1.2-0.6c0.4-0.1,1.6-0.2,1.7-0.6c-0.7-0.5-1.1-0.7-1.9-0.8C33.1,17.7,34.3,18,34.6,18.1
		C34.9,18.2,34.2,17.9,34.6,18.1z M29.8,6.5c-0.1-0.1-0.2-0.2-0.3-0.3c-0.1,0.2-0.1,0.6-0.3,0.6c0-0.5,0.2-1,0.3-1.5
		c0.2-0.5,0.6-0.3,1-0.2c-0.1,0.6-1,1.5,0,1.7C30.2,7,30,6.7,29.8,6.5C29.7,6.4,30,6.6,29.8,6.5L29.8,6.5z M6.7,13.4
		c0.2,0.1,0.9,0.6,0.8,0.8c-0.4-0.2-0.8-0.5-1.3-0.7c0.1-0.5,1-0.1,0.8-0.8c0.9,0.2,1.8,0.5,2.7,0.7C8.6,13.6,7.7,12.7,6.7,13.4
		C7,13.6,7.8,12.7,6.7,13.4L6.7,13.4z M13.3,6c-0.2,0.2-0.6,0.9-0.9,0.8c1.1-0.3-0.8-1.6,0.1-1.8c0.5-0.1,0.5-0.1,0.7,0.3
		c0.2,0.5,0.3,1,0.4,1.5C13.3,6.9,13.3,6.2,13.3,6C12.9,6.4,13.3,6.4,13.3,6L13.3,6z M36,13.4c-1-0.8-2,0.2-3.1,0
		c0.9-0.3,1.8-0.5,2.7-0.8c-0.1,0.5,0.4,0.5,0.9,0.7c-0.4,0.2-0.7,0.5-1.1,0.7c-0.3,0.2-0.3,0-0.1-0.2C35.6,13.7,35.8,13.6,36,13.4
		C34.9,12.6,35.7,13.6,36,13.4z M28.8,21.8c-0.1,0,0.4,7,0,7.1V21.8C28.8,21.8,28.8,24.2,28.8,21.8z M24.9,7.1c-0.6,0,0-2.8-0.4-2.8
		c0.1-0.1,0.2-0.3,0.3-0.4C25.4,4.6,25,6.2,24.9,7.1C24.9,7.1,25,6.2,24.9,7.1z M17.4,5.2c0-0.2,0.3-0.3,0.3-0.6
		c0-0.2-0.1-0.3-0.2-0.4c0.1-0.1,0.3-0.3,0.4-0.4c0.5,0.6,0.2,1.6,0.1,2.4c0,0.3-0.1,1.2-0.2,0.3C17.6,6.1,17.5,5.6,17.4,5.2
		C17.4,5.1,17.5,5.7,17.4,5.2L17.4,5.2z M7.6,16c-0.3-0.1-0.7-0.1-0.9-0.4c-0.2-0.4,0.3-0.6,0.6-0.8c-0.1-0.1-0.3-0.2-0.4-0.3
		c0.9,0.1,1.8,0.2,2.6,0.3c-1,0.1-1.9,0-2.8,0.6C7.1,15.6,7.4,15.8,7.6,16C7.2,15.9,7.4,15.8,7.6,16L7.6,16z M35.9,15.3
		c-0.8-0.5-1.7-0.6-2.7-0.6c0.8-0.1,1.7-0.2,2.5-0.3c-0.2,0.1-0.4,0.2-0.6,0.3C35.5,14.9,36.2,15.1,35.9,15.3
		c-0.1,0.3-0.7,0.9-0.9,0.6C35.3,15.7,35.6,15.5,35.9,15.3C35,14.8,35.6,15.6,35.9,15.3z M27.2,5c-0.3-0.3,0.1-1,0.4-0.4
		c0.3,0.5,0.8,1.6,0,1.8C27.6,5.9,27.7,5.3,27.2,5C27.1,4.9,27.7,5.3,27.2,5L27.2,5z M14.7,5.6c0.2-0.6,0.2-0.9,0.8-1.2
		c0.1,0.5,0.1,0.6-0.2,0.9c-0.3,0.3-0.2,0.8-0.2,1.2C14.7,6.3,14.5,6,14.7,5.6C14.8,5.2,14.5,6,14.7,5.6L14.7,5.6z M19.4,25.4
		c0.1-0.2,0.4-0.4,0.7-0.3c0.5,0.3,0.5,0.2,1.1,0.1c0.4-0.1,0.7,0.3,1,0.1c0.4-0.2,0.6-0.5,1,0.1H19.4C19.7,25,20.7,25.4,19.4,25.4z
		 M15.2,8.5c0.3-1.2,1.5-0.1,1.9,0.3C16.7,9,15.7,8.6,15.2,8.5C15.3,8.1,15.9,8.6,15.2,8.5z M18.7,9.6c-0.2-0.3-0.5-0.5-0.7-0.8
		c0.3,0.1,0.6,0.1,0.9-0.1c0.3-0.2,0.4,0,0.8,0.2c-0.4,0.1-0.5,0.3-0.3,0.6C19,9.3,18.9,9.2,18.7,9.6C18.5,9.4,18.8,9.5,18.7,9.6z
		 M25.6,8.9c0.4-0.6,1.3-1.5,1.9-0.3C26.8,8.6,26.2,8.7,25.6,8.9C25.8,8.5,26.2,8.8,25.6,8.9z M23.8,9.7c0-0.2,0-0.4,0-0.6
		c-0.1,0.1-0.3,0.2-0.4,0.3c-0.1-0.3-0.4-0.5-0.1-0.7c0.3-0.2,0.9,0.1,1.2,0.2C24.3,9.2,24.1,9.5,23.8,9.7
		C23.8,9.5,24.1,9.4,23.8,9.7z M33.9,35.2c-0.3,0-0.7,0.1-0.8-0.2c-0.1-0.5,0-1.2,0-1.8C33.3,33.9,33.6,34.6,33.9,35.2
		C33.1,35.3,33.6,34.6,33.9,35.2z M9.1,7.1C8.8,7.1,8.6,5.5,8.6,5.2c0.2-0.1,1.2,1.1,1,1.3C9.4,6.3,9.1,5.8,8.8,5.9
		C8.9,6.3,9,6.7,9.1,7.1C9,7.1,9,6.7,9.1,7.1L9.1,7.1z M33.1,6.5C33,6.4,33.8,5.1,34,5.2c0,0.3-0.1,0.6-0.1,1c0,0.3,0,1-0.3,0.9
		c0.1-0.4,0.2-0.8,0.3-1.3C33.6,5.7,33.3,6.3,33.1,6.5C33.1,6.5,33.3,6.2,33.1,6.5L33.1,6.5z M7.7,7.3c0,0.3,0.1,0.5,0.1,0.8
		c-0.3,0-0.3-0.7-0.3-0.9c-0.1-0.3-0.3-0.6,0-0.7c0.2,0.3,0.5,0.7,0.7,1C8.1,7.6,7.8,7.3,7.7,7.3C7.7,7.6,7.9,7.4,7.7,7.3L7.7,7.3z
		 M35,8c0,0-0.1,0-0.1,0c0-0.2,0.3-0.7,0-0.8c-0.2,0.2-0.8,0.7-0.3,0C34.7,7,35,6.4,35.3,6.5C35.2,7,35.1,7.5,35,8
		C35,8,35.1,7.5,35,8L35,8z M21.3,24.1c0.1,0.5,0.5,0.6,1,0.6c-0.1,0.4-0.5,0.1-0.8,0c-0.4-0.1-0.6,0.2-1,0.1
		c-0.5-0.1,0.1-0.2,0.2-0.2C21.1,24.6,21.2,24.4,21.3,24.1C21.4,24.7,21.2,24.8,21.3,24.1z M9.6,16.4c-0.4,0.3-2.2,0.3-2.6,0H9.6z
		 M33.6,22.1c-0.2,0.5-0.3,0.9-0.5,1.4C32.9,22.3,33,22.2,33.6,22.1z M1.9,7.7C1.8,8.3,1.5,9.1,1.3,9.8C1,8.9,1.5,8.2,1.9,7.7z
		 M40.9,7.6c0.6,0.5,0.8,1.1,0.7,2C41.3,9,41.1,8.2,40.9,7.6z M17.7,8c-0.1,0-0.2-0.1-0.2-0.2c0.2-0.1,1.6-0.2,1.7,0
		C18.7,7.9,18.2,8,17.7,8C17.7,8,18.2,8,17.7,8z M7.4,16.8c-0.3,0.3,0.6,0.6,0.5,0.9c-0.3-0.2-0.5-0.3-0.8-0.5
		C6.4,16.8,7,16.8,7.4,16.8C7.4,16.8,7.2,16.8,7.4,16.8z M29.9,28.4c-0.2-0.4-0.4-0.9-0.5-1.3c0.4,0.9,0.8,1.7,1.1,2.6
		C30.3,29.6,30,28.6,29.9,28.4C29.7,28,30.1,28.8,29.9,28.4z M1.9,10.1c-0.2-0.1,0.3-1.9,0.4-2.2c0.3,0.1,0,0.7-0.1,1
		C2.1,9.3,2,9.7,1.9,10.1C1.8,10.1,2.1,9.4,1.9,10.1L1.9,10.1z M28.7,19.1c0.2-0.3,0.6,0.5,0.1,0.8C28.6,19.7,28.5,19.4,28.7,19.1z
		 M24.8,7.7c0.1,0,0.4,0.2,0.3,0.2c-0.5,0.2-1.2,0-1.7-0.1C23.4,7.7,24.6,7.7,24.8,7.7C24.9,7.7,24.3,7.7,24.8,7.7z M27.9,3.7
		c0.3-0.4,0.8-0.2,1.2,0.5C28.7,4.1,28.3,3.9,27.9,3.7z M14.8,3.7c-0.4,0.2-0.8,0.4-1.2,0.6C13.9,3.9,14.1,3.4,14.8,3.7z M18.8,24.8
		c0.1-0.2,0.3-0.5,0.4-0.7c0.1,0.2,0.2,0.5,0.4,0.7H18.8C18.9,24.5,19,24.8,18.8,24.8z M23.4,24.1c0.1,0.2,0.3,0.5,0.4,0.7h-0.7
		C23.2,24.5,23.3,24.3,23.4,24.1C23.5,24.3,23.3,24.3,23.4,24.1z M33.5,21.4c-0.2-0.1-0.4-0.2-0.3-0.4c0.2,0.1,0.5,0.2,0.7,0.4
		c0,0.2-0.6,0.4-0.7,0.2C33.3,21.5,33.4,21.4,33.5,21.4C33.4,21.3,33.4,21.5,33.5,21.4z M31.3,24.3c-0.1,0-0.2,0-0.2,0
		c0.1-0.4,0.1-0.8,0.2-1.3C31.3,23.4,31.4,23.9,31.3,24.3C31.2,24.3,31.4,23.9,31.3,24.3z M9.7,14c0,0.3-1.1,0-1.4,0
		C8.4,13.7,9.4,14,9.7,14C9.7,14.1,9.2,14,9.7,14z M28.4,31.1c0.3-0.4,0.5-0.4,0.9,0H28.4z M33.2,14.2c0-0.1,0-0.1,0-0.2
		c0.4-0.1,0.8-0.1,1.2-0.2C34.4,14.1,33.4,14.1,33.2,14.2C33.2,14.1,33.6,14.1,33.2,14.2z M9.4,22.2c0.5,0.1,0.5,0.3,0.4,1.2
		C9.6,22.9,9.5,22.6,9.4,22.2z M9.4,21.6c-1.2-0.2,0-0.7,0.1-0.6C9.3,21.3,9,21.4,9.4,21.6C9.2,21.6,8.9,21.3,9.4,21.6z M24.7,25.5
		h-1C24.1,24.8,24.4,25.4,24.7,25.5z M18.9,25.5c-0.4,0-0.7,0-1,0.1C18.2,25.3,18.5,24.9,18.9,25.5z M40.6,8.2
		c0.1,0,0.5,1.4,0.4,1.6C40.9,9.3,40.8,8.7,40.6,8.2C40.6,8.2,40.8,8.7,40.6,8.2z M8.9,17.4c0,0,0-0.1,0-0.1
		c0.3-0.1,0.6-0.1,0.8-0.2C9.7,17.3,9.1,17.3,8.9,17.4C8.9,17.4,9.2,17.3,8.9,17.4z M30.4,21.9c0,0,0.4-1.2,0.5-1.1
		C30.7,21.1,30.5,21.5,30.4,21.9C30.3,21.9,30.5,21.5,30.4,21.9z M20.2,6.1c0,0,0,0.1,0.1,0.1c-0.2,0.1-0.8,0.7-1,0.5
		C19.6,6.5,19.9,6.3,20.2,6.1C20.2,6.1,19.9,6.3,20.2,6.1z M33.9,17.3c0,0,0,0.1,0,0.1c-0.2,0-0.7,0-0.7-0.2
		C33.4,17.2,33.6,17.2,33.9,17.3C33.9,17.3,33.6,17.2,33.9,17.3z M20.6,20.9c0,0,1.3-0.1,1.5,0H20.6C20.6,20.9,21.1,20.9,20.6,20.9z
		 M9,18.7c0-0.2,0.5-0.2,0.7-0.2C9.6,18.8,9.2,18.7,9,18.7C9,18.7,9.2,18.7,9,18.7z M23.3,6.6c-0.1,0.1-0.7-0.4-0.8-0.4
		C22.7,5.9,23.1,6.4,23.3,6.6C23.3,6.6,23.1,6.4,23.3,6.6z M9,15.6c0-0.1,0.7-0.3,0.7,0C9.5,15.6,9.2,15.6,9,15.6
		C9,15.6,9.2,15.6,9,15.6z M22.3,38c0.8-0.9,1.1-2.7,0.8-3.8c-0.2-0.7-0.2-1.4-0.3-2.1c-0.1-0.6,0-1.5-0.5-1.9
		c-0.1,0.3,0.2,1.7-0.2,1.6c-0.1-0.7,0.1-1.6-0.3-2.2c-0.2,0.3-0.2,0.5-0.2,0.9c-0.2-0.4-0.2-0.9-0.4-1.4C21,29.6,21,30,21,30.5
		c-0.3,0-0.1-0.4-0.1-0.6c0-0.4,0-0.3-0.3-0.5c-0.3,0.6-0.5,1-0.6,1.6c0,0.6-0.3,1.1-0.3,1.7c0,0.2,0.1,0.5,0,0.7
		c-0.1,0.3-0.3,0.6-0.3,0.9c0.1,1,0.2,2.5,0.8,3.3C20.6,38.4,21.8,38.5,22.3,38C23.1,37.1,22.3,38,22.3,38z M22.2,32.4
		c0.2,0.7,0,1.1-0.6,1.4C21.7,33.2,21.7,32.7,22.2,32.4z M20.4,32.4c0.6,0.3,0.6,0.8,0.6,1.4C20.4,33.4,20.3,33,20.4,32.4z
		 M22.5,35.3c-0.1,0.7-0.3,1-0.9,1.1C21.7,35.9,21.8,35.4,22.5,35.3z M22.5,33.9c-0.1,0.6-0.3,0.9-0.9,1.2
		C21.7,34.5,21.8,34,22.5,33.9z M22.5,36.7c-0.1,0.5-0.3,0.9-0.9,1.1C21.7,37,21.9,36.8,22.5,36.7z M21.1,30.9
		c0.4,0,0.2,0.3,0.2,0.7c0,0.3,0.2,1-0.2,1V30.9C21.2,30.9,21.1,31.5,21.1,30.9z M21,37.7c-0.5,0-0.8-0.4-0.8-1
		C20.8,36.9,21.1,37.2,21,37.7z M20.7,36.4c-0.2-0.3-0.4-0.7-0.7-1.1C20.8,35.4,21,35.8,20.7,36.4z M20.1,34
		c0.4,0.1,0.8,0.2,0.9,0.6C21,35.7,20.2,34.3,20.1,34C20.8,34.1,20.3,34.4,20.1,34z M30.6,11.2c0.6,0.2,1.3-0.4,1.5-1
		c0.1-0.3-0.5-0.3-0.7-0.2c-0.4,0.1-0.7,0.4-0.8,0.8c0.2-0.1,0.9-0.4,1-0.2c-0.3,0.2-0.7,0.4-1,0.5C30.6,11.1,30.6,11.2,30.6,11.2
		C31.2,11.4,30.6,11.2,30.6,11.2z M32.2,11.9c0.7-0.3-0.3-0.7-0.6-0.6c-0.6,0.1-0.9,0.7-1,1.2C31.1,12.3,31.6,12.1,32.2,11.9
		C32.3,11.8,31.7,12.1,32.2,11.9z M31,11.9c-0.1-0.2,0.7-0.3,0.9-0.4C32,11.8,31.3,11.9,31,11.9C31,11.9,31.3,11.8,31,11.9z
		 M31.9,12.8c-0.2,0.1-0.4,0.2-0.5,0.2c0.3,0.2,1.4,0.1,0.9-0.4c-0.4-0.4-0.9-0.3-1.3,0C31.3,12.7,31.6,12.7,31.9,12.8
		C31.7,12.9,31.6,12.7,31.9,12.8z M14.1,23.3c0-0.6-0.1-1.2,0.1-1.7c0.1-0.5,0.6-0.8,0.7-1.3c0-1.1-1-1.8-1-2.9
		c0-0.2-0.3-0.2-0.4-0.2c-0.3,0.1-0.2,0.4-0.3,0.7c-0.2,0.6-0.4,1.1-0.6,1.7c-0.2,0.6-0.2,0.9,0.1,1.4c0.3,0.5,0.4,1.1,0.4,1.7
		c-0.3-0.3-0.7-0.6-0.8-1.1c-0.1-0.6,0-0.8-0.6-1.2c-1-0.6-1.2,0.8-0.7,1.4c0.1,0.1,0.4,0.2,0.5,0.3c0.1,0.2,0.2,0.5,0.3,0.7
		c0.2,0.6,0.3,1.1,0.3,1.7c0,0.7-0.3,2,0.7,2.1c-0.7,1.7-1.3,3.5-2,5.2c-0.1,0.2-0.2,0.4-0.2,0.6c0.2,0.2,0.3,0.1,0.4-0.2
		c0.3-0.5,0.5-1,0.8-1.5c0.5-0.9,0.9-1.8,1.4-2.6c0.1,0.6,0,1.3-0.1,1.9c-0.1,0.8-0.1,1.3,0.4,2c0.4,0.5,0.9-0.4,1-0.7
		c0.2-0.6,0-1.4-0.1-2c0-0.3-0.1-0.7-0.1-1c0-0.3,0-1.2,0.3-0.4c0.2,0.7,0.4,1.3,0.8,1.9c0.3,0.4,0.6,1.3,1.2,1.4
		c0.8,0,0.2-1.2,0-1.6c-0.3-0.7-0.7-1.3-1.1-1.9c-0.3-0.6-1-1.6-1-2.3c0.1-0.7,0.5-1.4,0.8-2c0.3-0.6,0.5-1.3,1-1.8
		c0.5-0.5,0.4-1,0.4-1.6c0-0.7-0.9-0.1-1.1,0.1c-0.5,0.4-0.3,0.8-0.5,1.4C15,21.7,14.4,23.4,14.1,23.3
		C14.1,23.1,14.2,23.3,14.1,23.3z M13.7,29c-0.2,0-0.1-2.7-0.1-3v-3.7C13.9,22.3,13.7,28.3,13.7,29C13.6,29,13.7,26.8,13.7,29z
		 M13.9,20.3c-0.1,0.3-0.3,0.3-0.5,0.1c-0.2-0.3,0.1-0.5,0.2-0.7C13.7,19.9,14,20.2,13.9,20.3C13.9,20.4,14,20.2,13.9,20.3z
		 M15.3,28.4c-0.2,0.1-1.1-2-1.1-2C14.6,27.1,14.9,27.8,15.3,28.4C15.2,28.4,14.9,27.8,15.3,28.4z M13.3,31c0.4-0.2,0.4-0.2,0.7,0
		C13.6,31.2,13.6,31.2,13.3,31C13.4,30.9,13.4,31,13.3,31z M16.2,30.1c-0.1,0-0.1,0.1-0.2,0.1c-0.1-0.2-0.2-0.5-0.3-0.7
		C15.9,29.5,16.1,30,16.2,30.1C16.2,30.2,16.1,29.9,16.2,30.1z M15.2,22.3c-0.1-0.1,0.3-0.8,0.3-1C15.7,21.4,15.3,22.2,15.2,22.3
		C15.2,22.3,15.4,22,15.2,22.3z M11.8,21.9c0.2-0.1,0.4,0.6,0.5,0.7C12.1,22.7,11.9,22,11.8,21.9C11.8,21.8,11.9,22.1,11.8,21.9z
		 M11.6,11.9c-0.3,0-0.7,0-1,0c0.3,0.5,0.9,0.4,1.5,0.5c-0.2-0.9-0.9-1.2-1.8-0.9c0.3,0.3,0.2,0.4,0.5,0.2
		C11.1,11.5,11.4,11.8,11.6,11.9C11.3,11.9,11.3,11.7,11.6,11.9z M11,10.6c0.3,0,0.5,0,0.8,0.1c0.2,0.1,0.4,0.3,0.6,0.1
		c-0.6-0.4-0.9-0.7-1.7-0.7c0.1,0.2,0.2,0.4,0.3,0.6C10.9,10.7,10.9,10.6,11,10.6C11.1,10.6,10.9,10.6,11,10.6z M10.3,12.8
		c0.3,0.4,0.6,0.5,1,0.2c-0.2-0.1-0.4-0.2-0.5-0.2c0.3,0,0.6-0.1,0.8-0.1C11.1,12.3,10.7,12.3,10.3,12.8
		C10.7,13.3,10.7,12.3,10.3,12.8z M19.5,10.7c-0.3,0.4-0.3,0.8,0.2,1.3C19.8,11.5,20,11,19.5,10.7z M19.4,13
		c0.4-0.4,0.1-0.7-0.1-1.1C18.9,12.4,19,12.7,19.4,13z M22.7,13.2c0.4-0.5,0.2-1.1,0-1.6C22.2,12.3,22.2,12.6,22.7,13.2z M23.2,12
		c0.1-0.5,0.1-0.9,0.2-1.4C22.8,11,22.7,11.4,23.2,12z M23.3,11.8c-0.1,0.5-0.1,0.8-0.2,1.2C23.7,12.5,23.8,12.3,23.3,11.8z"/>
	<g>
		<path class="st1" d="M58.6,16.9l0.1-1h0l-0.4,0.9l-1.8,3.1h-0.2l-1.9-3.1l-0.4-0.9h0l0.1,1v4.6h-0.8v-6.9h0.6l2.2,3.5l0.3,0.8h0
			l0.3-0.8l2.1-3.5h0.6v6.9h-0.8V16.9z"/>
		<path class="st1" d="M64,18.6l0-0.6h0l-0.4,0.6l-2.2,2.9H61v-4.9h0.8v3l0,0.6h0l0.4-0.6l2.2-3h0.5v4.9H64V18.6z"/>
		<path class="st1" d="M69.4,19.4h-2.2v2.2h-0.8v-4.9h0.8v2.1h2.2v-2.1h0.8v4.9h-0.8V19.4z"/>
		<path class="st1" d="M74.7,18.6l0-0.6h0l-0.4,0.6l-2.2,2.9h-0.5v-4.9h0.8v3l0,0.6h0l0.4-0.6l2.2-3h0.5v4.9h-0.8V18.6z"/>
		<path class="st1" d="M80.4,21.2c-0.2,0.1-0.4,0.3-0.7,0.3c-0.3,0.1-0.6,0.1-0.8,0.1c-0.4,0-0.7-0.1-1-0.2
			c-0.3-0.1-0.5-0.3-0.6-0.5c-0.2-0.2-0.3-0.5-0.4-0.8c-0.1-0.3-0.1-0.7-0.1-1.1c0-0.8,0.2-1.5,0.6-1.9c0.4-0.4,0.9-0.7,1.6-0.7
			c0.3,0,0.6,0,0.8,0.1c0.2,0,0.4,0.1,0.6,0.2l-0.2,0.7c-0.2-0.1-0.3-0.2-0.5-0.2c-0.2,0-0.4-0.1-0.6-0.1c-0.9,0-1.4,0.6-1.4,1.9
			c0,0.2,0,0.5,0.1,0.7s0.1,0.4,0.2,0.6c0.1,0.2,0.3,0.3,0.5,0.4S78.8,21,79,21c0.2,0,0.4,0,0.6-0.1c0.2-0.1,0.3-0.2,0.5-0.2
			L80.4,21.2z"/>
		<path class="st1" d="M84.4,17.3h-1.5v4.2h-0.8v-4.2h-1.5v-0.7h3.9V17.3z"/>
		<path class="st1" d="M88.7,21.2c-0.2,0.2-0.4,0.3-0.7,0.4c-0.3,0.1-0.6,0.1-0.9,0.1c-0.4,0-0.7-0.1-1-0.2
			c-0.3-0.1-0.5-0.3-0.7-0.5c-0.2-0.2-0.3-0.5-0.4-0.8c-0.1-0.3-0.1-0.7-0.1-1.1c0-0.8,0.2-1.5,0.6-1.9c0.4-0.4,0.9-0.7,1.6-0.7
			c0.2,0,0.4,0,0.7,0.1c0.2,0,0.4,0.1,0.6,0.3c0.2,0.1,0.3,0.3,0.4,0.6c0.1,0.3,0.2,0.6,0.2,1c0,0.2,0,0.5-0.1,0.7h-3.2
			c0,0.3,0,0.5,0.1,0.8c0.1,0.2,0.2,0.4,0.3,0.6c0.1,0.2,0.3,0.3,0.5,0.4c0.2,0.1,0.4,0.1,0.7,0.1c0.2,0,0.4,0,0.7-0.1
			c0.2-0.1,0.4-0.2,0.5-0.3L88.7,21.2z M87,17.2c-0.4,0-0.7,0.1-0.9,0.3c-0.2,0.2-0.4,0.6-0.4,1h2.4c0-0.5-0.1-0.8-0.3-1
			C87.6,17.3,87.3,17.2,87,17.2z"/>
		<path class="st1" d="M90.1,16.6h0.5l0.1,0.6h0c0.2-0.2,0.3-0.4,0.6-0.5s0.5-0.2,0.8-0.2c0.7,0,1.1,0.2,1.5,0.6
			c0.3,0.4,0.5,1,0.5,1.9c0,0.4-0.1,0.8-0.2,1.1s-0.3,0.6-0.5,0.8c-0.2,0.2-0.4,0.4-0.7,0.5c-0.3,0.1-0.6,0.2-0.9,0.2
			c-0.2,0-0.4,0-0.6,0s-0.3-0.1-0.5-0.2v2h-0.8V16.6z M92,17.2c-0.3,0-0.6,0.1-0.8,0.3c-0.2,0.2-0.3,0.4-0.4,0.8v2.4
			c0.1,0.1,0.3,0.2,0.4,0.2c0.2,0,0.4,0.1,0.6,0.1c0.5,0,0.8-0.2,1.1-0.5c0.3-0.3,0.4-0.8,0.4-1.5c0-0.3,0-0.5-0.1-0.7
			c0-0.2-0.1-0.4-0.2-0.6c-0.1-0.2-0.2-0.3-0.4-0.4C92.5,17.2,92.3,17.2,92,17.2z"/>
		<path class="st1" d="M98.7,21.2c-0.2,0.1-0.4,0.3-0.7,0.3c-0.3,0.1-0.6,0.1-0.8,0.1c-0.4,0-0.7-0.1-1-0.2
			c-0.3-0.1-0.5-0.3-0.6-0.5c-0.2-0.2-0.3-0.5-0.4-0.8c-0.1-0.3-0.1-0.7-0.1-1.1c0-0.8,0.2-1.5,0.6-1.9c0.4-0.4,0.9-0.7,1.6-0.7
			c0.3,0,0.6,0,0.8,0.1c0.2,0,0.4,0.1,0.6,0.2l-0.2,0.7c-0.2-0.1-0.3-0.2-0.5-0.2c-0.2,0-0.4-0.1-0.6-0.1c-0.9,0-1.4,0.6-1.4,1.9
			c0,0.2,0,0.5,0.1,0.7c0,0.2,0.1,0.4,0.2,0.6c0.1,0.2,0.3,0.3,0.5,0.4s0.4,0.2,0.7,0.2c0.2,0,0.4,0,0.6-0.1
			c0.2-0.1,0.3-0.2,0.5-0.2L98.7,21.2z"/>
		<path class="st1" d="M102.8,17.3h-1.5v4.2h-0.8v-4.2h-1.5v-0.7h3.9V17.3z"/>
		<path class="st1" d="M103.6,16.6c0.2,0,0.5,0,0.7,0c0.3,0,0.6,0,0.9,0c0.6,0,1.1,0.1,1.4,0.3c0.3,0.2,0.4,0.5,0.4,0.9
			c0,0.2-0.1,0.5-0.2,0.7c-0.1,0.2-0.4,0.4-0.7,0.5v0c0.4,0.1,0.7,0.2,0.8,0.4c0.2,0.2,0.2,0.5,0.2,0.8c0,0.5-0.2,0.9-0.6,1.1
			c-0.4,0.2-0.9,0.3-1.7,0.3c-0.3,0-0.5,0-0.8,0c-0.2,0-0.5,0-0.7-0.1V16.6z M105.3,18.7c0.1,0,0.2,0,0.3-0.1c0.1,0,0.2-0.1,0.3-0.2
			c0.1-0.1,0.2-0.1,0.2-0.2c0.1-0.1,0.1-0.2,0.1-0.3c0-0.3-0.1-0.4-0.2-0.5c-0.2-0.1-0.4-0.2-0.8-0.2c-0.2,0-0.4,0-0.5,0
			c-0.1,0-0.2,0-0.3,0v1.4H105.3z M104.4,20.9c0.1,0,0.2,0,0.4,0s0.3,0,0.4,0c0.4,0,0.8-0.1,1-0.2c0.2-0.1,0.3-0.3,0.3-0.6
			c0-0.2-0.1-0.4-0.3-0.6c-0.2-0.1-0.5-0.2-1-0.2h-0.9V20.9z"/>
		<path class="st1" d="M108.2,19.1c0-0.8,0.2-1.5,0.6-1.9c0.4-0.4,0.9-0.7,1.6-0.7c0.4,0,0.7,0.1,1,0.2c0.3,0.1,0.5,0.3,0.7,0.5
			c0.2,0.2,0.3,0.5,0.4,0.8c0.1,0.3,0.1,0.7,0.1,1.1c0,0.8-0.2,1.5-0.6,1.9c-0.4,0.4-0.9,0.7-1.6,0.7c-0.4,0-0.7-0.1-1-0.2
			c-0.3-0.1-0.5-0.3-0.7-0.5c-0.2-0.2-0.3-0.5-0.4-0.8C108.3,19.8,108.2,19.5,108.2,19.1z M109,19.1c0,0.2,0,0.5,0.1,0.7
			s0.1,0.4,0.2,0.6c0.1,0.2,0.2,0.3,0.4,0.4c0.2,0.1,0.4,0.2,0.6,0.2c0.9,0,1.3-0.6,1.3-1.9c0-0.3,0-0.5-0.1-0.7
			c0-0.2-0.1-0.4-0.2-0.6c-0.1-0.2-0.2-0.3-0.4-0.4c-0.2-0.1-0.4-0.2-0.6-0.2C109.5,17.2,109,17.8,109,19.1z"/>
		<path class="st1" d="M116.8,18.7h2.1c0-0.5-0.2-0.8-0.4-1.1c-0.2-0.3-0.6-0.4-1-0.4c-0.3,0-0.5,0-0.7,0.1
			c-0.2,0.1-0.4,0.2-0.5,0.2l-0.3-0.6c0.2-0.1,0.4-0.2,0.7-0.3c0.3-0.1,0.6-0.1,0.9-0.1c0.7,0,1.3,0.2,1.6,0.7
			c0.3,0.5,0.5,1.1,0.5,1.9c0,0.8-0.2,1.5-0.6,1.9c-0.4,0.4-0.9,0.7-1.6,0.7c-0.3,0-0.6,0-0.9-0.1c-0.3,0-0.5-0.1-0.7-0.2l0.2-0.7
			c0.2,0.1,0.3,0.2,0.6,0.2c0.2,0,0.4,0.1,0.6,0.1c0.9,0,1.4-0.5,1.5-1.6h-2.1V18.7z"/>
		<path class="st1" d="M122.2,19.3h-0.5v2.2H121v-4.9h0.8v2.2l0.4-0.1l1.6-2.1h0.9l-1.5,2l-0.4,0.3l0.5,0.4l1.6,2.2h-1L122.2,19.3z"
			/>
		<path class="st1" d="M125.3,19.1c0-0.8,0.2-1.5,0.6-1.9c0.4-0.4,0.9-0.7,1.6-0.7c0.4,0,0.7,0.1,1,0.2c0.3,0.1,0.5,0.3,0.7,0.5
			c0.2,0.2,0.3,0.5,0.4,0.8c0.1,0.3,0.1,0.7,0.1,1.1c0,0.8-0.2,1.5-0.6,1.9c-0.4,0.4-0.9,0.7-1.6,0.7c-0.4,0-0.7-0.1-1-0.2
			c-0.3-0.1-0.5-0.3-0.7-0.5c-0.2-0.2-0.3-0.5-0.4-0.8C125.3,19.8,125.3,19.5,125.3,19.1z M126.1,19.1c0,0.2,0,0.5,0.1,0.7
			s0.1,0.4,0.2,0.6c0.1,0.2,0.2,0.3,0.4,0.4c0.2,0.1,0.4,0.2,0.6,0.2c0.9,0,1.3-0.6,1.3-1.9c0-0.3,0-0.5-0.1-0.7
			c0-0.2-0.1-0.4-0.2-0.6c-0.1-0.2-0.2-0.3-0.4-0.4c-0.2-0.1-0.4-0.2-0.6-0.2C126.5,17.2,126.1,17.8,126.1,19.1z"/>
		<path class="st1" d="M133.8,19.4h-2.2v2.2h-0.8v-4.9h0.8v2.1h2.2v-2.1h0.8v4.9h-0.8V19.4z"/>
		<path class="st1" d="M135.9,19.1c0-0.8,0.2-1.5,0.6-1.9c0.4-0.4,0.9-0.7,1.6-0.7c0.4,0,0.7,0.1,1,0.2c0.3,0.1,0.5,0.3,0.7,0.5
			c0.2,0.2,0.3,0.5,0.4,0.8c0.1,0.3,0.1,0.7,0.1,1.1c0,0.8-0.2,1.5-0.6,1.9c-0.4,0.4-0.9,0.7-1.6,0.7c-0.4,0-0.7-0.1-1-0.2
			c-0.3-0.1-0.5-0.3-0.7-0.5c-0.2-0.2-0.3-0.5-0.4-0.8C135.9,19.8,135.9,19.5,135.9,19.1z M136.7,19.1c0,0.2,0,0.5,0.1,0.7
			s0.1,0.4,0.2,0.6c0.1,0.2,0.2,0.3,0.4,0.4s0.4,0.2,0.6,0.2c0.9,0,1.3-0.6,1.3-1.9c0-0.3,0-0.5-0.1-0.7c0-0.2-0.1-0.4-0.2-0.6
			c-0.1-0.2-0.2-0.3-0.4-0.4c-0.2-0.1-0.4-0.2-0.6-0.2C137.1,17.2,136.7,17.8,136.7,19.1z"/>
		<path class="st1" d="M145.5,18.6l0.1-0.9h0l-0.4,0.8l-1.2,1.9h-0.3l-1.2-1.9l-0.3-0.8h0l0.1,0.9v2.9h-0.7v-4.9h0.8l1.4,2.2
			l0.3,0.6h0l0.3-0.6l1.3-2.2h0.8v4.9h-0.8V18.6z"/>
		<path class="st1" d="M150.8,18.6l0-0.6h0l-0.4,0.6l-2.2,2.9h-0.5v-4.9h0.8v3l0,0.6h0l0.4-0.6l2.2-3h0.5v4.9h-0.8V18.6z"/>
		<path class="st1" d="M153.6,16.6V18c0,0.2,0,0.3,0,0.5c0,0.1,0.1,0.3,0.1,0.4c0.1,0.1,0.1,0.2,0.3,0.2c0.1,0.1,0.3,0.1,0.4,0.1
			c0.3,0,0.5,0,0.7-0.1c0.2-0.1,0.3-0.1,0.4-0.2v-2.2h0.8v4.9h-0.8v-2.1c-0.1,0.1-0.3,0.1-0.5,0.2c-0.2,0.1-0.5,0.1-0.9,0.1
			c-0.2,0-0.5,0-0.6-0.1c-0.2-0.1-0.3-0.1-0.5-0.3s-0.2-0.3-0.3-0.5c-0.1-0.2-0.1-0.5-0.1-0.8v-1.5H153.6z"/>
		<path class="st1" d="M161.5,21.2c-0.2,0.2-0.4,0.3-0.7,0.4c-0.3,0.1-0.6,0.1-0.9,0.1c-0.4,0-0.7-0.1-1-0.2
			c-0.3-0.1-0.5-0.3-0.7-0.5c-0.2-0.2-0.3-0.5-0.4-0.8c-0.1-0.3-0.1-0.7-0.1-1.1c0-0.8,0.2-1.5,0.6-1.9c0.4-0.4,0.9-0.7,1.6-0.7
			c0.2,0,0.4,0,0.7,0.1c0.2,0,0.4,0.1,0.6,0.3c0.2,0.1,0.3,0.3,0.4,0.6c0.1,0.3,0.2,0.6,0.2,1c0,0.2,0,0.5-0.1,0.7h-3.2
			c0,0.3,0,0.5,0.1,0.8c0.1,0.2,0.2,0.4,0.3,0.6c0.1,0.2,0.3,0.3,0.5,0.4c0.2,0.1,0.4,0.1,0.7,0.1c0.2,0,0.4,0,0.7-0.1
			c0.2-0.1,0.4-0.2,0.5-0.3L161.5,21.2z M159.8,17.2c-0.4,0-0.7,0.1-0.9,0.3c-0.2,0.2-0.4,0.6-0.4,1h2.4c0-0.5-0.1-0.8-0.3-1
			C160.5,17.3,160.2,17.2,159.8,17.2z"/>
		<path class="st1" d="M166.2,21.2c-0.2,0.1-0.4,0.3-0.7,0.3c-0.3,0.1-0.6,0.1-0.8,0.1c-0.4,0-0.7-0.1-1-0.2
			c-0.3-0.1-0.5-0.3-0.6-0.5c-0.2-0.2-0.3-0.5-0.4-0.8c-0.1-0.3-0.1-0.7-0.1-1.1c0-0.8,0.2-1.5,0.6-1.9c0.4-0.4,0.9-0.7,1.6-0.7
			c0.3,0,0.6,0,0.8,0.1c0.2,0,0.4,0.1,0.6,0.2l-0.2,0.7c-0.2-0.1-0.3-0.2-0.5-0.2c-0.2,0-0.4-0.1-0.6-0.1c-0.9,0-1.4,0.6-1.4,1.9
			c0,0.2,0,0.5,0.1,0.7s0.1,0.4,0.2,0.6c0.1,0.2,0.3,0.3,0.5,0.4c0.2,0.1,0.4,0.2,0.7,0.2c0.2,0,0.4,0,0.6-0.1
			c0.2-0.1,0.3-0.2,0.5-0.2L166.2,21.2z"/>
		<path class="st1" d="M168.5,19.3h-0.5v2.2h-0.8v-4.9h0.8v2.2l0.4-0.1l1.6-2.1h0.9l-1.5,2l-0.4,0.3l0.5,0.4l1.6,2.2h-1L168.5,19.3z
			"/>
		<path class="st1" d="M171.6,19.1c0-0.8,0.2-1.5,0.6-1.9c0.4-0.4,0.9-0.7,1.6-0.7c0.4,0,0.7,0.1,1,0.2c0.3,0.1,0.5,0.3,0.7,0.5
			c0.2,0.2,0.3,0.5,0.4,0.8c0.1,0.3,0.1,0.7,0.1,1.1c0,0.8-0.2,1.5-0.6,1.9c-0.4,0.4-0.9,0.7-1.6,0.7c-0.4,0-0.7-0.1-1-0.2
			c-0.3-0.1-0.5-0.3-0.7-0.5c-0.2-0.2-0.3-0.5-0.4-0.8C171.6,19.8,171.6,19.5,171.6,19.1z M172.4,19.1c0,0.2,0,0.5,0.1,0.7
			c0,0.2,0.1,0.4,0.2,0.6c0.1,0.2,0.2,0.3,0.4,0.4c0.2,0.1,0.4,0.2,0.6,0.2c0.9,0,1.3-0.6,1.3-1.9c0-0.3,0-0.5-0.1-0.7
			c0-0.2-0.1-0.4-0.2-0.6c-0.1-0.2-0.2-0.3-0.4-0.4c-0.2-0.1-0.4-0.2-0.6-0.2C172.9,17.2,172.4,17.8,172.4,19.1z"/>
		<path class="st1" d="M180,17.3h-2.1v4.2h-0.8v-4.9h2.9V17.3z"/>
		<path class="st1" d="M180.3,19.1c0-0.8,0.2-1.5,0.6-1.9c0.4-0.4,0.9-0.7,1.6-0.7c0.4,0,0.7,0.1,1,0.2c0.3,0.1,0.5,0.3,0.7,0.5
			c0.2,0.2,0.3,0.5,0.4,0.8c0.1,0.3,0.1,0.7,0.1,1.1c0,0.8-0.2,1.5-0.6,1.9c-0.4,0.4-0.9,0.7-1.6,0.7c-0.4,0-0.7-0.1-1-0.2
			c-0.3-0.1-0.5-0.3-0.7-0.5c-0.2-0.2-0.3-0.5-0.4-0.8C180.4,19.8,180.3,19.5,180.3,19.1z M181.2,19.1c0,0.2,0,0.5,0.1,0.7
			s0.1,0.4,0.2,0.6c0.1,0.2,0.2,0.3,0.4,0.4s0.4,0.2,0.6,0.2c0.9,0,1.3-0.6,1.3-1.9c0-0.3,0-0.5-0.1-0.7c0-0.2-0.1-0.4-0.2-0.6
			c-0.1-0.2-0.2-0.3-0.4-0.4c-0.2-0.1-0.4-0.2-0.6-0.2C181.6,17.2,181.2,17.8,181.2,19.1z"/>
		<path class="st1" d="M188.5,16.6h0.5l0.1,0.6h0c0.2-0.2,0.3-0.4,0.6-0.5c0.2-0.1,0.5-0.2,0.8-0.2c0.7,0,1.1,0.2,1.5,0.6
			c0.3,0.4,0.5,1,0.5,1.9c0,0.4-0.1,0.8-0.2,1.1c-0.1,0.3-0.3,0.6-0.5,0.8c-0.2,0.2-0.4,0.4-0.7,0.5c-0.3,0.1-0.6,0.2-0.9,0.2
			c-0.2,0-0.4,0-0.6,0c-0.1,0-0.3-0.1-0.5-0.2v2h-0.8V16.6z M190.5,17.2c-0.3,0-0.6,0.1-0.8,0.3c-0.2,0.2-0.3,0.4-0.4,0.8v2.4
			c0.1,0.1,0.3,0.2,0.4,0.2c0.2,0,0.4,0.1,0.6,0.1c0.5,0,0.8-0.2,1.1-0.5c0.3-0.3,0.4-0.8,0.4-1.5c0-0.3,0-0.5-0.1-0.7
			c0-0.2-0.1-0.4-0.2-0.6c-0.1-0.2-0.2-0.3-0.4-0.4C190.9,17.2,190.7,17.2,190.5,17.2z"/>
		<path class="st1" d="M193.8,17c0.2-0.2,0.5-0.3,0.9-0.3c0.3-0.1,0.7-0.1,1-0.1c0.3,0,0.6,0,0.8,0.1c0.2,0.1,0.4,0.2,0.5,0.4
			c0.1,0.1,0.2,0.3,0.2,0.5c0,0.2,0.1,0.4,0.1,0.5c0,0.4,0,0.8,0,1.2c0,0.4,0,0.7,0,1.1c0,0.2,0,0.5,0,0.7c0,0.2,0.1,0.4,0.1,0.6
			h-0.6l-0.2-0.7h0c-0.1,0.1-0.1,0.2-0.2,0.3c-0.1,0.1-0.2,0.2-0.3,0.2s-0.3,0.1-0.4,0.2c-0.2,0-0.4,0.1-0.6,0.1
			c-0.2,0-0.4,0-0.6-0.1c-0.2-0.1-0.3-0.2-0.5-0.3c-0.1-0.1-0.2-0.3-0.3-0.4c-0.1-0.2-0.1-0.4-0.1-0.6c0-0.3,0.1-0.5,0.2-0.7
			c0.1-0.2,0.3-0.3,0.5-0.5c0.2-0.1,0.5-0.2,0.8-0.2c0.3,0,0.6-0.1,1-0.1c0.1,0,0.2,0,0.3,0c0.1,0,0.2,0,0.3,0c0-0.2,0-0.4,0-0.5
			c0-0.4-0.1-0.6-0.2-0.8c-0.1-0.1-0.4-0.2-0.8-0.2c-0.1,0-0.2,0-0.4,0c-0.1,0-0.3,0-0.4,0.1c-0.1,0-0.3,0.1-0.4,0.1
			s-0.2,0.1-0.3,0.1L193.8,17z M195.2,20.9c0.2,0,0.3,0,0.5-0.1c0.1,0,0.3-0.1,0.4-0.2c0.1-0.1,0.2-0.2,0.3-0.3
			c0.1-0.1,0.1-0.2,0.2-0.3v-0.8c-0.1,0-0.2,0-0.3,0c-0.1,0-0.2,0-0.3,0c-0.2,0-0.4,0-0.6,0c-0.2,0-0.4,0.1-0.5,0.1
			c-0.1,0.1-0.3,0.1-0.4,0.3s-0.1,0.2-0.1,0.4c0,0.2,0.1,0.4,0.2,0.6C194.7,20.9,194.9,20.9,195.2,20.9z"/>
		<path class="st1" d="M199.2,19.4v-0.6h0.7c0.1,0,0.2,0,0.3-0.1c0.1,0,0.2-0.1,0.3-0.2c0.1-0.1,0.2-0.2,0.2-0.2
			c0.1-0.1,0.1-0.2,0.1-0.3c0-0.3-0.1-0.4-0.3-0.5c-0.2-0.1-0.4-0.2-0.8-0.2c-0.3,0-0.5,0-0.7,0.1c-0.2,0.1-0.4,0.1-0.5,0.2
			l-0.2-0.6c0.2-0.1,0.4-0.2,0.7-0.3c0.3-0.1,0.6-0.1,0.9-0.1c1.1,0,1.6,0.4,1.6,1.2c0,0.2-0.1,0.5-0.2,0.7
			c-0.1,0.2-0.4,0.4-0.6,0.5v0c0.4,0.1,0.7,0.2,0.8,0.4c0.2,0.2,0.2,0.5,0.2,0.8c0,0.2,0,0.4-0.1,0.6c-0.1,0.2-0.2,0.3-0.4,0.5
			s-0.4,0.2-0.6,0.3c-0.3,0.1-0.6,0.1-0.9,0.1c-0.3,0-0.6,0-0.8-0.1c-0.2-0.1-0.4-0.1-0.6-0.2l0.2-0.6c0.2,0.1,0.3,0.2,0.5,0.2
			c0.2,0,0.4,0.1,0.7,0.1c0.4,0,0.7-0.1,0.9-0.2s0.3-0.3,0.3-0.6c0-0.2-0.1-0.4-0.3-0.6c-0.2-0.1-0.5-0.2-1-0.2H199.2z"/>
		<path class="st1" d="M203.1,16.6c0.2,0,0.5,0,0.7,0c0.3,0,0.6,0,0.9,0c0.6,0,1.1,0.1,1.4,0.3c0.3,0.2,0.4,0.5,0.4,0.9
			c0,0.2-0.1,0.5-0.2,0.7c-0.1,0.2-0.4,0.4-0.7,0.5v0c0.4,0.1,0.7,0.2,0.8,0.4c0.2,0.2,0.2,0.5,0.2,0.8c0,0.5-0.2,0.9-0.6,1.1
			c-0.4,0.2-0.9,0.3-1.7,0.3c-0.3,0-0.5,0-0.8,0c-0.2,0-0.5,0-0.7-0.1V16.6z M204.8,18.7c0.1,0,0.2,0,0.3-0.1c0.1,0,0.2-0.1,0.3-0.2
			c0.1-0.1,0.2-0.1,0.2-0.2c0.1-0.1,0.1-0.2,0.1-0.3c0-0.3-0.1-0.4-0.2-0.5c-0.2-0.1-0.4-0.2-0.8-0.2c-0.2,0-0.4,0-0.5,0
			c-0.1,0-0.2,0-0.3,0v1.4H204.8z M203.8,20.9c0.1,0,0.2,0,0.4,0s0.3,0,0.4,0c0.4,0,0.8-0.1,1-0.2c0.2-0.1,0.3-0.3,0.3-0.6
			c0-0.2-0.1-0.4-0.3-0.6c-0.2-0.1-0.5-0.2-1-0.2h-0.9V20.9z"/>
		<path class="st1" d="M211,18.6l0-0.6h0l-0.4,0.6l-2.2,2.9H208v-4.9h0.8v3l0,0.6h0l0.4-0.6l2.2-3h0.5v4.9H211V18.6z"/>
		<path class="st1" d="M216.5,17.3h-1.5v4.2h-0.8v-4.2h-1.5v-0.7h3.9V17.3z"/>
		<path class="st1" d="M220.3,18.6l0-0.6h0l-0.4,0.6l-2.2,2.9h-0.5v-4.9h0.8v3l0,0.6h0l0.4-0.6l2.2-3h0.5v4.9h-0.8V18.6z"/>
		<path class="st1" d="M225.1,19.5l-0.8,0.1l-1.3,1.9h-1l1.2-1.7l0.4-0.4c-0.3-0.1-0.6-0.2-0.9-0.4c-0.2-0.2-0.4-0.5-0.4-0.9
			c0-0.3,0.1-0.5,0.2-0.8c0.1-0.2,0.2-0.4,0.4-0.5c0.2-0.1,0.4-0.2,0.7-0.3c0.3-0.1,0.6-0.1,0.9-0.1c0.2,0,0.5,0,0.7,0
			c0.2,0,0.4,0.1,0.6,0.1v4.9h-0.8V19.5z M225.1,17.3c-0.1,0-0.2-0.1-0.3-0.1c-0.1,0-0.2,0-0.3,0c-0.4,0-0.7,0.1-1,0.2
			c-0.2,0.2-0.3,0.4-0.3,0.7c0,0.3,0.1,0.5,0.3,0.7c0.2,0.2,0.5,0.2,0.9,0.2c0,0,0,0,0,0c0,0,0,0,0.1,0s0.1,0,0.2,0
			c0.1,0,0.2,0,0.3,0V17.3z"/>
		<path class="st1" d="M53.3,26.5c0.2-0.1,0.5-0.1,0.8-0.1c0.3,0,0.6,0,0.9,0c0.3,0,0.6,0,0.9,0.1c0.3,0.1,0.6,0.2,0.9,0.3
			c0.3,0.2,0.5,0.4,0.6,0.6c0.2,0.3,0.2,0.6,0.2,1.1c0,0.4-0.1,0.8-0.2,1.1c-0.2,0.3-0.4,0.5-0.6,0.7c-0.2,0.2-0.5,0.3-0.9,0.4
			c-0.3,0.1-0.7,0.1-1,0.1c0,0-0.1,0-0.2,0c-0.1,0-0.2,0-0.2,0c-0.1,0-0.2,0-0.2,0c-0.1,0-0.1,0-0.2,0v2.6h-0.8V26.5z M54.9,27.1
			c-0.2,0-0.3,0-0.5,0c-0.2,0-0.3,0-0.4,0V30c0,0,0.1,0,0.2,0c0.1,0,0.1,0,0.2,0c0.1,0,0.2,0,0.2,0c0.1,0,0.1,0,0.2,0
			c0.2,0,0.4,0,0.7-0.1c0.2,0,0.4-0.1,0.6-0.2c0.2-0.1,0.3-0.3,0.4-0.5c0.1-0.2,0.2-0.5,0.2-0.8c0-0.3-0.1-0.5-0.2-0.7
			c-0.1-0.2-0.2-0.3-0.4-0.4c-0.2-0.1-0.4-0.2-0.6-0.2S55.2,27.1,54.9,27.1z"/>
		<path class="st1" d="M58.1,30.9c0-0.8,0.2-1.5,0.6-1.9c0.4-0.4,0.9-0.7,1.6-0.7c0.4,0,0.7,0.1,1,0.2c0.3,0.1,0.5,0.3,0.7,0.5
			c0.2,0.2,0.3,0.5,0.4,0.8c0.1,0.3,0.1,0.7,0.1,1.1c0,0.8-0.2,1.5-0.6,1.9c-0.4,0.4-0.9,0.7-1.6,0.7c-0.4,0-0.7-0.1-1-0.2
			c-0.3-0.1-0.5-0.3-0.7-0.5c-0.2-0.2-0.3-0.5-0.4-0.8C58.1,31.6,58.1,31.3,58.1,30.9z M58.9,30.9c0,0.2,0,0.5,0.1,0.7
			s0.1,0.4,0.2,0.6c0.1,0.2,0.2,0.3,0.4,0.4c0.2,0.1,0.4,0.2,0.6,0.2c0.9,0,1.3-0.6,1.3-1.9c0-0.3,0-0.5-0.1-0.7
			c0-0.2-0.1-0.4-0.2-0.6c-0.1-0.2-0.2-0.3-0.4-0.4c-0.2-0.1-0.4-0.2-0.6-0.2C59.3,29,58.9,29.6,58.9,30.9z"/>
		<path class="st1" d="M67,33c-0.2,0.1-0.4,0.3-0.7,0.3c-0.3,0.1-0.6,0.1-0.8,0.1c-0.4,0-0.7-0.1-1-0.2c-0.3-0.1-0.5-0.3-0.6-0.5
			c-0.2-0.2-0.3-0.5-0.4-0.8c-0.1-0.3-0.1-0.7-0.1-1.1c0-0.8,0.2-1.5,0.6-1.9c0.4-0.4,0.9-0.7,1.6-0.7c0.3,0,0.6,0,0.8,0.1
			c0.2,0,0.4,0.1,0.6,0.2l-0.2,0.7c-0.2-0.1-0.3-0.2-0.5-0.2C66,29,65.8,29,65.5,29c-0.9,0-1.4,0.6-1.4,1.9c0,0.2,0,0.5,0.1,0.7
			c0,0.2,0.1,0.4,0.2,0.6c0.1,0.2,0.3,0.3,0.5,0.4c0.2,0.1,0.4,0.2,0.7,0.2c0.2,0,0.4,0,0.6-0.1c0.2-0.1,0.3-0.2,0.5-0.2L67,33z"/>
		<path class="st1" d="M71,29.1h-1.5v4.2h-0.8v-4.2h-1.5v-0.7H71V29.1z"/>
		<path class="st1" d="M71.4,30.9c0-0.8,0.2-1.5,0.6-1.9c0.4-0.4,0.9-0.7,1.6-0.7c0.4,0,0.7,0.1,1,0.2c0.3,0.1,0.5,0.3,0.7,0.5
			c0.2,0.2,0.3,0.5,0.4,0.8c0.1,0.3,0.1,0.7,0.1,1.1c0,0.8-0.2,1.5-0.6,1.9c-0.4,0.4-0.9,0.7-1.6,0.7c-0.4,0-0.7-0.1-1-0.2
			c-0.3-0.1-0.5-0.3-0.7-0.5c-0.2-0.2-0.3-0.5-0.4-0.8C71.4,31.6,71.4,31.3,71.4,30.9z M72.2,30.9c0,0.2,0,0.5,0.1,0.7
			c0,0.2,0.1,0.4,0.2,0.6s0.2,0.3,0.4,0.4c0.2,0.1,0.4,0.2,0.6,0.2c0.9,0,1.3-0.6,1.3-1.9c0-0.3,0-0.5-0.1-0.7
			c0-0.2-0.1-0.4-0.2-0.6c-0.1-0.2-0.2-0.3-0.4-0.4C74,29.1,73.8,29,73.5,29C72.6,29,72.2,29.6,72.2,30.9z"/>
		<path class="st1" d="M76.9,28.4c0.2,0,0.5,0,0.7,0c0.3,0,0.6,0,0.9,0c0.6,0,1.1,0.1,1.4,0.3c0.3,0.2,0.4,0.5,0.4,0.9
			c0,0.2-0.1,0.5-0.2,0.7c-0.1,0.2-0.4,0.4-0.7,0.5v0c0.4,0.1,0.7,0.2,0.8,0.4c0.2,0.2,0.2,0.5,0.2,0.8c0,0.5-0.2,0.9-0.6,1.1
			c-0.4,0.2-0.9,0.3-1.7,0.3c-0.3,0-0.5,0-0.8,0c-0.2,0-0.5,0-0.7-0.1V28.4z M78.7,30.5c0.1,0,0.2,0,0.3-0.1c0.1,0,0.2-0.1,0.3-0.2
			c0.1-0.1,0.2-0.1,0.2-0.2c0.1-0.1,0.1-0.2,0.1-0.3c0-0.3-0.1-0.4-0.2-0.5c-0.2-0.1-0.4-0.2-0.8-0.2c-0.2,0-0.4,0-0.5,0
			c-0.1,0-0.2,0-0.3,0v1.4H78.7z M77.7,32.7c0.1,0,0.2,0,0.4,0s0.3,0,0.4,0c0.4,0,0.8-0.1,1-0.2c0.2-0.1,0.3-0.3,0.3-0.6
			c0-0.2-0.1-0.4-0.3-0.6c-0.2-0.1-0.5-0.2-1-0.2h-0.9V32.7z"/>
		<path class="st1" d="M85.2,33c-0.2,0.1-0.4,0.3-0.7,0.3c-0.3,0.1-0.6,0.1-0.8,0.1c-0.4,0-0.7-0.1-1-0.2c-0.3-0.1-0.5-0.3-0.6-0.5
			c-0.2-0.2-0.3-0.5-0.4-0.8c-0.1-0.3-0.1-0.7-0.1-1.1c0-0.8,0.2-1.5,0.6-1.9c0.4-0.4,0.9-0.7,1.6-0.7c0.3,0,0.6,0,0.8,0.1
			c0.2,0,0.4,0.1,0.6,0.2l-0.2,0.7c-0.2-0.1-0.3-0.2-0.5-0.2C84.2,29,84,29,83.8,29c-0.9,0-1.4,0.6-1.4,1.9c0,0.2,0,0.5,0.1,0.7
			c0,0.2,0.1,0.4,0.2,0.6c0.1,0.2,0.3,0.3,0.5,0.4c0.2,0.1,0.4,0.2,0.7,0.2c0.2,0,0.4,0,0.6-0.1c0.2-0.1,0.3-0.2,0.5-0.2L85.2,33z"
			/>
		<path class="st1" d="M87.5,31.1H87v2.2h-0.8v-4.9H87v2.2l0.4-0.1l1.6-2.1h0.9l-1.5,2L88,30.7l0.5,0.4l1.6,2.2h-1L87.5,31.1z"/>
		<path class="st1" d="M90.6,30.9c0-0.8,0.2-1.5,0.6-1.9c0.4-0.4,0.9-0.7,1.6-0.7c0.4,0,0.7,0.1,1,0.2c0.3,0.1,0.5,0.3,0.7,0.5
			c0.2,0.2,0.3,0.5,0.4,0.8c0.1,0.3,0.1,0.7,0.1,1.1c0,0.8-0.2,1.5-0.6,1.9c-0.4,0.4-0.9,0.7-1.6,0.7c-0.4,0-0.7-0.1-1-0.2
			c-0.3-0.1-0.5-0.3-0.7-0.5c-0.2-0.2-0.3-0.5-0.4-0.8C90.6,31.6,90.6,31.3,90.6,30.9z M91.4,30.9c0,0.2,0,0.5,0.1,0.7
			s0.1,0.4,0.2,0.6s0.2,0.3,0.4,0.4c0.2,0.1,0.4,0.2,0.6,0.2c0.9,0,1.3-0.6,1.3-1.9c0-0.3,0-0.5-0.1-0.7c0-0.2-0.1-0.4-0.2-0.6
			c-0.1-0.2-0.2-0.3-0.4-0.4C93.2,29.1,93,29,92.7,29C91.8,29,91.4,29.6,91.4,30.9z"/>
		<path class="st1" d="M99.2,30.4l0-0.6h0l-0.4,0.6l-2.2,2.9h-0.5v-4.9h0.8v3l0,0.6h0l0.4-0.6l2.2-3h0.5v4.9h-0.8V30.4z M97.3,26.4
			c0.1,0.3,0.2,0.5,0.3,0.6c0.2,0.1,0.3,0.2,0.6,0.2c0.2,0,0.4-0.1,0.6-0.2c0.2-0.1,0.3-0.3,0.3-0.6l0.6,0.2
			c-0.1,0.4-0.2,0.7-0.5,0.9c-0.3,0.2-0.6,0.3-1,0.3c-0.2,0-0.4,0-0.5-0.1c-0.2,0-0.3-0.1-0.5-0.2s-0.3-0.2-0.4-0.4
			c-0.1-0.1-0.2-0.3-0.2-0.5L97.3,26.4z"/>
		<path class="st1" d="M103.9,30.9c0-0.8,0.2-1.5,0.6-1.9c0.4-0.4,0.9-0.7,1.6-0.7c0.4,0,0.7,0.1,1,0.2c0.3,0.1,0.5,0.3,0.7,0.5
			c0.2,0.2,0.3,0.5,0.4,0.8c0.1,0.3,0.1,0.7,0.1,1.1c0,0.8-0.2,1.5-0.6,1.9c-0.4,0.4-0.9,0.7-1.6,0.7c-0.4,0-0.7-0.1-1-0.2
			c-0.3-0.1-0.5-0.3-0.7-0.5c-0.2-0.2-0.3-0.5-0.4-0.8C103.9,31.6,103.9,31.3,103.9,30.9z M104.7,30.9c0,0.2,0,0.5,0.1,0.7
			c0,0.2,0.1,0.4,0.2,0.6c0.1,0.2,0.2,0.3,0.4,0.4c0.2,0.1,0.4,0.2,0.6,0.2c0.9,0,1.3-0.6,1.3-1.9c0-0.3,0-0.5-0.1-0.7
			c0-0.2-0.1-0.4-0.2-0.6c-0.1-0.2-0.2-0.3-0.4-0.4c-0.2-0.1-0.4-0.2-0.6-0.2C105.1,29,104.7,29.6,104.7,30.9z"/>
		<path class="st1" d="M109.9,29.3c0.2-0.3,0.5-0.5,0.7-0.7c0.3-0.1,0.6-0.2,1-0.2c0.6,0,1.1,0.2,1.4,0.6c0.3,0.4,0.5,1,0.5,1.7
			c0,0.9-0.2,1.6-0.6,2c-0.4,0.5-0.9,0.7-1.6,0.7c-0.7,0-1.3-0.2-1.6-0.7c-0.4-0.5-0.5-1.3-0.5-2.4c0-0.6,0-1,0.1-1.4
			c0.1-0.4,0.1-0.7,0.2-1c0.1-0.3,0.2-0.5,0.4-0.7c0.2-0.2,0.3-0.3,0.5-0.4s0.4-0.2,0.6-0.2c0.2,0,0.5-0.1,0.7-0.1
			c0.3,0,0.6-0.1,0.8-0.1c0.2,0,0.3-0.1,0.5-0.2l0.1,0.7c-0.1,0.1-0.1,0.1-0.2,0.1c-0.1,0-0.2,0.1-0.3,0.1c-0.1,0-0.2,0-0.4,0.1
			c-0.2,0-0.3,0-0.5,0c-0.3,0-0.5,0.1-0.7,0.1c-0.2,0-0.4,0.1-0.6,0.3c-0.2,0.1-0.3,0.3-0.4,0.6C109.9,28.5,109.9,28.9,109.9,29.3
			L109.9,29.3z M109.9,30.9c0,0.2,0,0.5,0.1,0.7c0.1,0.2,0.1,0.4,0.2,0.6c0.1,0.2,0.2,0.3,0.4,0.4c0.2,0.1,0.4,0.1,0.6,0.1
			c0.5,0,0.8-0.2,1-0.5c0.2-0.3,0.3-0.8,0.3-1.4c0-0.2,0-0.5-0.1-0.7c0-0.2-0.1-0.4-0.2-0.5c-0.1-0.2-0.2-0.3-0.4-0.4
			c-0.2-0.1-0.3-0.1-0.5-0.1c-0.5,0-0.9,0.1-1.1,0.4C110.1,29.9,109.9,30.3,109.9,30.9z"/>
		<path class="st1" d="M117.3,29.1h-1.4c0,0.3,0,0.6-0.1,0.9c0,0.3,0,0.6-0.1,1c0,0.3-0.1,0.6-0.2,0.9c-0.1,0.3-0.1,0.5-0.3,0.8
			c-0.1,0.2-0.2,0.4-0.4,0.5c-0.1,0.1-0.3,0.2-0.5,0.2c-0.1,0-0.2,0-0.3,0c-0.1,0-0.2,0-0.2-0.1l0.1-0.7c0.1,0,0.2,0,0.3,0
			c0.1,0,0.2-0.1,0.4-0.2c0.1-0.1,0.2-0.3,0.3-0.6c0.1-0.3,0.1-0.7,0.2-1.3c0.1-0.6,0.1-1.3,0.1-2.2h2.9v4.9h-0.8V29.1z"/>
		<path class="st1" d="M119.5,28.8c0.2-0.2,0.5-0.3,0.9-0.3c0.3-0.1,0.7-0.1,1-0.1c0.3,0,0.6,0,0.8,0.1c0.2,0.1,0.4,0.2,0.5,0.4
			c0.1,0.1,0.2,0.3,0.2,0.5c0,0.2,0.1,0.4,0.1,0.5c0,0.4,0,0.8,0,1.2s0,0.7,0,1.1c0,0.2,0,0.5,0,0.7s0.1,0.4,0.1,0.6h-0.6l-0.2-0.7
			h0c-0.1,0.1-0.1,0.2-0.2,0.3c-0.1,0.1-0.2,0.2-0.3,0.2c-0.1,0.1-0.3,0.1-0.4,0.2c-0.2,0-0.4,0.1-0.6,0.1c-0.2,0-0.4,0-0.6-0.1
			c-0.2-0.1-0.3-0.2-0.5-0.3c-0.1-0.1-0.2-0.3-0.3-0.4c-0.1-0.2-0.1-0.4-0.1-0.6c0-0.3,0.1-0.5,0.2-0.7c0.1-0.2,0.3-0.3,0.5-0.5
			c0.2-0.1,0.5-0.2,0.8-0.2c0.3,0,0.6-0.1,1-0.1c0.1,0,0.2,0,0.3,0c0.1,0,0.2,0,0.3,0c0-0.2,0-0.4,0-0.5c0-0.4-0.1-0.6-0.2-0.8
			c-0.1-0.1-0.4-0.2-0.8-0.2c-0.1,0-0.2,0-0.4,0c-0.1,0-0.3,0-0.4,0.1c-0.1,0-0.3,0.1-0.4,0.1s-0.2,0.1-0.3,0.1L119.5,28.8z
			 M120.9,32.7c0.2,0,0.3,0,0.5-0.1c0.1,0,0.3-0.1,0.4-0.2c0.1-0.1,0.2-0.2,0.3-0.3c0.1-0.1,0.1-0.2,0.2-0.3v-0.8
			c-0.1,0-0.2,0-0.3,0c-0.1,0-0.2,0-0.3,0c-0.2,0-0.4,0-0.6,0c-0.2,0-0.4,0.1-0.5,0.1c-0.1,0.1-0.3,0.1-0.4,0.3
			c-0.1,0.1-0.1,0.2-0.1,0.4c0,0.2,0.1,0.4,0.2,0.6C120.4,32.7,120.6,32.7,120.9,32.7z"/>
		<path class="st1" d="M127.8,33c-0.2,0.1-0.4,0.3-0.7,0.3c-0.3,0.1-0.6,0.1-0.8,0.1c-0.4,0-0.7-0.1-1-0.2c-0.3-0.1-0.5-0.3-0.6-0.5
			c-0.2-0.2-0.3-0.5-0.4-0.8c-0.1-0.3-0.1-0.7-0.1-1.1c0-0.8,0.2-1.5,0.6-1.9c0.4-0.4,0.9-0.7,1.6-0.7c0.3,0,0.6,0,0.8,0.1
			c0.2,0,0.4,0.1,0.6,0.2l-0.2,0.7c-0.2-0.1-0.3-0.2-0.5-0.2c-0.2,0-0.4-0.1-0.6-0.1c-0.9,0-1.4,0.6-1.4,1.9c0,0.2,0,0.5,0.1,0.7
			c0,0.2,0.1,0.4,0.2,0.6c0.1,0.2,0.3,0.3,0.5,0.4c0.2,0.1,0.4,0.2,0.7,0.2c0.2,0,0.4,0,0.6-0.1c0.2-0.1,0.3-0.2,0.5-0.2L127.8,33z"
			/>
		<path class="st1" d="M131.9,29.1h-1.5v4.2h-0.8v-4.2H128v-0.7h3.9V29.1z"/>
		<path class="st1" d="M135.7,30.4l0-0.6h0l-0.4,0.6l-2.2,2.9h-0.5v-4.9h0.8v3l0,0.6h0l0.4-0.6l2.2-3h0.5v4.9h-0.8V30.4z"/>
	</g>
</g>
</svg>
