<svg width="36" height="36" viewBox="0 0 36 36" fill="none" xmlns="http://www.w3.org/2000/svg">
<path d="M33.8905 19.2365V15.891C33.8905 15.3086 33.4183 14.8364 32.8358 14.8364C30.657 14.8364 28.6256 15.0202 26.7065 15.3957C25.5877 14.3153 24.2239 13.5315 22.747 13.1031C24.3574 11.7477 25.3827 9.71825 25.3827 7.45356C25.3827 3.34388 22.0708 0.000457764 17.9999 0.000457764C13.929 0.000457764 10.6171 3.34388 10.6171 7.45356C10.6171 9.71825 11.6424 11.7477 13.2529 13.103C11.776 13.5315 10.4121 14.3153 9.2934 15.3956C7.37422 15.0202 5.3429 14.8363 3.16406 14.8363C2.58159 14.8363 2.10937 15.3085 2.10937 15.891V19.2364C0.881787 19.6718 0 20.8441 0 22.2191V24.3285C0 25.7034 0.881787 26.8757 2.10937 27.3111V30.6566C2.10937 31.239 2.58159 31.7112 3.16406 31.7112C8.67859 31.7112 13.2069 33.0179 17.415 35.8232C17.7676 36.0582 18.2321 36.0587 18.585 35.8232C22.7931 33.0179 27.3213 31.7112 32.8359 31.7112C33.4184 31.7112 33.8906 31.239 33.8906 30.6566V27.3111C35.1182 26.8757 36 25.7034 36 24.3285V22.2191C35.9999 20.8442 35.1181 19.6719 33.8905 19.2365ZM12.7265 7.45356C12.7265 4.50699 15.0921 2.10983 17.9999 2.10983C20.9077 2.10983 23.2733 4.50699 23.2733 7.45356C23.2733 10.3613 20.9077 12.727 17.9999 12.727C15.0921 12.727 12.7265 10.3613 12.7265 7.45356ZM3.16399 25.3832C2.58243 25.3832 2.1093 24.9101 2.1093 24.3285V22.2192C2.1093 21.6376 2.58243 21.1645 3.16399 21.1645C3.74554 21.1645 4.21867 21.6376 4.21867 22.2192V24.3285C4.21867 24.9101 3.74554 25.3832 3.16399 25.3832ZM16.9452 33.0532C13.1165 30.8636 9.00793 29.757 4.21867 29.6171V27.3112C5.44626 26.8758 6.32804 25.7035 6.32804 24.3285V22.2192C6.32804 20.8442 5.44626 19.6719 4.21867 19.2365V16.9606C9.17436 17.1029 13.1578 18.2698 16.9452 20.6813V33.0532ZM17.9999 18.8539C16.0532 17.6256 14.027 16.6904 11.8639 16.0332C13.0524 15.2608 14.4516 14.8364 15.8905 14.8364H20.1093C21.5482 14.8364 22.9474 15.2608 24.1359 16.0332C21.9728 16.6904 19.9465 17.6256 17.9999 18.8539ZM31.7811 29.6171C26.9919 29.757 22.8832 30.8639 19.0546 33.0534V20.6821C22.8421 18.2705 26.8252 17.1028 31.7811 16.9606V19.2365C30.5535 19.6719 29.6717 20.8442 29.6717 22.2192V24.3285C29.6717 25.7035 30.5535 26.8758 31.7811 27.3112V29.6171ZM33.8905 24.3285C33.8905 24.9101 33.4174 25.3832 32.8358 25.3832C32.2542 25.3832 31.7811 24.9101 31.7811 24.3285V22.2192C31.7811 21.6376 32.2542 21.1645 32.8358 21.1645C33.4174 21.1645 33.8905 21.6376 33.8905 22.2192V24.3285Z" fill="white"/>
</svg>
