<svg width="33" height="23" viewBox="0 0 33 23" fill="none" xmlns="http://www.w3.org/2000/svg">
<path d="M16.4997 0.5625C9.20801 0.5625 2.98092 5.09792 0.458008 11.5C2.98092 17.9021 9.20801 22.4375 16.4997 22.4375C23.7913 22.4375 30.0184 17.9021 32.5413 11.5C30.0184 5.09792 23.7913 0.5625 16.4997 0.5625ZM16.4997 18.7917C12.4747 18.7917 9.20801 15.525 9.20801 11.5C9.20801 7.475 12.4747 4.20833 16.4997 4.20833C20.5247 4.20833 23.7913 7.475 23.7913 11.5C23.7913 15.525 20.5247 18.7917 16.4997 18.7917ZM16.4997 7.125C14.0788 7.125 12.1247 9.07917 12.1247 11.5C12.1247 13.9208 14.0788 15.875 16.4997 15.875C18.9205 15.875 20.8747 13.9208 20.8747 11.5C20.8747 9.07917 18.9205 7.125 16.4997 7.125Z" fill="#FAFAFA"/>
</svg>
